<?xml version="1.0" encoding="UTF-8"?>
<svg version="1.1" xmlns="http://www.w3.org/2000/svg" width="512" height="512">
<path d="M0 0 C3.54556458 0.00020644 7.09112134 -0.00533769 10.63668215 -0.01005757 C17.5638004 -0.01831327 24.49091012 -0.02111011 31.41803288 -0.02166995 C37.0586465 -0.02214763 42.69925735 -0.02421484 48.3398701 -0.02737057 C64.38793291 -0.03616402 80.43598908 -0.04079211 96.48405432 -0.0400401 C97.34661648 -0.04000014 98.20917864 -0.03996019 99.09787905 -0.03991902 C99.96151401 -0.03987814 100.82514897 -0.03983726 101.71495468 -0.03979514 C115.69062321 -0.03938925 129.66626472 -0.04894771 143.64192545 -0.06305739 C158.04682268 -0.07748377 172.4517068 -0.08432412 186.85661143 -0.08346361 C194.92174548 -0.08313375 202.98685123 -0.08578727 211.05197871 -0.09664166 C217.92212587 -0.10582966 224.79223189 -0.10785494 231.6623826 -0.10113224 C235.1551543 -0.097908 238.64784748 -0.09765796 242.14061129 -0.10648549 C323.15825788 -0.27335284 323.15825788 -0.27335284 351.65378726 26.14538372 C378.68892613 53.82896688 376.81219938 99.72016463 376.79917097 135.49159646 C376.79896453 139.03716104 376.80450866 142.5827178 376.80922854 146.12827861 C376.81748424 153.05539686 376.82028108 159.98250658 376.82084092 166.90962934 C376.8213186 172.55024296 376.82338582 178.19085381 376.82654154 183.83146656 C376.83533499 199.87952937 376.83996308 215.92758554 376.83921107 231.97565078 C376.83915113 233.26949402 376.83915113 233.26949402 376.83908999 234.58947551 C376.83902867 235.88492795 376.83902867 235.88492795 376.83896611 237.20655114 C376.83856022 251.18221967 376.84811869 265.15786118 376.86222836 279.13352191 C376.87665474 293.53841914 376.88349509 307.94330326 376.88263458 322.34820789 C376.88230472 330.41334194 376.88495824 338.47844769 376.89581263 346.54357517 C376.90500064 353.41372233 376.90702591 360.28382835 376.90030321 367.15397906 C376.89707897 370.64675076 376.89682893 374.13944394 376.90565646 377.63220775 C377.07252381 458.64985434 377.07252381 458.64985434 350.65378726 487.14538372 C322.97020409 514.18052259 277.07900634 512.30379585 241.30757451 512.29076743 C237.76200993 512.29056099 234.21645317 512.29610512 230.67089236 512.300825 C223.74377412 512.3090807 216.81666439 512.31187754 209.88954163 512.31243738 C204.24892801 512.31291506 198.60831716 512.31498228 192.96770442 512.318138 C176.9196416 512.32693146 160.87158543 512.33155955 144.82352019 512.33080753 C143.96095803 512.33076757 143.09839587 512.33072762 142.20969546 512.33068645 C141.3460605 512.33064557 140.48242554 512.33060469 139.59261983 512.33056257 C125.6169513 512.33015668 111.64130979 512.33971515 97.66564906 512.35382482 C83.26075183 512.3682512 68.85586771 512.37509155 54.45096308 512.37423104 C46.38582903 512.37390118 38.32072328 512.3765547 30.2555958 512.38740909 C23.38544864 512.3965971 16.51534262 512.39862237 9.64519192 512.39189967 C6.15242021 512.38867543 2.65972703 512.38842539 -0.83303678 512.39725292 C-81.85068337 512.56412027 -81.85068337 512.56412027 -110.34621274 486.14538372 C-137.38135162 458.46180055 -135.50462487 412.5706028 -135.49159646 376.79917097 C-135.49139002 373.25360639 -135.49693415 369.70804963 -135.50165403 366.16248882 C-135.50990973 359.23537058 -135.51270657 352.30826085 -135.51326641 345.38113809 C-135.51374409 339.74052447 -135.5158113 334.09991362 -135.51896703 328.45930088 C-135.52776048 312.41123806 -135.53238857 296.36318189 -135.53163656 280.31511665 C-135.5315966 279.45255449 -135.53155665 278.58999233 -135.53151548 277.70129192 C-135.5314746 276.83765696 -135.53143372 275.974022 -135.5313916 275.08421629 C-135.53098571 261.10854776 -135.54054418 247.13290625 -135.55465385 233.15724552 C-135.56908023 218.75234829 -135.57592058 204.34746417 -135.57506007 189.94255954 C-135.57473021 181.87742549 -135.57738373 173.81231974 -135.58823812 165.74719226 C-135.59742612 158.8770451 -135.5994514 152.00693908 -135.5927287 145.13678838 C-135.58950446 141.64401667 -135.58925442 138.15132349 -135.59808195 134.65855968 C-135.7649493 53.64091309 -135.7649493 53.64091309 -109.34621274 25.14538372 C-81.66262958 -1.88975516 -35.77143183 -0.01302841 0 0 Z " fill="#FE5B4B" transform="translate(135.34621274471283,-0.14538371562957764)"/>
<path d="M0 0 C5.20958058 4.35676555 10.07446142 8.93425601 14.86509705 13.74484253 C15.62653521 14.50542627 16.38797337 15.26601 17.17248541 16.04964173 C19.70973601 18.5852522 22.24340851 21.12440731 24.77709961 23.66357422 C26.60055418 25.487311 28.42422926 27.31082734 30.24810791 29.13414001 C34.16749348 33.05300269 38.08505232 36.97368374 42.00135612 40.89562607 C47.66359055 46.5660074 53.32860313 52.23360655 58.99428505 57.90054299 C68.18768337 67.09612681 77.37884896 76.2939389 86.56860352 85.49316406 C95.49255804 94.42630567 104.41756825 103.35839037 113.34399414 112.2890625 C113.89474926 112.84008034 114.44550438 113.39109818 115.01294904 113.95881353 C117.77609055 116.72326013 120.53925276 119.48768604 123.30242527 122.25210166 C146.20482722 145.16486063 169.10360261 168.0812407 192 191 C190.5997613 193.91879586 189.29704827 195.9239808 186.93408203 198.15014648 C186.00080582 199.04024162 186.00080582 199.04024162 185.04867554 199.94831848 C184.37519073 200.58283432 183.70170593 201.21735016 183.0078125 201.87109375 C181.56967743 203.25174119 180.13321494 204.63413251 178.69824219 206.01806641 C177.94973999 206.73939758 177.20123779 207.46072876 176.43005371 208.20391846 C164.20063358 220.05414431 153.38762606 230.85704698 146.20458984 246.48242188 C143.92081809 251.25547707 141.20101711 255.79178667 138.5625 260.375 C137.4681536 262.30882271 136.37570444 264.24372031 135.28515625 266.1796875 C132.02601028 271.95458053 128.76331512 277.72746214 125.5 283.5 C124.41665057 285.41665757 123.33331725 287.33332424 122.25 289.25 C120.08333333 293.08333333 117.91666667 296.91666667 115.75 300.75 C114.94550415 302.1733667 114.94550415 302.1733667 114.12475586 303.62548828 C113.0423007 305.54056373 111.95978125 307.45560284 110.87719727 309.37060547 C108.15489745 314.18632068 105.43374652 319.00267843 102.71484375 323.8203125 C97.00978903 333.92640943 91.28203899 344.01876888 85.51708984 354.09082031 C81.84644515 360.50813227 78.19870587 366.93811651 74.5625 373.375 C74.02165771 374.33220947 73.48081543 375.28941895 72.92358398 376.27563477 C70.20518354 381.08890482 67.49076006 385.90437604 64.78125 390.72265625 C58.71395664 401.50046095 52.57959431 412.23248495 46.28344727 422.87866211 C42.49351966 429.32251984 38.86496878 435.8453431 35.27001953 442.3996582 C34.76197281 443.32471413 34.25392609 444.24977005 33.73048401 445.20285797 C32.4864173 447.46825875 31.24293802 449.73397981 30 452 C9.97271622 452.046683 -10.05455656 452.08197066 -30.08188343 452.10362434 C-39.38053517 452.11394494 -48.67915314 452.1280202 -57.9777832 452.15087891 C-66.08074217 452.17078885 -74.18367668 452.18371074 -82.28665942 452.18817699 C-86.57868297 452.19078844 -90.87063655 452.19694268 -95.16263771 452.21146011 C-99.2000695 452.22500621 -103.23740231 452.22922869 -107.27485466 452.22621536 C-108.75876528 452.22676686 -110.24267912 452.230762 -111.72657013 452.23841095 C-113.74862287 452.24832514 -115.77072838 452.24478577 -117.7928009 452.24050903 C-119.49212627 452.24327441 -119.49212627 452.24327441 -121.22578144 452.24609566 C-124 452 -124 452 -127 450 C-111.9566562 421.53372287 -111.9566562 421.53372287 -104.5625 408.625 C-99.34754822 399.51540993 -94.39654823 390.28291752 -89.5 381 C-82.93765411 368.56061359 -76.23104513 356.22148761 -69.18066406 344.04931641 C-68.20891058 342.36261279 -67.26807381 340.65813532 -66.3359375 338.94921875 C-65 337 -65 337 -62 336 C-60.79367053 333.92460143 -60.79367053 333.92460143 -59.8359375 331.3203125 C-59.44003418 330.33675781 -59.04413086 329.35320312 -58.63623047 328.33984375 C-58.22002441 327.27894531 -57.80381836 326.21804688 -57.375 325.125 C-52.97365597 314.20927367 -48.16234051 303.57406944 -43 293 C-42.34 293 -41.68 293 -41 293 C-38.97349269 301.13477402 -37.38690276 309.25897975 -36.06201172 317.53222656 C-35.29958317 322.28141534 -34.43575272 326.97997627 -33.33203125 331.6640625 C-32.84693621 335.07684882 -33 338.55291027 -33 342 C-7.59 342 17.82 342 44 342 C44.66 338.7 45.32 335.4 46 332 C46.72324514 329.25414778 47.46736284 326.53023402 48.2578125 323.8046875 C49.9590397 317.8236035 51.56944239 311.82868957 53.0861969 305.79811096 C58.86419857 282.85630175 64.84569746 261.96401484 77.33398438 241.71582031 C79.67233848 237.90400157 81.79947948 233.98873282 83.9375 230.0625 C84.70913142 228.67867887 85.48264105 227.29590374 86.2578125 225.9140625 C89.97274375 219.27186854 93.63880829 212.60255645 97.3125 205.9375 C98.33588938 204.08093931 99.35931488 202.22439951 100.38337708 200.36820984 C101.34076387 198.63070913 102.29469185 196.89130398 103.24853516 195.15185547 C104.33898085 193.18953962 105.44982012 191.23824571 106.59130859 189.30517578 C107.04973145 188.52513184 107.5081543 187.74508789 107.98046875 186.94140625 C108.37516357 186.28986572 108.7698584 185.6383252 109.17651367 184.96704102 C110.21233549 182.49279958 110.25748336 180.65812903 110 178 C108.33070607 175.68620207 108.33070607 175.68620207 106 173.625 C105.2575 172.91601562 104.515 172.20703125 103.75 171.4765625 C102.28831884 170.16021896 100.82195468 168.84841246 99.32421875 167.57324219 C92.30312045 161.57332848 85.90045028 154.96397463 79.41796875 148.39746094 C72.40390807 141.24290471 72.40390807 141.24290471 65 134.5 C58.77944604 129.19196532 53.15892134 123.21283328 47.41796875 117.39746094 C40.41011078 110.24835514 40.41011078 110.24835514 33.01171875 103.51171875 C27.28691612 98.62736272 22.09594323 93.16346327 16.8125 87.8125 C14.69697823 85.67021157 12.57803696 83.5313888 10.45703125 81.39453125 C9.98296341 80.91216507 9.50889557 80.42979889 9.02046204 79.93281555 C3.96295671 74.49542668 3.96295671 74.49542668 -2.5390625 71.46875 C-5.99037614 72.21379548 -7.13112652 73.81059208 -9.375 76.5 C-10.15746094 77.41910156 -10.93992188 78.33820313 -11.74609375 79.28515625 C-12.48988281 80.18105469 -13.23367187 81.07695312 -14 82 C-15.14146222 83.31630326 -16.28692091 84.62915829 -17.4375 85.9375 C-17.99308594 86.57558594 -18.54867187 87.21367187 -19.12109375 87.87109375 C-21.38734168 90.43887986 -23.69223937 92.96946911 -26 95.5 C-33.40962051 103.47237836 -33.40962051 103.47237836 -40.13037109 112.00976562 C-43.04981352 115.49608494 -46.19611436 116.21505269 -50.58203125 116.79296875 C-51.67979134 116.9693261 -51.67979134 116.9693261 -52.79972839 117.14924622 C-55.13435643 117.51917769 -57.47238559 117.85423518 -59.8125 118.1875 C-61.34086106 118.4214477 -62.86886248 118.65775771 -64.39648438 118.89648438 C-66.67047363 119.25113154 -68.94458697 119.6035978 -71.2204895 119.94577026 C-78.85205026 121.09751134 -86.42540578 122.52412746 -94 124 C-96.89178986 132.03472689 -98.79474768 140.24990898 -100.6875 148.5625 C-101.0106668 149.96688919 -101.33423151 151.37118688 -101.65820312 152.77539062 C-102.44338905 156.18255183 -103.22319448 159.59091708 -104 163 C-106.56076097 163.67404284 -109.12326583 164.339414 -111.6875 165 C-112.40873047 165.19078125 -113.12996094 165.3815625 -113.87304688 165.578125 C-117.66850961 166.54865428 -121.04615439 167.24955239 -125 167 C-125.98307378 176.32099584 -124.13678522 184.2684751 -121.76049805 193.20288086 C-119.06902057 203.42378753 -116.86336251 213.72152344 -114.6875 224.0625 C-110.79352487 242.50375479 -106.6326134 260.87364373 -102.34275818 279.22645569 C-101.19456195 284.14386363 -100.0792616 289.06703993 -99 294 C-96.22256749 291.51652551 -94.57565248 288.77551801 -92.7421875 285.546875 C-92.12166504 284.46108154 -91.50114258 283.37528809 -90.86181641 282.2565918 C-90.5377179 281.68451996 -90.21361938 281.11244812 -89.87969971 280.52304077 C-88.18476965 277.53191808 -86.47403289 274.54984421 -84.765625 271.56640625 C-84.43160675 270.98208328 -84.0975885 270.39776031 -83.75344849 269.79573059 C-80.77401574 264.58871889 -77.69340482 259.45180069 -74.5859375 254.3203125 C-72.31082531 250.54121529 -70.07986237 246.73650037 -67.8515625 242.9296875 C-67.47645538 242.28886734 -67.10134827 241.64804718 -66.71487427 240.98780823 C-64.81653039 237.74328771 -62.92028955 234.49755082 -61.02587891 231.25073242 C-57.43861317 225.10975889 -53.81640597 219.00257553 -50 213 C-48.68 213.99 -47.36 214.98 -46 216 C-45.67 215.01 -45.34 214.02 -45 213 C-41.20494808 216.30949931 -39.15893295 220.14430588 -36.98168945 224.59838867 C-36.60232239 225.35814499 -36.22295532 226.11790131 -35.83209229 226.90068054 C-34.58497071 229.402783 -33.34918695 231.91031 -32.11328125 234.41796875 C-31.24776158 236.15901218 -30.38147355 237.89967384 -29.51445007 239.63996887 C-27.23757952 244.21461981 -24.97001422 248.79381835 -22.70471191 253.37420654 C-19.07064105 260.71770624 -15.42153356 268.05375131 -11.77422142 275.39068031 C-10.49931983 277.95823786 -9.22777965 280.52743742 -7.9568634 283.0969696 C-7.1813224 284.66126346 -6.40574557 286.22553955 -5.63012695 287.78979492 C-5.27532761 288.50927307 -4.92052826 289.22875122 -4.55497742 289.97003174 C-3.09697832 293.1995506 -3.09697832 293.1995506 -1 296 C-0.82657074 295.35541336 -0.65314148 294.71082672 -0.47445679 294.04670715 C1.34845482 287.2721076 3.17250094 280.49781422 4.99719238 273.72369385 C5.64256755 271.32724262 6.28768889 268.93072302 6.93249512 266.53411865 C20.66909232 215.48115324 20.66909232 215.48115324 26.1875 197.1875 C26.52507324 196.03403076 26.86264648 194.88056152 27.21044922 193.69213867 C27.52643066 192.6735376 27.84241211 191.65493652 28.16796875 190.60546875 C28.42860107 189.75106201 28.6892334 188.89665527 28.95776367 188.01635742 C30.24030338 185.53509823 31.43080885 184.97039111 34 184 C35.71878839 188.9974021 33.92977257 192.85018198 32.1875 197.5625 C28.73915774 207.39590594 25.83085616 217.33436428 23.0625 227.375 C22.74380447 228.52902313 22.74380447 228.52902313 22.41867065 229.70635986 C19.06846181 241.8669638 15.88142984 254.06667798 12.76904297 266.29003906 C10.6404871 274.62315527 8.35929763 282.89707389 5.94970703 291.15283203 C4.04463942 297.7182966 2.4150451 304.30956745 1 311 C-1.5586199 309.72069005 -1.79454673 308.69071293 -2.98413086 306.11474609 C-3.38297989 305.26345123 -3.78182892 304.41215637 -4.19276428 303.5350647 C-4.63317551 302.58247772 -5.07358673 301.62989075 -5.52734375 300.6484375 C-12.5398109 285.74112843 -19.88618248 271.00495363 -27.24633789 256.26708984 C-29.20523506 252.34369835 -31.15660743 248.41661003 -33.10652256 244.48874855 C-34.6217796 241.43970493 -36.14232335 238.39332132 -37.66438103 235.34766769 C-38.38763629 233.89813361 -39.10889349 232.44760076 -39.82809639 230.99605179 C-40.82194253 228.99142363 -41.82318154 226.99066489 -42.82641602 224.99072266 C-43.39280289 223.85430328 -43.95918976 222.71788391 -44.54273987 221.54702759 C-45.74763292 218.89524475 -45.74763292 218.89524475 -48 218 C-48.28125732 218.73613525 -48.56251465 219.47227051 -48.85229492 220.23071289 C-49.88461872 222.72159756 -51.02319452 224.97352624 -52.36328125 227.30859375 C-52.83080811 228.12585938 -53.29833496 228.943125 -53.7800293 229.78515625 C-54.28574463 230.66042969 -54.79145996 231.53570312 -55.3125 232.4375 C-56.11264526 233.8296875 -56.11264526 233.8296875 -56.92895508 235.25 C-61.69851336 243.52623835 -66.55574474 251.74979881 -71.4296875 259.96484375 C-74.07494281 264.42749021 -76.70209139 268.90037483 -79.3203125 273.37890625 C-79.6923732 274.01504852 -80.0644339 274.6511908 -80.44776917 275.30661011 C-81.92443242 277.83172402 -83.40101126 280.35688129 -84.87460327 282.88378906 C-89.80033332 291.32996607 -94.84074259 299.69470685 -100 308 C-100.66 307.67 -101.32 307.34 -102 307 C-102.63842773 304.78198242 -102.63842773 304.78198242 -103.18359375 301.85546875 C-103.38919922 300.78490234 -103.59480469 299.71433594 -103.80664062 298.61132812 C-104.01482422 297.48146484 -104.22300781 296.35160156 -104.4375 295.1875 C-105.63646496 288.80688836 -106.83975957 282.46163565 -108.47265625 276.17578125 C-109.64903178 271.60419686 -110.5988855 267.01792274 -111.44140625 262.375 C-112.90889739 254.30186162 -114.63065703 246.29734633 -116.42456055 238.29101562 C-116.93703258 236.00208769 -117.44438603 233.71206784 -117.95117188 231.421875 C-119.73292454 223.40884155 -121.61163606 215.42882427 -123.62579346 207.47099304 C-124.89929218 202.43546701 -126.08303119 197.38746429 -127.1875 192.3125 C-127.35185547 191.56806641 -127.51621094 190.82363281 -127.68554688 190.05664062 C-128.12932237 188.03898928 -128.56504677 186.01957157 -129 184 C-129.22171875 183.1234375 -129.4434375 182.246875 -129.671875 181.34375 C-130.08123367 178.41975951 -129.6535121 176.07302966 -129.0625 173.1875 C-128.86785156 172.21167969 -128.67320312 171.23585937 -128.47265625 170.23046875 C-128.23869141 169.12638672 -128.23869141 169.12638672 -128 168 C-128.99515625 168.25394531 -129.9903125 168.50789062 -131.015625 168.76953125 C-156.08020567 175 -156.08020567 175 -167 175 C-164.75976326 167.95091632 -162.07316999 161.18259732 -159.1875 154.375 C-156.3125109 147.54403839 -153.45738711 140.71170119 -150.75 133.8125 C-149.02147933 129.45027235 -147.18924993 125.18099168 -145.1875 120.9375 C-142.49082449 115.20004195 -140.06955579 109.37454745 -137.6875 103.5 C-134.53157259 95.727367 -131.34083855 87.9719221 -128.0625 80.25 C-127.68504639 79.35087891 -127.30759277 78.45175781 -126.91870117 77.52539062 C-126.56525635 76.69716797 -126.21181152 75.86894531 -125.84765625 75.015625 C-125.53836182 74.28633789 -125.22906738 73.55705078 -124.91040039 72.80566406 C-124 71 -124 71 -122 69 C-118.37371425 71.03938901 -114.7492167 73.08193666 -111.125 75.125 C-110.11179688 75.69476563 -109.09859375 76.26453125 -108.0546875 76.8515625 C-106.54648438 77.70234375 -106.54648438 77.70234375 -105.0078125 78.5703125 C-104.00395508 79.13524414 -103.00009766 79.70017578 -101.96582031 80.28222656 C-98.28538473 82.41389801 -94.70828412 84.69473462 -91.15185547 87.02685547 C-89.08903048 88.14699108 -89.08903048 88.14699108 -86.99560547 87.95263672 C-84.1378654 86.58844517 -82.64460329 84.66900135 -80.578125 82.265625 C-75.26918373 76.2566855 -69.66811475 70.57581526 -63.984375 64.921875 C-63.07860718 64.01949097 -62.17283936 63.11710693 -61.23962402 62.18737793 C-58.41177727 59.37287299 -55.5814145 56.56091448 -52.75 53.75 C-48.99167837 50.01874185 -45.23710978 46.28375446 -41.484375 42.546875 C-40.63631287 41.70711121 -39.78825073 40.86734741 -38.91448975 40.00213623 C-34.6383098 35.74350661 -30.54096155 31.41049626 -26.60720825 26.83428955 C-24.13974965 24.0182055 -21.5075664 21.38302912 -18.84765625 18.75 C-18.30265976 18.20641846 -17.75766327 17.66283691 -17.19615173 17.1027832 C-15.48730783 15.39945185 -13.77498803 13.69966674 -12.0625 12 C-10.88973991 10.83226626 -9.71721202 9.66429926 -8.54492188 8.49609375 C-5.69928311 5.66136766 -2.85052547 2.82981176 0 0 Z " fill="#FEFEFD" transform="translate(233,60)"/>
<path d="M0 0 C3.49187425 1.03918178 5.2510089 2.81993819 7.87890625 5.3515625 C8.41604248 5.86356201 8.95317871 6.37556152 9.5065918 6.90307617 C16.30990669 13.44604828 22.94464662 20.17579106 29.57397461 26.89501953 C33.40744529 30.76584812 37.21397511 34.60645329 41.359375 38.14453125 C47.60176395 43.48825668 53.2544865 49.48536786 59.0234375 55.32910156 C66.03749818 62.48365779 66.03749818 62.48365779 73.44140625 69.2265625 C79.66196021 74.53459718 85.28248491 80.51372922 91.0234375 86.32910156 C97.74188465 93.12673636 104.45656186 99.83595224 112.00390625 105.7265625 C113.44140625 107.7265625 113.44140625 107.7265625 113.40234375 110.64453125 C112.443472 116.29567657 109.28197266 121.11116705 106.50390625 126.0390625 C105.61602417 127.64454956 105.61602417 127.64454956 104.71020508 129.2824707 C102.96371333 132.43606167 101.20368726 135.58177566 99.44140625 138.7265625 C98.59911883 140.24415863 97.75783541 141.76231284 96.91796875 143.28125 C95.36499328 146.08705984 93.80755475 148.89030972 92.24609375 151.69140625 C88.92834955 157.64572727 85.61519033 163.60254402 82.31314087 169.56558228 C81.62149271 170.81339454 80.92880978 172.06063395 80.23495483 173.30722046 C77.94001011 177.43101835 75.6831017 181.57355405 73.44140625 185.7265625 C72.82515381 186.84039307 72.20890137 187.95422363 71.57397461 189.10180664 C66.66607672 198.33391385 63.93498455 207.5754302 61.37890625 217.6640625 C60.95050845 219.304986 60.52064268 220.94552692 60.08935547 222.58569336 C59.04340763 226.57690762 58.01406936 230.57212521 56.99273682 234.56970215 C55.93832544 238.69466498 54.87171953 242.8164743 53.80297852 246.93774414 C53.33536012 248.74792485 52.87298431 250.55947437 52.41772461 252.37280273 C50.73261823 258.98482037 48.61814513 265.19634585 46.44140625 271.7265625 C21.03140625 271.7265625 -4.37859375 271.7265625 -30.55859375 271.7265625 C-31.21859375 266.7765625 -31.87859375 261.8265625 -32.55859375 256.7265625 C-33.67141042 251.85567902 -33.67141042 251.85567902 -34.83203125 246.99609375 C-36.09928354 241.29345845 -36.80239879 235.51489119 -37.55859375 229.7265625 C-37.88931834 227.39285798 -38.22195341 225.05942101 -38.55859375 222.7265625 C-39.21859375 222.7265625 -39.87859375 222.7265625 -40.55859375 222.7265625 C-40.83856201 223.60562256 -41.11853027 224.48468262 -41.40698242 225.39038086 C-42.44827214 228.40696429 -43.62924462 231.21965405 -44.984375 234.10546875 C-45.44900146 235.10368652 -45.91362793 236.1019043 -46.39233398 237.13037109 C-46.88032471 238.17273926 -47.36831543 239.21510742 -47.87109375 240.2890625 C-51.43636811 247.94138684 -54.81803353 255.50623795 -57.4609375 263.53125 C-58.83715116 266.28367731 -59.71772085 266.6283491 -62.55859375 267.7265625 C-65.26782227 268.04541016 -65.26782227 268.04541016 -68.4375 268.140625 C-69.64921875 268.17937744 -70.8609375 268.21812988 -72.109375 268.25805664 C-73.44660074 268.28981369 -74.78384099 268.32096455 -76.12109375 268.3515625 C-77.5091175 268.38978673 -78.89713827 268.42811946 -80.28515625 268.46655273 C-99.37035269 268.95311351 -118.46915433 268.81463842 -137.55859375 268.7265625 C-137.74035156 267.65019531 -137.92210937 266.57382812 -138.109375 265.46484375 C-139.28431222 258.60710632 -140.48302547 251.79219521 -142.125 245.02734375 C-143.71253737 238.37249452 -144.6341883 231.69589751 -145.49609375 224.9140625 C-146.73271234 215.54911497 -148.08230317 206.22376926 -149.68359375 196.9140625 C-151.01851926 189.14241066 -152.18969887 181.39137794 -153.06640625 173.5546875 C-154.88797323 159.38694432 -157.71293829 145.31720727 -160.17504883 131.2487793 C-160.71139714 128.18294468 -161.24641222 125.11687969 -161.78125 122.05078125 C-161.94480484 121.11836105 -162.10835968 120.18594086 -162.27687073 119.2252655 C-163.11753026 114.40082043 -163.897524 109.57897217 -164.55859375 104.7265625 C-162.41203022 103.65328074 -160.81594726 103.4007755 -158.4453125 103.078125 C-157.61515625 102.96122314 -156.785 102.84432129 -155.9296875 102.72387695 C-155.04410156 102.60101318 -154.15851563 102.47814941 -153.24609375 102.3515625 C-146.07870274 101.32664099 -139.10661918 100.0777006 -132.08984375 98.27734375 C-129.55859375 97.7265625 -129.55859375 97.7265625 -125.55859375 97.7265625 C-125.6771875 98.57476562 -125.79578125 99.42296875 -125.91796875 100.296875 C-126.78803283 108.21445811 -126.27405227 114.24995161 -123.77026367 121.79296875 C-122.48627616 125.81393488 -121.55390698 129.87566945 -120.66796875 134 C-120.4981398 134.77723419 -120.32831085 135.55446838 -120.15333557 136.35525513 C-119.61784258 138.81152784 -119.08763323 141.2688924 -118.55859375 143.7265625 C-118.21770094 145.30403838 -117.87679936 146.88151236 -117.53588867 148.45898438 C-116.34666647 153.97223754 -115.16176811 159.48642196 -113.9831543 165.00195312 C-112.17321779 173.46614404 -110.32093635 181.90202737 -108.17749023 190.28955078 C-105.33307592 201.48992304 -103.29861402 212.91985816 -101.05029297 224.25195312 C-100.22390176 228.41099051 -99.39114579 232.5687547 -98.55859375 236.7265625 C-95.7023716 233.30891407 -93.37257004 229.8748315 -91.1953125 225.9921875 C-90.56359131 224.87376465 -89.93187012 223.7553418 -89.28100586 222.60302734 C-88.94986786 222.01269714 -88.61872986 221.42236694 -88.27755737 220.81414795 C-86.50207947 217.65107725 -84.71085157 214.49697995 -82.91796875 211.34375 C-82.55267563 210.70116241 -82.18738251 210.05857483 -81.8110199 209.39651489 C-78.30090871 203.24080739 -74.66449953 197.16414209 -70.99609375 191.1015625 C-63.83551322 179.26034694 -56.91024002 167.29439289 -50.03808594 155.28417969 C-48.57128183 152.74849656 -47.07268666 150.23424361 -45.55859375 147.7265625 C-41.69372678 149.01485149 -41.17547431 150.899106 -39.40414429 154.4022522 C-39.00506866 155.21680878 -38.60599304 156.03136536 -38.19482422 156.87060547 C-37.76683533 157.72424683 -37.33884644 158.57788818 -36.89788818 159.45739746 C-35.48087051 162.28981357 -34.07826731 165.12911406 -32.67578125 167.96875 C-31.69678845 169.93352181 -30.71697016 171.89788251 -29.73635864 173.86184692 C-27.68101599 177.98322555 -25.63213567 182.10772728 -23.58837891 186.23486328 C-20.96577877 191.5309049 -18.33293013 196.82176005 -15.69595146 202.11065483 C-13.1861039 207.14513315 -10.6804437 212.18169046 -8.17578125 217.21875 C-7.69578548 218.18365231 -7.21578972 219.14855461 -6.72124863 220.14269638 C-5.36642755 222.86859256 -4.01448084 225.59589264 -2.66357422 228.32373047 C-2.26045013 229.13423859 -1.85732605 229.9447467 -1.44198608 230.77981567 C-1.07472412 231.52294006 -0.70746216 232.26606445 -0.32907104 233.03170776 C-0.00941816 233.67658583 0.31023472 234.32146389 0.63957405 234.98588371 C1.44140625 236.7265625 1.44140625 236.7265625 2.44140625 239.7265625 C2.76564575 238.4593335 2.76564575 238.4593335 3.09643555 237.16650391 C3.92441486 233.93419582 4.75405906 230.70232351 5.5847168 227.47070312 C5.93919228 226.09033201 6.29306399 224.70980567 6.64624023 223.32910156 C8.83171361 214.78730861 11.10065551 206.27429205 13.47665405 197.78347778 C15.10752664 191.95004067 16.69780371 186.10639534 18.2734375 180.2578125 C27.96810455 144.33597404 27.96810455 144.33597404 33.1184082 128.26367188 C34.55652963 123.75873203 35.85027094 119.43988134 36.44140625 114.7265625 C35.45140625 115.0565625 34.46140625 115.3865625 33.44140625 115.7265625 C32.33546344 118.01502328 32.33546344 118.01502328 31.53125 120.90234375 C31.18618408 122.02237793 30.84111816 123.14241211 30.4855957 124.29638672 C29.93778442 126.14901123 29.93778442 126.14901123 29.37890625 128.0390625 C28.98776993 129.33366137 28.59607499 130.62809158 28.20385742 131.92236328 C21.57669869 153.94187462 15.57383222 176.1533936 9.81640625 198.4140625 C8.2903741 204.31412866 6.75656163 210.21173602 5.19140625 216.1015625 C4.94487305 217.05466309 4.69833984 218.00776367 4.44433594 218.98974609 C4.21133789 219.85937988 3.97833984 220.72901367 3.73828125 221.625 C3.43422363 222.78008057 3.43422363 222.78008057 3.12402344 223.95849609 C2.44140625 225.7265625 2.44140625 225.7265625 0.44140625 226.7265625 C-0.06780365 225.70148087 -0.57701355 224.67639923 -1.10165405 223.62025452 C-5.89224026 213.97836858 -10.68909884 204.33962657 -15.49217796 194.70395756 C-17.96151173 189.74960845 -20.42859219 184.79416349 -22.890625 179.83618164 C-25.26498372 175.05496013 -27.64512747 170.27666083 -30.02937698 165.5003643 C-30.93973745 163.67408378 -31.84797874 161.84674537 -32.7541008 160.01835823 C-34.0198284 157.46524854 -35.2929173 154.91594355 -36.56787109 152.36743164 C-36.94406082 151.60426636 -37.32025055 150.84110107 -37.70783997 150.05480957 C-39.41153331 146.23364423 -39.41153331 146.23364423 -42.55859375 143.7265625 C-42.88859375 144.3865625 -43.21859375 145.0465625 -43.55859375 145.7265625 C-45.53859375 144.7365625 -45.53859375 144.7365625 -47.55859375 143.7265625 C-48.05746094 144.62632812 -48.55632812 145.52609375 -49.0703125 146.453125 C-55.15333013 157.37188119 -61.48681971 168.13398887 -67.86914062 178.87988281 C-70.60594334 183.49131629 -73.33183282 188.1091868 -76.05859375 192.7265625 C-77.12494502 194.53128248 -78.19135155 196.33596982 -79.2578125 198.140625 C-79.79196777 199.04458008 -80.32612305 199.94853516 -80.87646484 200.87988281 C-85.77050781 209.16210938 -90.66455078 217.44433594 -95.55859375 225.7265625 C-98.30452683 222.98062942 -98.62827649 219.94139027 -99.44140625 216.265625 C-99.61660294 215.50074265 -99.79179962 214.73586029 -99.9723053 213.94779968 C-100.54990833 211.41729165 -101.11686693 208.88452664 -101.68359375 206.3515625 C-102.0845029 204.58345508 -102.48595828 202.81547143 -102.88793945 201.04760742 C-103.92129377 196.49277065 -104.94503982 191.93583774 -105.96502686 187.37799072 C-106.53012611 184.85372577 -107.09700617 182.32986847 -107.66455078 179.80615234 C-111.39206479 163.22116823 -115.04897911 146.62180207 -118.5690918 129.99145508 C-118.78863525 128.95657959 -119.00817871 127.9217041 -119.234375 126.85546875 C-119.44618408 125.85362549 -119.65799316 124.85178223 -119.8762207 123.81958008 C-120.35847075 121.63366745 -120.87035453 119.45419276 -121.40307617 117.2800293 C-121.68127197 116.143479 -121.95946777 115.00692871 -122.24609375 113.8359375 C-122.50390625 112.8159668 -122.76171875 111.79599609 -123.02734375 110.74511719 C-123.86572876 105.98142591 -123.34710896 101.46715392 -122.55859375 96.7265625 C-119.80983693 96.05437743 -117.05978649 95.38863815 -114.30859375 94.7265625 C-113.53128906 94.53578125 -112.75398438 94.345 -111.953125 94.1484375 C-111.19902344 93.96796875 -110.44492188 93.7875 -109.66796875 93.6015625 C-108.97670898 93.43398437 -108.28544922 93.26640625 -107.57324219 93.09375 C-105.55859375 92.7265625 -105.55859375 92.7265625 -101.55859375 92.7265625 C-101.48382813 92.07816406 -101.4090625 91.42976563 -101.33203125 90.76171875 C-100.23358111 82.56641917 -98.46058235 74.58157722 -96.55859375 66.5390625 C-96.29739746 65.4157251 -96.03620117 64.2923877 -95.76708984 63.13500977 C-95.38544678 61.55030884 -95.38544678 61.55030884 -94.99609375 59.93359375 C-94.76792969 58.9794458 -94.53976563 58.02529785 -94.3046875 57.04223633 C-93.55859375 54.7265625 -93.55859375 54.7265625 -91.55859375 52.7265625 C-89.61212158 52.19580078 -89.61212158 52.19580078 -87.20410156 51.796875 C-86.30266418 51.64331543 -85.40122681 51.48975586 -84.47247314 51.33154297 C-83.49542419 51.17314941 -82.51837524 51.01475586 -81.51171875 50.8515625 C-80.50776062 50.68156738 -79.50380249 50.51157227 -78.46942139 50.33642578 C-75.25036868 49.79220216 -72.02967988 49.25860833 -68.80859375 48.7265625 C-65.60199898 48.19341319 -62.3958596 47.65789561 -59.19061279 47.11669922 C-57.19473936 46.78003145 -55.19805617 46.44812033 -53.20050049 46.12158203 C-43.68671504 44.82993139 -43.68671504 44.82993139 -36.30859375 39.2890625 C-33.4805251 35.84157174 -30.57467104 32.51225882 -27.55859375 29.2265625 C-24.76593215 26.16175247 -21.97841362 23.09533952 -19.24609375 19.9765625 C-18.70597656 19.36296875 -18.16585937 18.749375 -17.609375 18.1171875 C-15.8489671 16.06505486 -14.12880233 13.98857586 -12.4140625 11.8984375 C-11.25393443 10.50778899 -10.09377789 9.11716423 -8.93359375 7.7265625 C-8.38276123 7.04239258 -7.83192871 6.35822266 -7.2644043 5.65332031 C-3.29915975 0.93686063 -3.29915975 0.93686063 0 0 Z " fill="#1A8F8F" transform="translate(230.55859375,130.2734375)"/>
<path d="M0 0 C3.49187425 1.03918178 5.2510089 2.81993819 7.87890625 5.3515625 C8.41604248 5.86356201 8.95317871 6.37556152 9.5065918 6.90307617 C16.30990669 13.44604828 22.94464662 20.17579106 29.57397461 26.89501953 C33.40744529 30.76584812 37.21397511 34.60645329 41.359375 38.14453125 C47.60176395 43.48825668 53.2544865 49.48536786 59.0234375 55.32910156 C66.03749818 62.48365779 66.03749818 62.48365779 73.44140625 69.2265625 C79.66196021 74.53459718 85.28248491 80.51372922 91.0234375 86.32910156 C97.74188465 93.12673636 104.45656186 99.83595224 112.00390625 105.7265625 C113.44140625 107.7265625 113.44140625 107.7265625 113.40234375 110.64453125 C112.443472 116.29567657 109.28197266 121.11116705 106.50390625 126.0390625 C105.61602417 127.64454956 105.61602417 127.64454956 104.71020508 129.2824707 C102.96371333 132.43606167 101.20368726 135.58177566 99.44140625 138.7265625 C98.59911883 140.24415863 97.75783541 141.76231284 96.91796875 143.28125 C95.3699817 146.07856445 93.81598168 148.87240775 92.2578125 151.6640625 C89.96219849 155.78258828 87.6824142 159.9097656 85.40625 164.0390625 C84.87184547 165.00849541 84.87184547 165.00849541 84.3266449 165.99751282 C82.88682878 168.6098433 81.44726261 171.22231061 80.00863647 173.83529663 C72.96897064 186.6211626 72.96897064 186.6211626 69.44140625 192.7265625 C68.33584367 189.39840826 68.56802082 187.29884042 69.48046875 183.9375 C69.72885498 183.00462158 69.97724121 182.07174316 70.2331543 181.1105957 C70.50812744 180.11761475 70.78310059 179.12463379 71.06640625 178.1015625 C71.34202393 177.07699951 71.6176416 176.05243652 71.90161133 174.99682617 C72.73701556 171.90354666 73.58642186 168.81448196 74.44140625 165.7265625 C74.80322998 164.41727783 74.80322998 164.41727783 75.17236328 163.08154297 C76.02545029 160.00098505 76.88119218 156.92121889 77.74536133 153.84375 C79.42982331 147.833645 80.97797211 141.79446015 82.44140625 135.7265625 C79.47140625 135.0665625 76.50140625 134.4065625 73.44140625 133.7265625 C73.65796875 132.78554688 73.87453125 131.84453125 74.09765625 130.875 C74.5153125 129.00714844 74.5153125 129.00714844 74.94140625 127.1015625 C75.21984375 125.87179687 75.49828125 124.64203125 75.78515625 123.375 C76.38441327 120.04341636 76.49125662 117.09561665 76.44140625 113.7265625 C75.61147156 113.48012749 75.61147156 113.48012749 74.76477051 113.22871399 C68.9226906 111.49376224 63.08109014 109.75720303 57.23974609 108.01977539 C55.06961733 107.37451949 52.89937305 106.72965197 50.72900391 106.08520508 C38.27177236 102.38597642 25.82870587 98.65432673 13.44140625 94.7265625 C13.39604736 95.58677002 13.35068848 96.44697754 13.30395508 97.33325195 C12.67892116 107.92383229 11.47955428 118.39406384 10.12890625 128.9140625 C9.90508174 130.68154528 9.68136891 132.4490422 9.45776367 134.21655273 C7.72917277 147.80319798 5.83306639 161.36105473 3.84814453 174.91259766 C2.99092364 180.84316667 2.20951016 186.78386383 1.44140625 192.7265625 C-0.41208064 189.94633216 -0.91498222 188.75809903 -1.48828125 185.62109375 C-1.64143799 184.81115967 -1.79459473 184.00122559 -1.95239258 183.16674805 C-2.11118896 182.29961182 -2.26998535 181.43247559 -2.43359375 180.5390625 C-4.9763728 167.33903039 -8.2595993 154.47758992 -12.12109375 141.6015625 C-12.41411377 140.61696045 -12.70713379 139.6323584 -13.0090332 138.61791992 C-15.06789517 131.33799407 -15.06789517 131.33799407 -18.55859375 124.7265625 C-21.49763199 123.78782261 -21.49763199 123.78782261 -24.74609375 123.8515625 C-25.83277344 123.81289062 -26.91945313 123.77421875 -28.0390625 123.734375 C-28.87050781 123.73179687 -29.70195312 123.72921875 -30.55859375 123.7265625 C-27.73490684 118.42470311 -24.84154629 113.18042585 -21.78125 108.01171875 C-21.29245361 107.18260986 -20.80365723 106.35350098 -20.30004883 105.49926758 C-19.32076442 103.84286787 -18.33511246 102.19021298 -17.3425293 100.54174805 C-13.10750938 93.36217599 -10.10099475 86.20952606 -11.55859375 77.7265625 C-14.87410918 68.17081842 -20.18264903 61.34062456 -28.984375 56.3515625 C-38.07247134 52.37982996 -50.14299787 52.05584988 -59.62109375 54.9140625 C-61.65158908 55.72943002 -61.65158908 55.72943002 -63.55859375 56.7265625 C-64.24050781 57.066875 -64.92242187 57.4071875 -65.625 57.7578125 C-72.715063 61.74008697 -78.7145853 67.7884331 -81.1875 75.66796875 C-83.86831054 90.53941248 -71.6384557 105.87005935 -63.71557617 117.40893555 C-62.01274664 119.85971463 -60.29161363 122.2970571 -58.55859375 124.7265625 C-59.1726709 124.94650879 -59.78674805 125.16645508 -60.41943359 125.39306641 C-63.32717258 127.2056743 -63.69103151 128.84129132 -64.78515625 132.0625 C-65.17251953 133.17665283 -65.55988281 134.29080566 -65.95898438 135.4387207 C-66.56516602 137.25182739 -66.56516602 137.25182739 -67.18359375 139.1015625 C-67.83633815 140.99420129 -68.4891073 142.886832 -69.14337158 144.77894592 C-69.82532809 146.75633841 -70.50114708 148.73576359 -71.17675781 150.71533203 C-72.53535176 154.67916303 -73.94180856 158.62474763 -75.36328125 162.56640625 C-75.59060944 163.19734192 -75.81793762 163.82827759 -76.05215454 164.47833252 C-76.72050656 166.33207547 -77.38954421 168.18557118 -78.05859375 170.0390625 C-81.59532661 179.79129715 -81.59532661 179.79129715 -84.55859375 189.7265625 C-84.88859375 189.7265625 -85.21859375 189.7265625 -85.55859375 189.7265625 C-85.71416748 188.66671143 -85.86974121 187.60686035 -86.0300293 186.51489258 C-89.93324512 159.96359555 -89.93324512 159.96359555 -94.24609375 133.4765625 C-94.43582764 132.35096924 -94.62556152 131.22537598 -94.82104492 130.06567383 C-95.91943024 123.7507936 -97.2941048 117.56766393 -98.8918457 111.36083984 C-99.66370553 108.31127284 -100.29613063 105.26777062 -100.80859375 102.1640625 C-100.97875 101.19339844 -101.14890625 100.22273438 -101.32421875 99.22265625 C-101.96636012 89.64404752 -99.81106291 80.45429656 -97.60229492 71.18920898 C-97.11498277 69.13834428 -96.64380442 67.08419582 -96.17382812 65.02929688 C-95.86682931 63.71852857 -95.55892095 62.40797288 -95.25 61.09765625 C-94.83536499 59.3331311 -94.83536499 59.3331311 -94.41235352 57.53295898 C-93.55859375 54.7265625 -93.55859375 54.7265625 -91.55859375 52.7265625 C-89.61212158 52.19580078 -89.61212158 52.19580078 -87.20410156 51.796875 C-86.30266418 51.64331543 -85.40122681 51.48975586 -84.47247314 51.33154297 C-83.49542419 51.17314941 -82.51837524 51.01475586 -81.51171875 50.8515625 C-80.50776062 50.68156738 -79.50380249 50.51157227 -78.46942139 50.33642578 C-75.25036868 49.79220216 -72.02967988 49.25860833 -68.80859375 48.7265625 C-65.60199898 48.19341319 -62.3958596 47.65789561 -59.19061279 47.11669922 C-57.19473936 46.78003145 -55.19805617 46.44812033 -53.20050049 46.12158203 C-43.68671504 44.82993139 -43.68671504 44.82993139 -36.30859375 39.2890625 C-33.4805251 35.84157174 -30.57467104 32.51225882 -27.55859375 29.2265625 C-24.76593215 26.16175247 -21.97841362 23.09533952 -19.24609375 19.9765625 C-18.43591797 19.05617187 -18.43591797 19.05617187 -17.609375 18.1171875 C-15.8489671 16.06505486 -14.12880233 13.98857586 -12.4140625 11.8984375 C-11.25393443 10.50778899 -10.09377789 9.11716423 -8.93359375 7.7265625 C-8.38276123 7.04239258 -7.83192871 6.35822266 -7.2644043 5.65332031 C-3.29915975 0.93686063 -3.29915975 0.93686063 0 0 Z " fill="#FD5B4B" transform="translate(230.55859375,130.2734375)"/>
<path d="M0 0 C3.01797395 1.35301164 5.11147957 2.86229055 7.44387436 5.1977787 C8.11020032 5.86012256 8.77652627 6.52246642 9.46304393 7.20488131 C10.54865072 8.29922663 10.54865072 8.29922663 11.65618896 9.41567993 C12.43139806 10.18918018 13.20660716 10.96268042 14.00530744 11.75962007 C16.60955577 14.36056621 19.20657735 16.96861108 21.80371094 19.57666016 C23.66591823 21.43943141 25.52851753 23.30180274 27.39161682 25.16368103 C31.40600493 29.17702025 35.41671384 33.19400618 39.42494965 37.21348953 C45.22019482 43.0249862 51.0209523 48.83095484 56.82307163 54.6355875 C66.23638743 64.05328095 75.64522789 73.47543242 85.05126953 82.90039062 C94.18857498 92.05605305 103.32797786 101.20961333 112.47021484 110.36035156 C113.03370611 110.92436828 113.59719738 111.488385 114.17776415 112.06949313 C117.00463666 114.89897571 119.83155052 117.72841699 122.65848494 120.55783772 C146.11207012 144.0321576 169.55839831 167.51371323 193 191 C192.06717183 192.10379358 191.13207464 193.20566979 190.19606018 194.3067627 C189.41533819 195.22748943 189.41533819 195.22748943 188.61884403 196.16681671 C186.08918366 199.03141085 183.31769957 201.61197844 180.52734375 204.21875 C166.5363616 217.52902254 154.78348687 229.62339691 146.3671875 247.22167969 C143.9649369 252.10339609 141.21042328 256.78476445 138.5 261.5 C137.41639913 263.41317434 136.33436463 265.3272367 135.25390625 267.2421875 C134.71781738 268.19061523 134.18172852 269.13904297 133.62939453 270.11621094 C131.99034408 273.01708957 130.35245575 275.91862162 128.71484375 278.8203125 C123.52174954 288.01933129 118.31470033 297.20958353 113.0625 306.375 C108.66109004 314.05722225 104.31787719 321.7705396 100 329.5 C95.20108014 338.09057804 90.35899848 346.65427219 85.46655273 355.19189453 C81.81042228 361.57423056 78.17962692 367.97048137 74.5625 374.375 C73.75329102 375.80779297 73.75329102 375.80779297 72.92773438 377.26953125 C71.28477343 380.17947161 69.64229246 383.08968232 68 386 C61.56258754 397.40778255 55.12016237 408.81246703 48.625 420.1875 C48.16150146 420.99977051 47.69800293 421.81204102 47.22045898 422.64892578 C46.30597222 424.24825827 45.37266097 425.83696934 44.42114258 427.41455078 C42.8973933 430.050949 42.8973933 430.050949 41.7409668 433.25341797 C40.1639799 436.88110269 38.88351728 439.27341454 36 442 C30.12986094 443.95609418 23.63262598 443.12275274 17.5625 442.75 C15.86021369 442.68975354 14.15772319 442.6350098 12.45507812 442.5859375 C8.29831914 442.45417948 4.15140741 442.24754207 0 442 C1.26073874 438.72243948 2.65329102 435.62855917 4.328125 432.54296875 C4.79065674 431.69065674 5.25318848 430.83834473 5.72973633 429.96020508 C6.48226685 428.58771606 6.48226685 428.58771606 7.25 427.1875 C7.77940186 426.21901123 8.30880371 425.25052246 8.85424805 424.25268555 C13.28812177 416.19174395 17.90915037 408.24871779 22.57299805 400.31933594 C28.32692854 390.50847946 33.832687 380.56619661 39.3359375 370.61328125 C47.25287644 356.29900539 55.36336032 342.09318623 63.48999023 327.8972168 C67.63995666 320.64341991 71.75090077 313.36798027 75.85668945 306.08911133 C80.27082801 298.27163073 84.72617495 290.47809017 89.1875 282.6875 C93.5871218 275.00416611 97.96861101 267.3125457 102.25 259.5625 C105.83277062 253.07989378 109.46010427 246.62407378 113.125 240.1875 C113.59196289 239.36386963 114.05892578 238.54023926 114.54003906 237.69165039 C115.49713684 236.01539906 116.46573136 234.34567193 117.44433594 232.68188477 C118.51163364 230.84191847 119.53922457 228.97851482 120.53222656 227.09741211 C126.675731 216.08613656 135.53355925 207.90918315 144.5 199.1875 C146.10272734 197.60990648 147.70429947 196.03113845 149.3046875 194.45117188 C153.18992065 190.62048209 157.08912393 186.80449739 161 183 C159.70475033 180.15067949 158.34161197 178.0922206 156.13018608 175.88409042 C155.54099353 175.29091577 154.95180097 174.69774112 154.3447541 174.08659148 C153.69690047 173.44456353 153.04904684 172.80253559 152.38156128 172.14105225 C151.69381563 171.45159775 151.00606999 170.76214325 150.29748356 170.0517962 C147.98674357 167.73775626 145.66891713 165.43094714 143.35107422 163.12402344 C141.69519836 161.46871158 140.0397625 159.81295949 138.38473511 158.15679932 C133.88533282 153.65682209 129.37978102 149.16304746 124.8731246 144.67033672 C120.6430181 140.45144979 116.41750848 136.22796594 112.19197954 132.00449541 C103.82248618 123.63937902 95.44853647 115.27873848 87.07177734 106.92089844 C78.93466878 98.80214862 70.79966397 90.68130034 62.66748047 82.55761719 C62.16619066 82.05685282 61.66490085 81.55608846 61.14842044 81.04014942 C58.63360335 78.52794241 56.11882757 76.01569405 53.60407233 73.50342512 C32.74245019 52.66253554 11.87351671 31.82897636 -9 11 C-8.58862793 10.52296631 -8.17725586 10.04593262 -7.75341797 9.55444336 C-6.94348389 8.61290405 -6.94348389 8.61290405 -6.1171875 7.65234375 C-5.58206543 7.03093506 -5.04694336 6.40952637 -4.49560547 5.76928711 C-2.91642045 3.90112618 -1.42932148 1.98516872 0 0 Z " fill="#0F0E0E" transform="translate(263,70)"/>
<path d="M0 0 C6.94615351 5.67853202 11.95025349 12.63385986 13.8203125 21.53125 C14.48288168 33.10550536 6.95084719 43.61037616 1.0703125 52.96484375 C-0.39708538 55.32313858 -1.8589079 57.68486291 -3.3203125 60.046875 C-3.68129028 60.62784943 -4.04226807 61.20882385 -4.41418457 61.80740356 C-7.70302691 67.12579959 -10.79104184 72.54761406 -13.84667969 78.00268555 C-15.6789844 81.15113561 -17.62889835 84.14382134 -19.6796875 87.15234375 C-21.6596875 86.16234375 -21.6596875 86.16234375 -23.6796875 85.15234375 C-24.17855469 86.05210937 -24.67742187 86.951875 -25.19140625 87.87890625 C-31.27442388 98.79766244 -37.60791346 109.55977012 -43.99023438 120.30566406 C-46.72703709 124.91709754 -49.45292657 129.53496805 -52.1796875 134.15234375 C-53.24603877 135.95706373 -54.3124453 137.76175107 -55.37890625 139.56640625 C-56.18013916 140.92233887 -56.18013916 140.92233887 -56.99755859 142.30566406 C-64.33862305 154.72900391 -64.33862305 154.72900391 -71.6796875 167.15234375 C-74.42562058 164.40641067 -74.74937024 161.36717152 -75.5625 157.69140625 C-75.82529503 156.54408272 -75.82529503 156.54408272 -76.09339905 155.37358093 C-76.67100208 152.8430729 -77.23796068 150.31030789 -77.8046875 147.77734375 C-78.20559665 146.00923633 -78.60705203 144.24125268 -79.0090332 142.47338867 C-80.04238752 137.9185519 -81.06613357 133.36161899 -82.08612061 128.80377197 C-82.65121986 126.27950702 -83.21809992 123.75564972 -83.78564453 121.23193359 C-87.51315854 104.64694948 -91.17007286 88.04758332 -94.69018555 71.41723633 C-94.909729 70.38236084 -95.12927246 69.34748535 -95.35546875 68.28125 C-95.56727783 67.27940674 -95.77908691 66.27756348 -95.99731445 65.24536133 C-96.4795645 63.0594487 -96.99144828 60.87997401 -97.52416992 58.70581055 C-97.80236572 57.56926025 -98.08056152 56.43270996 -98.3671875 55.26171875 C-98.625 54.24174805 -98.8828125 53.22177734 -99.1484375 52.17089844 C-99.98682251 47.40720716 -99.46820271 42.89293517 -98.6796875 38.15234375 C-95.93093068 37.48015868 -93.18088024 36.8144194 -90.4296875 36.15234375 C-89.65238281 35.9615625 -88.87507813 35.77078125 -88.07421875 35.57421875 C-87.32011719 35.39375 -86.56601563 35.21328125 -85.7890625 35.02734375 C-84.75217285 34.77597656 -84.75217285 34.77597656 -83.69433594 34.51953125 C-81.6796875 34.15234375 -81.6796875 34.15234375 -77.6796875 34.15234375 C-76.35399872 38.31879422 -75.43401115 42.3865418 -74.75 46.70703125 C-73.94082005 51.66879946 -73.01904298 56.5942689 -72.03051758 61.52294922 C-68.7584226 77.88475369 -66.20688463 94.34691767 -63.66439819 110.83432007 C-62.71895743 116.94871706 -61.71869884 123.05311494 -60.6796875 129.15234375 C-60.4852002 128.48799316 -60.29071289 127.82364258 -60.09033203 127.13916016 C-56.91445371 116.5500364 -53.28507147 106.12227396 -49.65185547 95.68310547 C-48.54564038 92.50132171 -47.44652498 89.31713979 -46.34765625 86.1328125 C-45.64365771 84.1053199 -44.93924582 82.07797076 -44.234375 80.05078125 C-43.90726532 79.10085297 -43.58015564 78.15092468 -43.24313354 77.17221069 C-42.93586334 76.29344269 -42.62859314 75.41467468 -42.31201172 74.50927734 C-41.91041336 73.3523085 -41.91041336 73.3523085 -41.5007019 72.17196655 C-40.6796875 70.15234375 -40.6796875 70.15234375 -38.6796875 67.15234375 C-37.6896875 66.82234375 -36.6996875 66.49234375 -35.6796875 66.15234375 C-36.06713135 65.58427002 -36.4545752 65.01619629 -36.85375977 64.4309082 C-59.96532566 30.44209873 -59.96532566 30.44209873 -58.27734375 17.63671875 C-56.57168322 10.54652206 -51.29753801 4.60116179 -45.6796875 0.15234375 C-32.07948547 -8.08439832 -13.41630318 -9.25059971 0 0 Z " fill="#F9AD43" transform="translate(206.6796875,188.84765625)"/>
<path d="M0 0 C1.32568878 4.16645047 2.24567635 8.23419805 2.9296875 12.5546875 C3.73886745 17.51645571 4.66064452 22.44192515 5.64916992 27.37060547 C8.9212649 43.73240994 11.47280287 60.19457392 14.01528931 76.68197632 C14.96073007 82.79637331 15.96098866 88.90077119 17 95 C17.1944873 94.33564941 17.38897461 93.67129883 17.58935547 92.98681641 C20.76523379 82.39769265 24.39461603 71.96993021 28.02783203 61.53076172 C29.13404712 58.34897796 30.23316252 55.16479604 31.33203125 51.98046875 C32.03602979 49.95297615 32.74044168 47.92562701 33.4453125 45.8984375 C33.77242218 44.94850922 34.09953186 43.99858093 34.43655396 43.01986694 C34.74382416 42.14109894 35.05109436 41.26233093 35.36767578 40.35693359 C35.76927414 39.19996475 35.76927414 39.19996475 36.1789856 38.0196228 C37 36 37 36 39 33 C41.70901841 33.06368398 43.4425176 33.43857919 45.38232422 35.39208984 C46.82690567 37.27320074 48.14067387 39.20179381 49.4375 41.1875 C49.90865234 41.84814453 50.37980469 42.50878906 50.86523438 43.18945312 C51.51782227 44.16881836 51.51782227 44.16881836 52.18359375 45.16796875 C52.58118896 45.75860107 52.97878418 46.3492334 53.38842773 46.95776367 C54.59047659 50.97179109 52.31975244 54.39230748 50.46630859 57.91479492 C49.86641113 58.92646729 49.26651367 59.93813965 48.6484375 60.98046875 C48.15203262 61.82300201 48.15203262 61.82300201 47.64559937 62.68255615 C46.56077328 64.52077649 45.46796517 66.35410939 44.375 68.1875 C43.60919561 69.48155355 42.84390403 70.77591069 42.07910156 72.07055664 C40.10898352 75.40260508 38.13229943 78.73070684 36.15393066 82.05786133 C34.35646855 85.08310435 32.56497206 88.11186928 30.7734375 91.140625 C28.12791313 95.61110956 25.47950216 100.07985921 22.828125 104.546875 C19.04438226 110.92253937 15.2706256 117.3040711 11.5 123.6875 C10.66227051 125.10567017 10.66227051 125.10567017 9.80761719 126.55249023 C8.53826661 128.70157467 7.26904557 130.85073545 6 133 C3.25406692 130.25406692 2.93031726 127.21482777 2.1171875 123.5390625 C1.85439247 122.39173897 1.85439247 122.39173897 1.58628845 121.22123718 C1.00868542 118.69072915 0.44172682 116.15796414 -0.125 113.625 C-0.52590915 111.85689258 -0.92736453 110.08890893 -1.3293457 108.32104492 C-2.36270002 103.76620815 -3.38644607 99.20927524 -4.40643311 94.65142822 C-4.97153236 92.12716327 -5.53841242 89.60330597 -6.10595703 87.07958984 C-9.83347104 70.49460573 -13.49038536 53.89523957 -17.01049805 37.26489258 C-17.2300415 36.23001709 -17.44958496 35.1951416 -17.67578125 34.12890625 C-17.88759033 33.12706299 -18.09939941 32.12521973 -18.31762695 31.09301758 C-18.799877 28.90710495 -19.31176078 26.72763026 -19.84448242 24.5534668 C-20.12267822 23.4169165 -20.40087402 22.28036621 -20.6875 21.109375 C-20.9453125 20.0894043 -21.203125 19.06943359 -21.46875 18.01855469 C-22.30713501 13.25486341 -21.78851521 8.74059142 -21 4 C-18.25124318 3.32781493 -15.50119274 2.66207565 -12.75 2 C-11.97269531 1.80921875 -11.19539063 1.6184375 -10.39453125 1.421875 C-9.64042969 1.24140625 -8.88632813 1.0609375 -8.109375 0.875 C-7.41811523 0.70742187 -6.72685547 0.53984375 -6.01464844 0.3671875 C-4 0 -4 0 0 0 Z " fill="#1C8D8E" transform="translate(129,223)"/>
<path d="M0 0 C4.455 0.99 4.455 0.99 9 2 C7.69960552 11.10170755 5.57174921 19.83222166 3.125 28.6875 C0.05515068 39.85982663 0.05515068 39.85982663 -2.67700195 51.11791992 C-3.9992737 56.964119 -5.45917625 62.63204238 -7.3046875 68.33984375 C-9.8820573 76.43944171 -12.12654233 84.61136424 -14.30935669 92.82476807 C-15.38364559 96.86565596 -16.46924562 100.90350239 -17.5546875 104.94140625 C-17.76595779 105.72799622 -17.97722809 106.51458618 -18.19490051 107.32501221 C-19.93058146 113.77370544 -21.7202394 120.20588232 -23.5625 126.625 C-23.80154053 127.45797607 -24.04058105 128.29095215 -24.28686523 129.14916992 C-25.14472104 132.11758778 -26.02278754 135.06836262 -27 138 C-52.41 138 -77.82 138 -104 138 C-106 123 -106 123 -106 116 C-81.25 116 -56.5 116 -31 116 C-30.34 112.37 -29.68 108.74 -29 105 C-28.00497163 101.37218036 -26.97312443 97.7827927 -25.875 94.1875 C-23.24109394 85.34569055 -20.73834181 76.48045636 -18.375 67.5625 C-17.90187378 65.77767212 -17.90187378 65.77767212 -17.41918945 63.95678711 C-16.50158796 60.48920001 -15.5871052 57.02079426 -14.6729126 53.55230713 C-12.43825357 45.07641266 -10.19819709 36.60194781 -7.95562744 28.12814331 C-7.06992004 24.77806538 -6.18698734 21.42726421 -5.30419922 18.07641602 C-4.75630258 16.00403789 -4.20829339 13.93168952 -3.66015625 11.859375 C-3.40634689 10.89307663 -3.15253754 9.92677826 -2.89103699 8.93119812 C-2.65637222 8.04608047 -2.42170746 7.16096283 -2.17993164 6.24902344 C-1.97533829 5.47347107 -1.77074493 4.6979187 -1.55995178 3.89886475 C-1 2 -1 2 0 0 Z " fill="#111111" transform="translate(304,264)"/>
<path d="M0 0 C0.66 0 1.32 0 2 0 C2.51064956 2.16418148 3.0079886 4.33150531 3.5 6.5 C3.7784375 7.7065625 4.056875 8.913125 4.34375 10.15625 C5.60494347 17.54324034 5.3241559 22.309234 2.11328125 29.10546875 C1.81439499 29.75139481 1.51550873 30.39732086 1.20756531 31.06282043 C0.25668604 33.11135608 -0.71419253 35.14953905 -1.6875 37.1875 C-2.94792781 39.8654655 -4.19901972 42.54771663 -5.44921875 45.23046875 C-5.90976151 46.20740189 -5.90976151 46.20740189 -6.37960815 47.20407104 C-8.86435802 52.53310157 -10.88940683 57.94374983 -12.77270508 63.5168457 C-14 66 -14 66 -15.77587891 67.32641602 C-18.53920054 68.16329904 -20.98956518 68.32726877 -23.87890625 68.4140625 C-25.69648438 68.47219116 -25.69648438 68.47219116 -27.55078125 68.53149414 C-28.88800699 68.56325119 -30.22524724 68.59440205 -31.5625 68.625 C-32.95052375 68.66322423 -34.33854452 68.70155696 -35.7265625 68.73999023 C-54.81175894 69.22655101 -73.91056058 69.08807592 -93 69 C-93.50534727 66.27172635 -94.00443845 63.54255306 -94.5 60.8125 C-94.64308594 60.04357422 -94.78617187 59.27464844 -94.93359375 58.48242188 C-95.63238715 54.60578227 -96.19039017 50.958529 -96 47 C-70.33192693 45.88631485 -44.68785129 45.89073291 -19 46 C-18.70883301 44.77853271 -18.41766602 43.55706543 -18.11767578 42.29858398 C-17.32957817 39.15203227 -16.40759164 36.20560427 -15.1171875 33.22265625 C-14.75810303 32.38694092 -14.39901855 31.55122559 -14.02905273 30.69018555 C-13.64821533 29.82304932 -13.26737793 28.95591309 -12.875 28.0625 C-12.28537476 26.70282104 -12.28537476 26.70282104 -11.68383789 25.31567383 C-7.9638005 16.79453071 -4.02993153 8.37830451 0 0 Z " fill="#100F0F" transform="translate(186,330)"/>
<path d="M0 0 C0.99 0.33 1.98 0.66 3 1 C2.2595295 7.08020146 0.2829911 12.74928992 -1.5625 18.5625 C-7.89796204 38.85917801 -13.37259208 59.37972154 -18.62973022 79.97756958 C-20.95409987 89.08249768 -23.41706654 98.1309437 -26.04980469 107.15112305 C-27.95501998 113.71716833 -29.58483052 120.30897938 -31 127 C-33.55980755 125.72009622 -33.79503429 124.68805672 -34.98413086 122.11035156 C-35.38297989 121.25842224 -35.78182892 120.40649292 -36.19276428 119.52874756 C-36.63317551 118.57566711 -37.07358673 117.62258667 -37.52734375 116.640625 C-42.36488953 106.35261637 -47.36003757 96.15360958 -52.44140625 85.984375 C-52.8104948 85.24542496 -53.17958336 84.50647491 -53.55985641 83.74513245 C-55.45353654 79.95483015 -57.34916985 76.16551073 -59.24633789 72.37695312 C-61.20252953 68.47036627 -63.15501392 64.56193923 -65.10652256 60.65301132 C-66.62435061 57.61375151 -68.14407249 54.57544185 -69.66438103 51.53742218 C-70.38621597 50.09441698 -71.10746206 48.65111706 -71.82809639 47.2075119 C-72.82560576 45.20995909 -73.82566149 43.21370198 -74.82641602 41.21777344 C-75.39280289 40.08579529 -75.95918976 38.95381714 -76.54273987 37.78753662 C-77.98760335 34.90365356 -77.98760335 34.90365356 -80 32 C-79.34 32 -78.68 32 -78 32 C-77.67 31.01 -77.34 30.02 -77 29 C-73.20494808 32.30949931 -71.15893295 36.14430588 -68.98168945 40.59838867 C-68.60232239 41.35814499 -68.22295532 42.11790131 -67.83209229 42.90068054 C-66.58497071 45.402783 -65.34918695 47.91031 -64.11328125 50.41796875 C-63.24776158 52.15901218 -62.38147355 53.89967384 -61.51445007 55.63996887 C-59.23757952 60.21461981 -56.97001422 64.79381835 -54.70471191 69.37420654 C-51.07064105 76.71770624 -47.42153356 84.05375131 -43.77422142 91.39068031 C-42.49931983 93.95823786 -41.22777965 96.52743742 -39.9568634 99.0969696 C-39.1813224 100.66126346 -38.40574557 102.22553955 -37.63012695 103.78979492 C-37.27532761 104.50927307 -36.92052826 105.22875122 -36.55497742 105.97003174 C-35.09697832 109.1995506 -35.09697832 109.1995506 -33 112 C-32.82657074 111.35541336 -32.65314148 110.71082672 -32.47445679 110.04670715 C-30.65154518 103.2721076 -28.82749906 96.49781422 -27.00280762 89.72369385 C-26.35743245 87.32724262 -25.71231111 84.93072302 -25.06750488 82.53411865 C-11.26900158 31.25107516 -11.26900158 31.25107516 -5.6875 13.1875 C-5.33316895 12.03403076 -4.97883789 10.88056152 -4.61376953 9.69213867 C-2.26176938 2.26176938 -2.26176938 2.26176938 0 0 Z " fill="#F0F7F7" transform="translate(265,244)"/>
<path d="M0 0 C3.43177746 2.0085448 6.2103492 4.4206984 8 8 C8.51093875 12.05831354 8.91678528 16.19576657 7.0234375 19.921875 C3.61088867 24.15092324 0.91326526 25.78741497 -4.375 26.375 C-9.3746817 25.85779155 -12.28407055 23.87896312 -15.64453125 20.19921875 C-18.14234334 16.14657262 -17.6268069 11.59204183 -17 7 C-12.92852 0.12060276 -7.57931324 -1.35303928 0 0 Z " fill="#FE5C4A" transform="translate(189,199)"/>
<path d="M0 0 C2.97 1.65 5.94 3.3 9 5 C7 9 7 9 5.1875 9.9375 C2.11602165 10.02525652 0.47361622 8.71778904 -2 7 C-1.125 1.125 -1.125 1.125 0 0 Z " fill="#1C1818" transform="translate(141,139)"/>
</svg>
