<svg width="135" height="205" viewBox="0 0 135 205" fill="none" xmlns="http://www.w3.org/2000/svg">
<path d="M42.8699 112.19L9.50995 80.69L7.69995 73.2L28.58 26.38L40.6199 33.21L70.08 3.22998L134.61 67.53L122.51 79.69L51.82 204.27L10.39 185.23L49.8899 115.62L40.36 125.09L42.86 112.19H42.8699ZM47.9 84.39L60.4399 97.04L74.55 72.18L62.0099 59.53L47.9 84.39Z" fill="#0D0E0F"/>
<path d="M29.93 111.49L6.93 76.52L3.32 58.63L18.19 23.15L30.23 29.98L59.69 0L124.23 64.3L112.13 76.46L41.43 201.05L0 182L38.43 111.66L39.5 112.39L29.93 111.49Z" fill="#F05C4E"/>
<path d="M69.48 110.81C69.06 111.55 68.11 111.81 67.37 111.39C66.63 110.97 66.37 110.02 66.79 109.28L65.68 109.7L43.27 95.52C43.01 95.43 38.75 100.08 38.56 99.85L13.27 69.16C12.83 68.68 24.18 55 24.52 54.41L27.44 42.03C27.67 41.64 28.06 41.35 28.54 41.27L44.81 38.62L57.73 24.18C58.32 23.56 59.3 23.55 59.91 24.14L96.43 59.36C96.94 59.83 97.09 60.62 96.73 61.26" fill="white"/>
<path d="M60.4001 96.07C60.4001 96.07 55.7701 72.98 53.5801 72.46C52.7601 72.21 39.0201 72.89 39.0001 72.93C35.9601 80.94 31.1901 95.34 31.1901 95.34C31.1901 95.34 27.5401 70.11 25.8701 61.79C17.8501 63.76 5.06007 65.88 5.07007 65.92C7.08007 74.26 12.4301 113.71 12.4301 113.71L38.6201 113.01C38.6201 113.01 40.5201 107.34 45.4001 97.47C47.7601 108.31 48.4401 114.39 48.4401 114.39L74.2101 114.46C74.2101 114.46 85.8701 72.43 86.2901 69.01C84.3501 68.43 66.6701 63.08 64.7201 62.52C64.7501 62.81 60.3901 96.06 60.3901 96.06L60.4001 96.07Z" fill="#0D0E0F"/>
<path d="M59.0501 88.7C59.0501 88.7 54.4201 65.62 52.2301 65.09C51.4101 64.85 37.6701 65.52 37.6501 65.56C34.6101 73.57 29.8401 87.97 29.8401 87.97C29.8401 87.97 26.1801 62.74 24.5201 54.42C16.5001 56.39 3.31007 58.58 3.32007 58.63C5.33007 66.97 11.0901 106.34 11.0901 106.34L37.2801 105.64C37.2801 105.64 39.1801 99.97 44.0601 90.1C46.4201 100.94 47.1001 107.02 47.1001 107.02L72.8701 107.09C72.8701 107.09 84.5301 65.06 84.9501 61.64C83.0101 61.06 65.3301 55.71 63.3801 55.15C63.4101 55.44 59.0501 88.69 59.0501 88.69V88.7Z" fill="#198F90"/>
<path d="M71.0701 61.82C70.7101 61.63 70.2601 61.76 70.0701 62.12C68.5701 64.9 61.2601 92.51 59.2501 100.14L43.9801 69.61L26.2701 99.59C24.5601 91.74 18.0901 62.07 17.3901 60.24C17.2501 59.86 16.8201 59.67 16.4401 59.82C16.0601 59.96 15.8701 60.38 16.0101 60.76C16.6301 62.38 22.8801 90.89 25.2301 101.73L25.6301 103.57L43.8801 72.69L59.6901 104.3L60.1901 102.4C63.4901 89.76 70.0801 65.22 71.3801 62.81C71.5701 62.45 71.4401 62.01 71.0801 61.82H71.0701Z" fill="white"/>
<path d="M111.21 64.12C110.79 64.24 110.26 64.79 109.95 65.39C108.01 68.61 72.9599 117.45 49.7299 149.82C36.6799 168 26.3699 182.36 24.4799 185.08C24.0299 185.73 23.8899 186.4 24.1599 186.59H24.1699C24.4599 186.78 25.0699 186.39 25.5299 185.73C27.3899 183.05 37.6899 168.71 50.7199 150.55C98.4799 84 110.99 66.42 111.54 65.09C111.82 64.42 111.66 63.99 111.2 64.13L111.21 64.12Z" fill="white"/>
<path d="M111.53 64.23C111.58 63.91 111.38 63.57 111.07 63.42C109.47 62.36 87.13 41.72 72.33 28.05C64.01 20.37 57.45 14.3 56.18 13.2C55.88 12.94 55.46 12.93 55.24 13.17H55.23C55.01 13.44 55.08 13.87 55.38 14.14C56.62 15.23 63.18 21.29 71.49 28.96C101.93 57.08 110 64.42 110.75 64.66C111.12 64.78 111.47 64.59 111.53 64.24V64.23Z" fill="white"/>
<path d="M55.2701 12.95C55.0201 12.82 54.8401 12.85 54.8201 13.01C54.5301 13.76 46.3101 22.51 40.8701 28.32C37.8101 31.58 35.4001 34.15 34.9801 34.67C34.8801 34.79 35.0001 35.07 35.2501 35.3H35.2601C35.5101 35.54 35.8001 35.62 35.9001 35.5C36.3101 34.99 38.7201 32.42 41.7801 29.17C52.9801 17.24 55.8601 14.04 55.8101 13.61C55.7801 13.4 55.5401 13.1 55.2701 12.96V12.95Z" fill="white"/>
<path d="M35.8699 34.38C35.8299 34.11 35.7399 33.99 35.6699 34.09C35.2499 34.39 28.5399 34.3 24.0899 34.25C21.5899 34.22 19.6199 34.19 19.2499 34.24C19.1599 34.25 19.0999 34.53 19.0999 34.86V34.88C19.0999 35.22 19.1799 35.49 19.2699 35.48C19.6299 35.44 21.6099 35.46 24.0999 35.49C33.2499 35.6 35.6599 35.55 35.8099 35.22C35.8899 35.06 35.9099 34.68 35.8699 34.38Z" fill="white"/>
<path d="M19.22 34.75C18.94 34.78 18.81 34.89 18.9 35.02C19.12 35.7 17.77 46.02 16.88 52.86C16.38 56.7 15.98 59.74 15.96 60.31C15.96 60.45 16.21 60.59 16.55 60.62H16.57C16.91 60.66 17.19 60.57 17.2 60.43C17.23 59.86 17.62 56.83 18.12 53C19.95 38.93 20.35 35.22 20.05 34.94C19.9 34.8 19.53 34.71 19.23 34.74L19.22 34.75Z" fill="white"/>
<path fill-rule="evenodd" clip-rule="evenodd" d="M47.3799 49.65C47.5199 50.04 47.5699 50.46 47.5499 50.88C47.5299 53.28 45.5799 55.22 43.1799 55.22C40.7799 55.22 38.8099 53.26 38.8099 50.85C38.8099 48.44 40.7699 46.48 43.1799 46.48C45.1799 46.48 46.8599 47.82 47.3799 49.65ZM43.7499 72.68C44.4399 71.79 53.3799 56.85 53.9899 55.67C58.1399 47.72 50.4099 39.78 41.1799 41.14C38.5499 41.53 35.9899 42.65 34.2999 44.21C32.5799 45.79 30.9299 48.09 31.2399 51.14C31.3999 52.69 31.7699 53.69 32.3599 54.99C34.0399 58.73 40.8399 68.18 43.7499 72.69V72.68Z" fill="#FAAE43"/>
</svg>
