<svg width="96" height="40" viewBox="0 0 96 40" fill="none" xmlns="http://www.w3.org/2000/svg">
<g clip-path="url(#clip0_11953_2310)">
<path d="M8.84099 21.9766L2.336 15.8122L1.98438 14.3445L6.06709 5.18603L8.41123 6.51675L14.1544 0.645912L26.7542 13.2291L24.3905 15.6165L10.5796 40.0001L2.49227 36.2819L10.2084 22.6616L8.35263 24.5206L8.84099 21.9766ZM9.83726 16.5363L12.2791 19.0021L15.0334 14.1293L12.5916 11.6439L9.83726 16.5363Z" fill="#0D0D0D"/>
<path d="M6.32129 21.8396L1.82835 14.9902L1.12511 11.4873L4.03575 4.54016L6.3799 5.87088L12.1426 4.57764e-05L24.7424 12.5832L22.3787 14.9707L8.56777 39.3542L0.480469 35.636L7.98173 21.8787L8.19661 22.0157L6.32129 21.8396Z" fill="#F05C4E"/>
<path d="M14.0566 21.7026C13.9785 21.8396 13.7831 21.8983 13.6464 21.82C13.5096 21.7417 13.451 21.5461 13.5292 21.4091L13.3143 21.4873L8.93856 18.7085C8.87996 18.6889 8.05951 19.6087 8.02044 19.55L3.0782 13.5421C3.00006 13.4443 5.20747 10.7633 5.26607 10.6459L5.83257 8.23882C5.87164 8.16054 5.94978 8.10184 6.04745 8.08227L9.23158 7.55389L11.7515 4.73589C11.8687 4.61847 12.0641 4.61847 12.1813 4.73589L19.3114 11.6439C19.4091 11.7418 19.4481 11.8983 19.37 12.0157" fill="white"/>
<path d="M12.2792 18.8259C12.2792 18.8259 11.3806 14.3054 10.9508 14.2076C10.7945 14.1684 8.09877 14.2858 8.09877 14.3054C7.51274 15.871 6.57508 18.689 6.57508 18.689C6.57508 18.689 5.87183 13.7575 5.53975 12.1332C3.97698 12.5246 1.47656 12.9355 1.47656 12.9355C1.86725 14.5598 2.92212 22.2897 2.92212 22.2897L8.04017 22.1528C8.04017 22.1528 8.41132 21.0373 9.36852 19.1195C9.83735 21.233 9.95455 22.4267 9.95455 22.4267L14.9945 22.4463C14.9945 22.4463 17.28 14.2271 17.3581 13.5422C16.987 13.4248 13.5294 12.3876 13.1387 12.2702C13.1191 12.3093 12.2792 18.8259 12.2792 18.8259Z" fill="#0D0D0D"/>
<path d="M12.0057 17.3778C12.0057 17.3778 11.1071 12.8573 10.6774 12.7594C10.5211 12.7203 7.82535 12.8377 7.82535 12.8573C7.23931 14.4228 6.30165 17.2408 6.30165 17.2408C6.30165 17.2408 5.57888 12.3093 5.26632 10.6851C3.70356 11.0764 1.125 11.507 1.125 11.507C1.51569 13.1312 2.64869 20.8416 2.64869 20.8416L7.76674 20.7046C7.76674 20.7046 8.1379 19.5892 9.09509 17.6714C9.56392 19.7849 9.68113 20.9786 9.68113 20.9786L14.721 20.9982C14.721 20.9982 17.0066 12.779 17.0847 12.0941C16.7136 11.9766 13.2559 10.9395 12.8653 10.822C12.8653 10.8612 12.0057 17.3778 12.0057 17.3778Z" fill="#198F90"/>
<path d="M14.3501 12.1136C14.272 12.0745 14.1939 12.094 14.1548 12.1723C13.8618 12.7203 12.4358 18.1214 12.0451 19.6087L9.05628 13.64L5.59867 19.5109C5.26658 17.9845 3.99684 12.1723 3.86009 11.8201C3.84056 11.7418 3.74289 11.7027 3.68428 11.7418C3.60615 11.7614 3.56708 11.8592 3.60615 11.9179C3.72335 12.231 4.95403 17.8083 5.40332 19.9414L5.48146 20.2936L9.03675 14.2467L12.1232 20.4306L12.2209 20.0588C12.8655 17.5931 14.1548 12.779 14.4087 12.3093C14.4478 12.231 14.4283 12.1528 14.3501 12.1136Z" fill="white"/>
<path d="M22.2029 12.5637C22.1248 12.5833 22.0271 12.7007 21.949 12.8181C21.5778 13.4444 14.7212 23.0138 10.1892 29.3348C7.63019 32.8964 5.61813 35.6948 5.26651 36.2428C5.18837 36.3602 5.1493 36.4972 5.2079 36.5363C5.26651 36.5755 5.38371 36.4972 5.48139 36.3602C5.85254 35.8318 7.8646 33.0334 10.4041 29.4717C19.7416 16.4385 22.1834 13.0138 22.2811 12.7399C22.3202 12.6224 22.2811 12.5442 22.2029 12.5637Z" fill="white"/>
<path d="M22.2614 12.5833C22.2614 12.5246 22.2419 12.4463 22.1638 12.4267C21.8512 12.2115 17.495 8.18017 14.6039 5.49916C12.9825 3.99231 11.6932 2.79857 11.4588 2.58331C11.4002 2.5246 11.3221 2.5246 11.283 2.58331C11.2439 2.64202 11.2635 2.72029 11.3026 2.779C11.537 2.99427 12.8262 4.16843 14.4476 5.67528C20.3861 11.1743 21.9684 12.6224 22.1247 12.6616C22.1833 12.7007 22.2419 12.6616 22.2614 12.5833Z" fill="white"/>
<path d="M11.2834 2.54415C11.2443 2.52458 11.2052 2.52458 11.2052 2.56372C11.1466 2.72028 9.54481 4.42282 8.48994 5.55785C7.88437 6.20364 7.41554 6.69288 7.3374 6.79072C7.31787 6.81029 7.3374 6.869 7.39601 6.90814C7.43508 6.94728 7.49368 6.96685 7.51322 6.94728C7.59135 6.84943 8.06018 6.34063 8.66575 5.7144C10.8536 3.38564 11.4201 2.75941 11.4006 2.66157C11.3811 2.642 11.3224 2.58329 11.2834 2.54415Z" fill="white"/>
<path d="M7.47418 6.75156C7.47418 6.69286 7.45465 6.67329 7.43511 6.69285C7.35697 6.75156 6.04816 6.73199 5.16911 6.73199C4.68074 6.73199 4.29005 6.71242 4.23145 6.73199C4.21192 6.73199 4.21191 6.7907 4.21191 6.84941C4.21191 6.90812 4.23145 6.96683 4.25098 6.96683C4.32912 6.96683 4.70028 6.96683 5.18864 6.96683C6.96628 6.9864 7.45465 6.9864 7.47418 6.90812C7.49371 6.88855 7.49371 6.81027 7.47418 6.75156Z" fill="white"/>
<path d="M4.23057 6.82985C4.17197 6.82985 4.15243 6.84942 4.17197 6.88856C4.21104 7.02555 3.95709 9.0412 3.78128 10.3719C3.68361 11.1156 3.60547 11.7222 3.60547 11.8396C3.60547 11.8592 3.64454 11.8983 3.72267 11.8983C3.78128 11.8983 3.83988 11.8983 3.83988 11.8592C3.83988 11.7418 3.91802 11.1547 4.01569 10.4111C4.36731 7.65177 4.44545 6.9277 4.38685 6.86899C4.36732 6.82985 4.28918 6.81028 4.23057 6.82985Z" fill="white"/>
<path fill-rule="evenodd" clip-rule="evenodd" d="M9.73973 9.74575C9.75926 9.82403 9.77879 9.9023 9.77879 9.98058C9.77879 10.4502 9.3881 10.8221 8.91928 10.8221C8.45045 10.8221 8.05975 10.4307 8.05975 9.96101C8.05975 9.49135 8.45045 9.09996 8.91928 9.09996C9.30997 9.11953 9.62252 9.37393 9.73973 9.74575ZM9.01695 14.2467C9.15369 14.0706 10.8923 11.1548 11.0095 10.9199C11.8104 9.35436 10.3062 7.80837 8.50905 8.08234C8.00115 8.16062 7.49325 8.37589 7.16117 8.689C6.82908 9.00211 6.49699 9.45221 6.5556 10.0393C6.59466 10.3328 6.65327 10.5285 6.77048 10.7829C7.1221 11.507 8.45045 13.3661 9.01695 14.2467Z" fill="#FAAE43"/>
<path d="M40.3806 13.4451C40.3806 13.4451 39.4327 9.16344 39.0335 9.06348C38.8838 9.0135 36.3227 9.19676 36.3227 9.19676C35.7906 10.6962 34.9424 13.3952 34.9424 13.3952C34.9424 13.3952 34.1774 8.71361 33.8281 7.1642C32.348 7.56405 29.9033 8.01388 29.9033 8.03054C30.3025 9.57995 31.5165 16.8938 31.5165 16.8938L36.3893 16.6773C36.3893 16.6773 36.7219 15.611 37.5867 13.7617C38.0689 15.7776 38.2186 16.9105 38.2186 16.9105L43.0082 16.8272C43.0082 16.8272 45.0372 8.94686 45.1037 8.31376C44.7378 8.2138 41.4283 7.28082 41.0625 7.18086C41.0791 7.23084 40.3806 13.4451 40.3806 13.4451Z" fill="#0D0D0D"/>
<path d="M40.114 12.079C40.114 12.079 39.1661 7.7973 38.7669 7.69734C38.6172 7.66402 36.0561 7.83063 36.0561 7.83063C35.524 9.33006 34.6758 12.029 34.6758 12.029C34.6758 12.029 33.9108 7.34748 33.5615 5.79807C32.0814 6.19791 29.6367 6.64774 29.6367 6.64774C30.0359 8.19715 31.2499 15.511 31.2499 15.511L36.1227 15.2945C36.1227 15.2945 36.4553 14.2282 37.3201 12.3789C37.8023 14.3948 37.952 15.5277 37.952 15.5277L42.7416 15.4444C42.7416 15.4444 44.7706 7.56406 44.8371 6.93097C44.4712 6.83101 41.1617 5.89803 40.7959 5.79807C40.7959 5.86471 40.114 12.079 40.114 12.079Z" fill="#1A8F90"/>
<path d="M42.2429 7.03095C42.1763 6.99763 42.0932 7.01429 42.0599 7.09759C41.7938 7.61406 40.5299 12.7954 40.1807 14.2282L37.2371 8.59702L34.044 14.2449C33.6947 12.7954 32.3809 7.28085 32.2479 6.94765C32.2146 6.88101 32.1481 6.84769 32.0649 6.88101C31.9984 6.91433 31.9651 6.98097 31.9818 7.06427C32.0982 7.36416 33.3621 12.6621 33.8444 14.6614L33.9276 14.9946L37.2204 9.18013L40.2805 15.0113L40.3636 14.6614C40.929 12.2956 42.0766 7.69736 42.3094 7.24753C42.3426 7.14757 42.3094 7.06427 42.2429 7.03095Z" fill="white"/>
<path fill-rule="evenodd" clip-rule="evenodd" d="M94.1641 16.4441L94.1475 16.4607L94.1641 16.4441Z" fill="#0D0D0D"/>
<path d="M91.4031 14.7114C91.4031 14.7114 90.1725 15.4445 89.5239 14.8613C88.2267 13.6951 89.9396 12.0791 91.4198 12.5289C91.4198 12.5289 91.4198 12.5456 91.4364 12.5456L91.453 12.5622C91.3532 13.0121 91.4031 14.7114 91.4031 14.7114ZM94.7459 12.6289C94.7293 11.8625 94.7958 11.1128 94.7958 10.3464C94.7791 8.78032 94.696 6.5645 91.0705 6.5645C87.445 6.5645 87.6945 9.08021 87.6945 9.08021C87.6945 9.08021 88.8088 9.53004 89.8066 9.66332C89.8731 8.94693 90.0727 8.76366 90.688 8.94693C91.7191 9.24681 91.6193 10.0798 91.6027 10.463C91.5195 10.3964 91.4031 10.3297 91.2701 10.2798C89.8066 9.7133 87.4284 10.3964 86.4472 11.4293C85.2997 12.6622 85.1168 14.6114 86.231 15.8943C87.5448 17.3937 90.8543 17.1272 91.9021 15.5278C92.3012 17.6103 94.7459 16.7273 95.2947 16.5107C95.328 16.4941 95.3945 15.1279 95.4111 14.9446C95.4111 14.9446 94.7791 14.9446 94.7459 12.6289Z" fill="#0D0D0D"/>
<path fill-rule="evenodd" clip-rule="evenodd" d="M93.8975 15.0779L93.8643 15.0946L93.8975 15.0779Z" fill="#FDBC42"/>
<path d="M91.1199 13.3453C91.1199 13.3453 89.8893 14.0783 89.2407 13.4952C87.9435 12.329 89.6564 10.7129 91.1366 11.1628C91.1366 11.1628 91.1366 11.1794 91.1532 11.1794L91.1698 11.1961C91.07 11.6459 91.1199 13.3453 91.1199 13.3453ZM94.4627 11.2627C94.446 10.4964 94.5126 9.74664 94.5126 8.98026C94.4959 7.41419 94.4128 5.19836 90.7873 5.19836C87.1618 5.19836 87.4113 7.69742 87.4113 7.69742C87.4113 7.69742 88.5256 8.14724 89.5234 8.28053C89.5899 7.56413 89.7895 7.38087 90.4048 7.56413C91.4359 7.86402 91.3361 8.69704 91.3195 9.08023C91.2363 9.01359 91.1199 8.94694 90.9869 8.89696C89.5234 8.33051 87.1452 9.01358 86.164 10.0465C85.0165 11.2794 84.8336 13.2286 85.9478 14.5115C87.2616 16.0109 90.5711 15.7444 91.6188 14.145C92.018 16.2275 94.4627 15.3445 95.0115 15.1279C95.0448 15.1113 95.1113 13.7451 95.1279 13.5619C95.1279 13.5785 94.4959 13.5619 94.4627 11.2627Z" fill="#F05B4E"/>
<path d="M93.8978 14.3949C93.5818 14.3949 93.349 14.2949 93.166 14.095C92.6172 13.4952 92.7503 12.129 92.8002 11.4626L92.8168 11.346C92.8501 11.0128 92.9166 10.6296 92.9831 10.2131C93.1162 9.46339 93.2492 8.69702 93.1993 8.08059C93.0663 6.56449 92.2347 5.68149 90.9375 5.73148C89.79 5.78146 88.6758 6.56449 88.6758 7.33087C88.6758 7.39751 88.7423 7.46415 88.8088 7.46415C88.892 7.46415 88.9419 7.39751 88.9419 7.33087C88.9419 6.71443 89.9397 6.04802 90.9375 6.0147C91.4697 5.99804 92.7503 6.14798 92.9166 8.1139C92.9665 8.69701 92.8334 9.44673 92.717 10.1798C92.6505 10.5963 92.5673 10.9961 92.5507 11.346L92.5341 11.4626C92.4676 12.2123 92.3345 13.6118 92.9665 14.2949C93.1993 14.5448 93.5153 14.6781 93.8978 14.6781C93.9809 14.6781 94.0308 14.6114 94.0308 14.5448C94.0308 14.4782 93.9643 14.3949 93.8978 14.3949Z" fill="white"/>
<path d="M88.4432 10.0298C89.7902 9.5467 91.603 9.97987 92.5509 10.9961C92.6008 11.0461 92.684 11.0628 92.7505 10.9961C92.8004 10.9462 92.817 10.8629 92.7505 10.8129C91.736 9.72996 89.7902 9.28013 88.3434 9.77994C87.2458 10.1631 86.5972 11.0295 86.514 12.229C86.4309 13.4286 86.8632 14.2782 87.728 14.6281C88.0274 14.7447 88.36 14.8114 88.7092 14.8114C89.1749 14.8114 89.6905 14.7114 90.2226 14.5115C91.1539 14.1616 92.0354 13.5452 92.7172 12.7788C92.7671 12.7288 92.7671 12.6289 92.7006 12.5955C92.6507 12.5456 92.5509 12.5622 92.501 12.6122C91.2038 14.1116 89.0918 14.9113 87.8278 14.3949C87.0628 14.0783 86.7136 13.3453 86.7801 12.2623C86.8466 11.1627 87.4453 10.3797 88.4432 10.0298Z" fill="white"/>
<path fill-rule="evenodd" clip-rule="evenodd" d="M46.5678 1.79966C46.468 3.39905 46.7673 15.0779 46.9336 16.594C46.9669 16.9772 49.7608 16.9939 49.7442 16.744C49.7109 16.0443 50.0602 4.38201 50.0602 1.38315C48.6798 1.54975 47.8982 1.34983 46.5678 1.79966Z" fill="#0D0D0D"/>
<path fill-rule="evenodd" clip-rule="evenodd" d="M46.2846 0.416829C46.1848 2.01622 46.4841 13.6951 46.6504 15.2112C46.6837 15.5944 49.4776 15.6111 49.461 15.3612C49.4277 14.6614 49.777 2.99918 49.777 0.000320435C48.3966 0.183584 47.6316 -0.0163399 46.2846 0.416829Z" fill="#F05B4E"/>
<path d="M48.0138 0.666785C47.9473 0.700106 47.9307 0.766747 47.9473 0.833389C48.0138 1.18326 47.9806 6.81445 47.9473 10.5464C47.9307 12.6456 47.9307 14.2949 47.9307 14.6115C47.9307 14.6781 47.9972 14.7448 48.0637 14.7448C48.1302 14.7448 48.1968 14.6781 48.1968 14.6115C48.1801 14.3116 48.1968 12.6456 48.2134 10.563C48.2633 2.88261 48.2466 0.866711 48.1801 0.733428C48.1635 0.650126 48.0803 0.633464 48.0138 0.666785Z" fill="white"/>
<path fill-rule="evenodd" clip-rule="evenodd" d="M62.7492 7.81398C62.1505 7.89728 60.9032 9.01352 60.8034 9.71326C60.5705 8.93022 59.2567 7.24753 57.2444 7.98058C56.5626 8.23049 55.5148 9.28009 55.4649 10.0798C55.4816 8.94688 55.4483 9.41337 55.5814 7.48077C55.4483 7.54742 52.355 9.03018 51.4902 9.38005C51.6233 10.5629 51.457 15.9276 51.8062 16.7439C52.7874 16.6606 53.4028 16.7439 54.7665 16.5773C54.7831 16.444 55.0658 10.9295 57.128 11.396C58.4418 11.6958 58.1757 16.8106 58.209 16.8939C59.1237 16.7606 60.055 16.5773 60.9697 16.4774C60.9697 16.444 60.9697 16.4274 60.9863 16.3941C61.0528 15.7276 61.1526 12.1956 61.1526 12.1956C61.1526 12.1956 61.2857 11.3793 62.3667 11.2627C63.6805 11.1294 63.3811 14.3615 63.3312 16.7606C64.7947 16.5607 65.6096 16.544 66.7738 16.3441C66.7904 16.1608 68.5865 6.98096 62.7492 7.81398Z" fill="#0D0D0D"/>
<path fill-rule="evenodd" clip-rule="evenodd" d="M62.4826 6.44786C61.8839 6.53116 60.6366 7.6474 60.5368 8.34714C60.304 7.5641 58.9902 5.88141 56.9779 6.61446C56.296 6.86437 55.2483 7.91397 55.1817 8.71367C55.1984 7.58077 55.1651 8.04725 55.2982 6.11465C55.1651 6.1813 52.0718 7.6474 51.207 8.01393C51.3401 9.19682 51.1738 14.5614 51.523 15.3778C52.5042 15.2945 53.1196 15.3778 54.4833 15.2112C54.4999 15.0779 54.7826 9.56334 56.8448 10.0298C58.1586 10.3297 57.8925 15.4444 57.9258 15.5277C58.8239 15.3945 59.7718 15.2112 60.6865 15.1112C60.6865 15.0779 60.6865 15.0613 60.7031 15.0279C60.7696 14.3615 60.8694 10.8295 60.8694 10.8295C60.8694 10.8295 61.0025 10.0132 62.0834 9.89655C63.3973 9.76327 63.0979 12.9954 63.048 15.3945C64.5115 15.1945 65.3264 15.1779 66.4906 14.978C66.5072 14.7947 68.3033 5.59818 62.4826 6.44786Z" fill="#FAAE43"/>
<path d="M53.1862 7.98061C53.103 7.98061 53.0531 8.04725 53.0531 8.11389C53.0531 9.39673 52.8369 14.6614 52.8369 14.7114C52.8369 14.7947 52.8868 14.8447 52.97 14.8613C53.0365 14.8613 53.103 14.8113 53.103 14.728C53.103 14.6781 53.3192 9.39673 53.3192 8.11389C53.3192 8.03059 53.2693 7.98061 53.1862 7.98061Z" fill="white"/>
<path d="M58.6575 8.88026C58.3083 8.53039 57.8759 8.36378 57.3604 8.36378C54.8658 8.36378 53.7182 11.4293 53.1861 12.8954C53.0697 13.2286 52.9699 13.4785 52.9033 13.5951C52.8701 13.6618 52.8867 13.7451 52.9532 13.7784C53.0198 13.8117 53.1029 13.7951 53.1362 13.7284C53.2193 13.5951 53.3191 13.3286 53.4522 12.9787C53.9843 11.5626 55.0653 8.63035 57.377 8.63035C57.826 8.63035 58.1753 8.7803 58.4746 9.08018C59.4724 10.0798 59.4225 12.4956 59.3893 13.8117C59.3893 14.1949 59.3727 14.4615 59.4059 14.6114C59.4225 14.6781 59.4724 14.728 59.539 14.728H59.5556C59.6221 14.7114 59.6886 14.6447 59.672 14.5781C59.6554 14.4615 59.6554 14.1782 59.672 13.8284C59.6886 12.4622 59.7385 9.97984 58.6575 8.88026Z" fill="white"/>
<path d="M62.5157 8.13055C61.152 8.23051 59.8216 9.44672 59.2894 11.0961C59.2728 11.1627 59.306 11.246 59.3725 11.2627C59.4391 11.2794 59.5222 11.246 59.5389 11.1794C60.0378 9.62998 61.2684 8.49708 62.5157 8.39712C63.2807 8.34714 63.8628 8.49708 64.2786 8.89693C65.1434 9.72995 65.0935 11.4293 65.0436 12.9454C65.027 13.4285 65.0103 13.895 65.027 14.2949C65.027 14.3615 65.0935 14.4282 65.16 14.4282C65.2265 14.4282 65.293 14.3615 65.293 14.2782C65.2764 13.895 65.293 13.4285 65.3097 12.9454C65.3596 11.3793 65.4261 9.61332 64.4615 8.697C64.0125 8.24717 63.3473 8.06391 62.5157 8.13055Z" fill="white"/>
<path fill-rule="evenodd" clip-rule="evenodd" d="M79.7452 7.81398C79.1465 7.89728 77.9159 9.01352 77.7995 9.71326C77.5666 8.93022 76.2528 7.24753 74.2405 7.98058C73.5587 8.23049 72.5109 9.28009 72.461 10.0798C72.4777 8.94688 72.4444 9.41337 72.5775 7.48077C72.4444 7.54742 69.3511 9.03018 68.4863 9.38005C68.6194 10.5629 68.4531 15.9276 68.8023 16.7439C69.7835 16.6606 70.3988 16.7439 71.7626 16.5773C71.7792 16.444 72.0619 10.9295 74.1241 11.396C75.4379 11.6958 75.1718 16.8106 75.2051 16.8939C76.1198 16.7606 77.0511 16.5773 77.9658 16.4774C77.9658 16.444 77.9658 16.4274 77.9824 16.3941C78.0489 15.7276 78.1487 12.1956 78.1487 12.1956C78.1487 12.1956 78.2818 11.3793 79.3627 11.2627C80.6766 11.1294 80.3606 14.3615 80.3273 16.7606C81.7908 16.5607 82.6057 16.544 83.7699 16.3441C83.7699 16.1608 85.566 6.98096 79.7452 7.81398Z" fill="#0D0D0D"/>
<path fill-rule="evenodd" clip-rule="evenodd" d="M79.4621 6.44785C78.8634 6.53115 77.6327 7.64739 77.5163 8.34712C77.2835 7.56409 75.9697 5.88139 73.9573 6.61445C73.2755 6.86435 72.2278 7.91396 72.1612 8.71365C72.1779 7.58075 72.1446 8.04724 72.2777 6.11464C72.1446 6.18128 69.0513 7.64739 68.1865 8.01392C68.3196 9.1968 68.1533 14.5614 68.5025 15.3778C69.4837 15.2945 70.099 15.3778 71.4628 15.2112C71.4794 15.0779 71.7621 9.56333 73.8243 10.0298C75.1381 10.3297 74.872 15.4444 74.9053 15.5277C75.82 15.3944 76.7513 15.2112 77.666 15.1112C77.666 15.0779 77.666 15.0612 77.6826 15.0279C77.7491 14.3615 77.8489 10.8295 77.8489 10.8295C77.8489 10.8295 77.982 10.0132 79.0629 9.89654C80.3768 9.76326 80.0608 12.9954 80.0275 15.3945C81.491 15.1945 82.3059 15.1779 83.4701 14.9779C83.5033 14.7947 85.2994 5.59817 79.4621 6.44785Z" fill="#009090"/>
<path d="M70.1822 7.98061C70.0991 7.98061 70.0492 8.04725 70.0492 8.11389C70.0492 9.39673 69.833 14.6614 69.833 14.7114C69.833 14.7947 69.8829 14.8447 69.9661 14.8613C70.0326 14.8613 70.0991 14.8113 70.0991 14.728C70.0991 14.6781 70.3153 9.39673 70.3153 8.11389C70.3153 8.03059 70.2654 7.98061 70.1822 7.98061Z" fill="white"/>
<path d="M75.6536 8.88026C75.3044 8.53039 74.872 8.36378 74.3564 8.36378C71.8619 8.36378 70.7143 11.4293 70.1822 12.8954C70.0657 13.2286 69.966 13.4785 69.8994 13.5951C69.8662 13.6618 69.8828 13.7451 69.9493 13.7784C70.0159 13.8117 70.099 13.7951 70.1323 13.7284C70.2154 13.5951 70.3152 13.3286 70.4483 12.9787C70.9804 11.5626 72.0614 8.63035 74.3731 8.63035C74.8221 8.63035 75.1713 8.7803 75.4707 9.08018C76.4685 10.0798 76.4186 12.4956 76.3854 13.8117C76.3854 14.1949 76.3688 14.4615 76.3854 14.6114C76.402 14.6781 76.4519 14.728 76.5184 14.728H76.5351C76.6182 14.7114 76.6681 14.6447 76.6515 14.5781C76.6348 14.4615 76.6348 14.1782 76.6515 13.8284C76.6847 12.4622 76.7346 9.97984 75.6536 8.88026Z" fill="white"/>
<path d="M79.5128 8.13055C78.1491 8.23051 76.8186 9.44672 76.2865 11.0961C76.2698 11.1627 76.3031 11.246 76.3696 11.2627C76.4361 11.2794 76.5193 11.246 76.5359 11.1794C77.0348 9.62998 78.2655 8.49708 79.5128 8.39712C80.2778 8.34714 80.8599 8.49708 81.259 8.89693C82.1238 9.72995 82.0739 11.4293 82.024 12.9454C82.0074 13.4285 81.9908 13.895 82.0074 14.2949C82.0074 14.3615 82.0739 14.4282 82.1404 14.4282C82.2236 14.4282 82.2735 14.3615 82.2735 14.2782C82.2569 13.895 82.2735 13.4285 82.2901 12.9454C82.34 11.3793 82.4065 9.61332 81.442 8.697C81.0096 8.24717 80.3443 8.06391 79.5128 8.13055Z" fill="white"/>
<path d="M56.7108 31.9861L58.008 32.3526V30.1868L56.7108 29.8202V31.9861ZM57.7419 34.935L53.3015 33.6355V28.8873H54.3492L55.1641 25.8218L61.7831 27.6377L61.4505 28.8873V39.6998L58.0246 39.9997V33.9687L57.7419 34.935ZM48.0629 35.7347L47.2812 32.5859L48.8279 32.1527V22.5897L52.2538 21.6567V34.5018L52.4034 35.1849L48.0629 35.7347ZM43.3231 32.4526L44.3709 32.1527V29.4037L43.3231 29.6703V32.4526ZM39.2819 36.2178L38.4005 32.6858L39.8972 32.2693V28.3541L39.5812 27.1213L45.7512 25.5385L46.4497 28.3042H47.7801V34.5185L48.1294 36.0179L43.7056 36.7843L43.4395 35.8846L39.2819 36.2178ZM31.9478 25.5719L31.5154 23.9058L34.8748 22.9895L35.3072 24.6222L31.9478 25.5719ZM35.0078 25.5719L34.5754 23.9058L37.9348 22.9895L38.3672 24.6222L35.0078 25.5719ZM35.4569 29.9369L35.224 29.1039L33.3947 31.7195V31.8528L35.4569 31.2864V29.9369ZM30.8668 36.3178L29.9688 32.8025V30.6366L32.5299 26.9047L35.1409 28.7373L34.5754 26.6048L38.5668 25.5219L39.4482 28.8373L38.8828 29.0039V32.336L39.5979 35.7013L35.7229 36.0679L35.5899 35.618L30.8668 36.3178Z" fill="#0D0D0D"/>
<path d="M42.9734 31.0698L44.0212 30.7699V28.0209L42.9734 28.2875V31.0698ZM38.9322 34.6018L38.0508 31.2864L39.5475 30.8699V26.938L39.2316 25.7052L45.4015 24.1224L46.1 26.888H47.4304V32.386L47.6799 34.8017L43.3559 35.3515L43.0899 34.3019L38.9322 34.6018Z" fill="#FAAE43"/>
<path d="M47.814 34.5185L46.9326 31.2031L48.4793 30.7699V21.2069L51.9052 20.2739V33.0357L52.1546 33.9687L47.814 34.5185Z" fill="#1A8F90"/>
<path d="M45.4021 33.1023L45.7181 28.1875L44.7036 27.3545C44.687 27.3378 44.6704 27.3212 44.6704 27.3045L44.2213 26.2216L41.2944 26.9047V32.7025L44.4043 32.1693C44.4375 32.1693 44.4874 32.1693 44.5041 32.2027L45.4021 33.1023ZM49.9589 21.7899C49.9589 21.7233 50.0088 21.6733 50.0753 21.6733C50.1418 21.6733 50.1917 21.7233 50.1917 21.7899L50.4246 32.2027C50.4246 32.2526 50.3913 32.3026 50.3248 32.3193L45.5352 33.2689C45.4853 33.2856 45.4354 33.2523 45.4021 33.2023L45.3855 33.2356C45.3356 33.2856 45.2691 33.2856 45.2192 33.2356L44.3876 32.4026L41.1779 32.9524C41.1114 32.9524 41.0615 32.9024 41.0615 32.8358V26.8047C41.0615 26.7547 41.0948 26.7047 41.1447 26.6881L44.2546 25.955C44.3045 25.9384 44.371 25.9717 44.3876 26.0217L44.8699 27.1712L45.901 28.0209C45.9343 28.0376 45.9509 28.0876 45.9509 28.1209L45.6349 33.0024L50.1917 32.1027L49.9589 21.7899Z" fill="white"/>
<path d="M31.5991 24.1891L31.1667 22.523L34.5261 21.6067L34.9585 23.2394L31.5991 24.1891ZM34.6592 24.1891L34.2268 22.523L37.5861 21.6067L38.0185 23.2394L34.6592 24.1891ZM35.1082 28.5374L34.8754 27.7044L33.046 30.3201V30.4533L35.1082 29.8869V28.5374ZM30.5348 34.7017L29.6367 31.403V29.2371L32.1978 25.5052L34.8088 27.3379L34.2434 25.2053L38.2347 24.1224L39.1162 27.4378L38.5507 27.6044V30.9365L39.1661 34.7184L35.4408 34.885L35.1913 34.2519L30.5348 34.7017Z" fill="#F05B4E"/>
<path d="M56.3614 30.5866L57.6586 30.9532V28.7873L56.3614 28.4208V30.5866ZM57.3925 33.5355L52.9521 32.236V27.4878H53.9999L54.8148 24.4223L61.4338 26.2383L61.1011 27.4878V38.3004L57.6752 38.6003V32.5692L57.3925 33.5355Z" fill="#F05B4E"/>
<path d="M32.8627 27.1213C32.8959 27.0713 32.9625 27.0546 33.029 27.088C33.0789 27.1213 33.0955 27.1879 33.0623 27.2546L31.2163 30.2867L31.6985 32.6192L36.5547 31.8195L36.5879 27.9043L36.2387 25.8384C36.2221 25.7718 36.272 25.7218 36.3385 25.7051C36.405 25.6885 36.4549 25.7385 36.4715 25.8051C36.8873 28.3208 36.8041 29.2038 36.7875 31.9028C36.7875 31.9528 36.7542 32.0028 36.6877 32.0194L31.6154 32.8524C31.5489 32.8691 31.499 32.8191 31.4823 32.7691L30.9668 30.2701C30.9668 30.2368 30.9668 30.2034 30.9834 30.1868L32.8627 27.1213Z" fill="white"/>
<path d="M59.2226 31.5363V27.5211L55.7302 26.6215L55.4309 27.971C55.4309 28.0043 55.4142 28.021 55.3976 28.0376L54.433 28.804V30.8699L57.1272 31.9028L59.2226 31.5363ZM59.4555 37.2341C59.4555 37.3008 59.4056 37.3508 59.3391 37.3508C59.2725 37.3508 59.2226 37.3008 59.2226 37.2341V31.7695L57.1438 32.1361C57.1272 32.1361 57.1105 32.1361 57.0773 32.1361L54.2833 31.0698C54.2335 31.0531 54.2002 31.0032 54.2002 30.9532V28.754C54.2002 28.7207 54.2168 28.6874 54.2501 28.6707L55.2147 27.8877L55.5306 26.4549C55.5473 26.3882 55.6138 26.3549 55.6803 26.3716L59.3889 27.3212C59.4388 27.3379 59.4721 27.3879 59.4721 27.4378L59.4555 37.2341Z" fill="white"/>
<path d="M36.6382 32.0194C36.5716 32.0028 36.5384 31.9361 36.5716 31.8695C36.5883 31.8028 36.6548 31.7695 36.7213 31.7862L38.2181 32.286L41.2282 32.7358C41.2947 32.7358 41.328 32.8025 41.328 32.8691C41.3114 32.9357 41.2615 32.9691 41.195 32.9691C39.1494 32.6692 38.4675 32.6192 36.6382 32.0194Z" fill="white"/>
<path d="M45.0244 17.8352L45.0715 17.8263V17.8352L45.048 17.8441L45.0244 17.8352Z" fill="#F45D50"/>
<path fill-rule="evenodd" clip-rule="evenodd" d="M47.9571 27.464L47.9336 27.4729L47.9571 27.464Z" fill="#0D0D0D"/>
<path fill-rule="evenodd" clip-rule="evenodd" d="M47.9571 26.7349L47.9336 26.7437L47.9571 26.7349Z" fill="#FDBC42"/>
</g>
<defs>
<clipPath id="clip0_11953_2310">
<rect width="95.892" height="40" fill="white"/>
</clipPath>
</defs>
</svg>
