<?xml version="1.0" encoding="UTF-8"?>
<svg id="Layer_2" data-name="Layer 2" xmlns="http://www.w3.org/2000/svg" viewBox="0 0 68.79 47.59">
  <defs>
    <style>
      .cls-1 {
        fill: none;
        fill-rule: evenodd;
        stroke: #232323;
        stroke-miterlimit: 10;
        stroke-width: 2px;
      }
    </style>
  </defs>
  <g id="Layer_2-2" data-name="Layer 2">
    <path id="Vector" class="cls-1" d="M31.03,2.95c.12-.24.3-.47.47-.65l.06-.06.06-.06.06-.06.06-.06.06-.06c.3-.24.59-.41.89-.59h.12c.53-.3,1-.41,1.48-.41h.12c.47,0,.94.12,1.42.3h.12c.3.18.65.35.89.59l.06.06.06.06.06.06.12.12h.06l.06.06c.18.24.35.41.47.65l14.63,25.37c1.48-1.36,2.77-2.89,3.89-4.6,1-1.48,1.83-3.01,2.48-4.66h-6.49c-2.12,0-3.89-1.71-3.89-3.89s1.71-3.89,3.89-3.89h11.68c2.12,0,3.89,1.71,3.89,3.89,0,.41-.06.77-.18,1.12-.89,4.25-2.6,8.2-4.96,11.68-2.42,3.6-5.49,6.73-9.03,9.15-.12.12-.3.18-.41.3-1.83,1.06-4.19.41-5.25-1.42l-13.57-23.37-13.57,23.43c-1.06,1.83-3.42,2.48-5.25,1.42-.18-.06-.3-.18-.41-.3-3.54-2.48-6.67-5.55-9.03-9.15-2.36-3.48-4.01-7.43-4.96-11.68-.12-.41-.18-.77-.18-1.18,0-2.12,1.71-3.89,3.89-3.89h11.68c2.12,0,3.89,1.71,3.89,3.89s-1.71,3.89-3.89,3.89h-6.49c.65,1.65,1.48,3.25,2.48,4.66,1.12,1.65,2.42,3.25,3.89,4.6L31.03,2.95ZM31.74,28.73l.06-.06c.3-.24.59-.41.89-.59h.12c.47-.18.94-.3,1.42-.3h.12c.47,0,.94.12,1.42.3h.12c.29.18.65.35.89.59l.06.06.06.06.06.06.06.06.06.06.06.06c.18.24.35.41.47.65l6.43,11.09c1.06,1.83.41,4.19-1.42,5.25-1.83,1.06-4.19.41-5.25-1.42l-3.13-5.37-2.95,5.43c-1.06,1.83-3.42,2.48-5.25,1.42-1.83-1.06-2.48-3.42-1.42-5.25l6.43-11.09c.12-.24.3-.47.47-.65l.06-.06.06-.06.06-.06.06-.06v-.12Z"/>
  </g>
</svg>