<svg xmlns="http://www.w3.org/2000/svg" version="1.1" xmlns:xlink="http://www.w3.org/1999/xlink" width="24" height="24" x="0" y="0" viewBox="0 0 682.667 682.667" style="enable-background:new 0 0 512 512" xml:space="preserve"><g><defs><clipPath id="a" clipPathUnits="userSpaceOnUse"><path d="M0 512h512V0H0Z" fill="#000000" opacity="1" data-original="#000000"></path></clipPath></defs><g clip-path="url(#a)" transform="matrix(1.33333 0 0 -1.33333 0 682.667)"><path d="M0 0c5.52 0 10-4.48 10-10S5.52-20 0-20s-10 4.48-10 10S-5.52 0 0 0" style="fill-opacity:1;fill-rule:nonzero;stroke:none" transform="translate(316 352)" fill="#000000" data-original="#000000"></path><path d="M0 0c5.52 0 10-4.48 10-10S5.52-20 0-20s-10 4.48-10 10S-5.52 0 0 0" style="fill-opacity:1;fill-rule:nonzero;stroke:none" transform="translate(196 352)" fill="#000000" data-original="#000000"></path><path d="M0 0h43.45c1.22 0 2.41.11 3.56.32 10.54 1.88 18 11.98 16.17 22.97l-9.13 40.8c-1.62 9.72-.65 19.5 2.43 28.68 1.66 4.95 3.94 9.73 6.76 14.24 15.45 24.72 24.39 53.92 23.79 81.62-.74 34.18-24.89 62.43-56.61 72.28a83.096 83.096 0 0 1-19.8 3.6c-37.32 2.18-73.56 2.8-102.39-4.1-31.54-7.54-54.24-24.08-59.83-57.38-.88-5.25-1.34-10.92-1.34-17.03 0-27.08 8.97-55.4 24.1-79.43 2.73-4.34 4.93-8.95 6.54-13.72 3.09-9.18 4.01-18.98 2.39-28.69l-9.15-40.87C-130.89 12.3-123.43 2.2-112.89.32c1.15-.21 2.34-.32 3.56-.32h43.44" style="stroke-linecap: round; stroke-linejoin: round; stroke-miterlimit: 10; stroke-dasharray: none; stroke-opacity: 1;" transform="translate(288.94 196)" fill="none" stroke="#000000" stroke-width="20px" stroke-linecap="round" stroke-linejoin="round" stroke-miterlimit="10" stroke-dasharray="none" stroke-opacity="" data-original="#000000"></path><path d="M0 0h-33.85v-38.46c0-15.11 8.07-28.33 20.13-35.6A41.328 41.328 0 0 1 7.69-80c21.7 0 39.75 16.71 41.41 38.35L66.15 206" style="stroke-linecap: round; stroke-linejoin: round; stroke-miterlimit: 10; stroke-dasharray: none; stroke-opacity: 1;" transform="translate(229.85 90)" fill="none" stroke="#000000" stroke-width="20px" stroke-linecap="round" stroke-linejoin="round" stroke-miterlimit="10" stroke-dasharray="none" stroke-opacity="" data-original="#000000"></path><path d="M0 0c0-24.51-13.85-46.93-35.78-57.89L-40-60h20c33.14 0 60 26.86 60 60" style="stroke-linecap: round; stroke-linejoin: round; stroke-miterlimit: 10; stroke-dasharray: none; stroke-opacity: 1;" transform="translate(176 196)" fill="none" stroke="#000000" stroke-width="20px" stroke-linecap="round" stroke-linejoin="round" stroke-miterlimit="10" stroke-dasharray="none" stroke-opacity="" data-original="#000000"></path><path d="M0 0c0-33.14 26.86-60 60-60h20l-4.22 2.11C53.85-46.93 40-24.51 40 0" style="stroke-linecap: round; stroke-linejoin: round; stroke-miterlimit: 10; stroke-dasharray: none; stroke-opacity: 1;" transform="translate(296 196)" fill="none" stroke="#000000" stroke-width="20px" stroke-linecap="round" stroke-linejoin="round" stroke-miterlimit="10" stroke-dasharray="none" stroke-opacity="" data-original="#000000"></path><path d="m0 0 16.93-246.12c1.09-14.09-5.84-26.83-16.8-33.94" style="stroke-linecap: round; stroke-linejoin: round; stroke-miterlimit: 10; stroke-dasharray: none; stroke-opacity: 1;" transform="translate(216 296)" fill="none" stroke="#000000" stroke-width="20px" stroke-linecap="round" stroke-linejoin="round" stroke-miterlimit="10" stroke-dasharray="none" stroke-opacity="" data-original="#000000"></path><path d="M0 0c-13.62-17.74-44.13-47.14-70.23-47.14-26.96 0-28.92 29.65-28.92 43.19 0 .71 0 1.43.02 2.14.31 18.11-12.33 33.08-29.9 37.49-25.69 6.45-27.66 22.67-27.66 30.93 0 27.34 27.13 146.54 82.06 146.54 37.59 0 59.11-38.04 105.17-45.59" style="stroke-linecap: round; stroke-linejoin: round; stroke-miterlimit: 10; stroke-dasharray: none; stroke-opacity: 1;" transform="translate(166.63 288.85)" fill="none" stroke="#000000" stroke-width="20px" stroke-linecap="round" stroke-linejoin="round" stroke-miterlimit="10" stroke-dasharray="none" stroke-opacity="" data-original="#000000"></path><path d="M0 0h37.18" style="stroke-linecap: round; stroke-linejoin: round; stroke-miterlimit: 10; stroke-dasharray: none; stroke-opacity: 1;" transform="translate(218.82 256)" fill="none" stroke="#000000" stroke-width="20px" stroke-linecap="round" stroke-linejoin="round" stroke-miterlimit="10" stroke-dasharray="none" stroke-opacity="" data-original="#000000"></path><path d="M0 0h34.36" style="stroke-linecap: round; stroke-linejoin: round; stroke-miterlimit: 10; stroke-dasharray: none; stroke-opacity: 1;" transform="translate(256 216)" fill="none" stroke="#000000" stroke-width="20px" stroke-linecap="round" stroke-linejoin="round" stroke-miterlimit="10" stroke-dasharray="none" stroke-opacity="" data-original="#000000"></path><path d="M0 0c13.77 11.66 31.88 24.87 41.7 23.28 14.79-2.4 18.92-15.4 19.8-19.05" style="stroke-linecap: round; stroke-linejoin: round; stroke-miterlimit: 10; stroke-dasharray: none; stroke-opacity: 1;" transform="translate(374.3 398.72)" fill="none" stroke="#000000" stroke-width="20px" stroke-linecap="round" stroke-linejoin="round" stroke-miterlimit="10" stroke-dasharray="none" stroke-opacity="" data-original="#000000"></path><path d="M0 0c-13.72 11.58-31.6 24.55-41.34 22.97-14.789-2.402-18.923-15.401-19.799-19.048" style="stroke-linecap: round; stroke-linejoin: round; stroke-miterlimit: 10; stroke-dasharray: none; stroke-opacity: 1;" transform="translate(137.34 399.03)" fill="none" stroke="#000000" stroke-width="20px" stroke-linecap="round" stroke-linejoin="round" stroke-miterlimit="10" stroke-dasharray="none" stroke-opacity="" data-original="#000000"></path><path d="M0 0c0-5.523-4.477-10-10-10S-20-5.523-20 0s4.477 10 10 10S0 5.523 0 0" style="fill-opacity:1;fill-rule:nonzero;stroke:none" transform="translate(494 432)" fill="#000000" data-original="#000000"></path><path d="M0 0c42.75 8.97 62.58 45.09 100.64 45.09 17.549 0 32.26-12.166 44.156-29.616" style="stroke-linecap: round; stroke-linejoin: round; stroke-miterlimit: 10; stroke-dasharray: none; stroke-opacity: 1;" transform="translate(319.36 456.91)" fill="none" stroke="#000000" stroke-width="20px" stroke-linecap="round" stroke-linejoin="round" stroke-miterlimit="10" stroke-dasharray="none" stroke-opacity="" data-original="#000000"></path><path d="M0 0c3.263-14.61 4.889-26.812 4.889-33.506 0-8.57-2.14-24.63-27.78-30.98-17.5-4.33-30.12-19.22-29.78-37.24.01-.78.02-1.56.02-2.34 0-13.51-1.96-43.19-28.92-43.19-26.07 0-56.54 29.32-70.18 47.06" style="stroke-linecap: round; stroke-linejoin: round; stroke-miterlimit: 10; stroke-dasharray: none; stroke-opacity: 1;" transform="translate(497.17 388.966)" fill="none" stroke="#000000" stroke-width="20px" stroke-linecap="round" stroke-linejoin="round" stroke-miterlimit="10" stroke-dasharray="none" stroke-opacity="" data-original="#000000"></path></g></g></svg>