<svg xmlns="http://www.w3.org/2000/svg" version="1.1" xmlns:xlink="http://www.w3.org/1999/xlink" width="24" height="24" x="0" y="0" viewBox="0 0 682.667 682.667" style="enable-background:new 0 0 512 512" xml:space="preserve"><g><defs><clipPath id="a" clipPathUnits="userSpaceOnUse"><path d="M0 512h512V0H0Z" fill="#000000" opacity="1" data-original="#000000"></path></clipPath></defs><g clip-path="url(#a)" transform="matrix(1.33333 0 0 -1.33333 0 682.667)"><path d="M0 0c-131.15-131.15-312.464-162.473-312.464-162.473s31.323 181.314 162.473 312.464 312.464 162.473 312.464 162.473S131.15 131.15 0 0Z" style="stroke-linecap: butt; stroke-linejoin: miter; stroke-miterlimit: 10; stroke-dasharray: none; stroke-opacity: 1;" transform="translate(331.346 180.68)" fill="none" stroke="#000000" stroke-width="30px" stroke-linecap="butt" stroke-linejoin="miter" stroke-miterlimit="10" stroke-dasharray="none" stroke-opacity="" data-original="#000000"></path><path d="M0 0c-56.86-56.86-116.892-89.018-134.084-71.825-17.192 17.192 14.965 77.223 71.826 134.083 56.86 56.861 116.891 89.018 134.083 71.826C89.018 116.892 56.86 56.86 0 0Z" style="stroke-linecap: butt; stroke-linejoin: miter; stroke-miterlimit: 10; stroke-dasharray: none; stroke-opacity: 1;" transform="translate(287.48 224.546)" fill="none" stroke="#000000" stroke-width="30px" stroke-linecap="butt" stroke-linejoin="miter" stroke-miterlimit="10" stroke-dasharray="none" stroke-opacity="" data-original="#000000"></path><path d="M0 0c41.21 10.249 70.128-18.073 59.879-59.283" style="stroke-linecap: butt; stroke-linejoin: miter; stroke-miterlimit: 10; stroke-dasharray: none; stroke-opacity: 1;" transform="translate(256.35 315.283)" fill="none" stroke="#000000" stroke-width="30px" stroke-linecap="butt" stroke-linejoin="miter" stroke-miterlimit="10" stroke-dasharray="none" stroke-opacity="" data-original="#000000"></path><path d="m0 0 234.012-234.012M0 0c-19.33-19.33-50.67-19.33-70 0l-47.689 47.689 70 70L0 70C19.33 50.67 19.33 19.33 0 0Z" style="stroke-linecap: butt; stroke-linejoin: miter; stroke-miterlimit: 10; stroke-dasharray: none; stroke-opacity: 1;" transform="translate(139.19 372.982)" fill="none" stroke="#000000" stroke-width="30px" stroke-linecap="butt" stroke-linejoin="miter" stroke-miterlimit="10" stroke-dasharray="none" stroke-opacity="" data-original="#000000"></path><path d="M0 0c-19.33-19.33-19.33-50.67 0-70l47.689-47.689 70 70L70 0C50.67 19.33 19.33 19.33 0 0Z" style="stroke-linecap: butt; stroke-linejoin: miter; stroke-miterlimit: 10; stroke-dasharray: none; stroke-opacity: 1;" transform="translate(373.203 138.97)" fill="none" stroke="#000000" stroke-width="30px" stroke-linecap="butt" stroke-linejoin="miter" stroke-miterlimit="10" stroke-dasharray="none" stroke-opacity="" data-original="#000000"></path><path d="m0 0 79.122 79.122" style="stroke-linecap: butt; stroke-linejoin: miter; stroke-miterlimit: 10; stroke-dasharray: none; stroke-opacity: 1;" transform="translate(18.883 18.207)" fill="none" stroke="#000000" stroke-width="30px" stroke-linecap="butt" stroke-linejoin="miter" stroke-miterlimit="10" stroke-dasharray="none" stroke-opacity="" data-original="#000000"></path><path d="m0 0 79.122 79.122" style="stroke-linecap: butt; stroke-linejoin: miter; stroke-miterlimit: 10; stroke-dasharray: none; stroke-opacity: 1;" transform="translate(411.997 411.322)" fill="none" stroke="#000000" stroke-width="30px" stroke-linecap="butt" stroke-linejoin="miter" stroke-miterlimit="10" stroke-dasharray="none" stroke-opacity="" data-original="#000000"></path></g></g></svg>