<svg width="20" height="21" viewBox="0 0 20 21" fill="none" xmlns="http://www.w3.org/2000/svg">
<g clip-path="url(#clip0_11223_5733)">
<path d="M15.8333 2.41667H15V1.58333C15 1.36232 14.9122 1.15036 14.7559 0.994078C14.5996 0.837797 14.3877 0.75 14.1667 0.75C13.9457 0.75 13.7337 0.837797 13.5774 0.994078C13.4211 1.15036 13.3333 1.36232 13.3333 1.58333V2.41667H6.66667V1.58333C6.66667 1.36232 6.57887 1.15036 6.42259 0.994078C6.26631 0.837797 6.05435 0.75 5.83333 0.75C5.61232 0.75 5.40036 0.837797 5.24408 0.994078C5.0878 1.15036 5 1.36232 5 1.58333V2.41667H4.16667C3.062 2.41799 2.00296 2.8574 1.22185 3.63852C0.440735 4.41963 0.00132321 5.47867 0 6.58333L0 16.5833C0.00132321 17.688 0.440735 18.747 1.22185 19.5282C2.00296 20.3093 3.062 20.7487 4.16667 20.75H15.8333C16.938 20.7487 17.997 20.3093 18.7782 19.5282C19.5593 18.747 19.9987 17.688 20 16.5833V6.58333C19.9987 5.47867 19.5593 4.41963 18.7782 3.63852C17.997 2.8574 16.938 2.41799 15.8333 2.41667ZM1.66667 6.58333C1.66667 5.92029 1.93006 5.28441 2.3989 4.81557C2.86774 4.34673 3.50363 4.08333 4.16667 4.08333H15.8333C16.4964 4.08333 17.1323 4.34673 17.6011 4.81557C18.0699 5.28441 18.3333 5.92029 18.3333 6.58333V7.41667H1.66667V6.58333ZM15.8333 19.0833H4.16667C3.50363 19.0833 2.86774 18.8199 2.3989 18.3511C1.93006 17.8823 1.66667 17.2464 1.66667 16.5833V9.08333H18.3333V16.5833C18.3333 17.2464 18.0699 17.8823 17.6011 18.3511C17.1323 18.8199 16.4964 19.0833 15.8333 19.0833Z" fill="#FF5B4B"/>
<path d="M10 14.5C10.6904 14.5 11.25 13.9404 11.25 13.25C11.25 12.5596 10.6904 12 10 12C9.30964 12 8.75 12.5596 8.75 13.25C8.75 13.9404 9.30964 14.5 10 14.5Z" fill="#FF5B4B"/>
<path d="M5.8335 14.5C6.52385 14.5 7.0835 13.9404 7.0835 13.25C7.0835 12.5596 6.52385 12 5.8335 12C5.14314 12 4.5835 12.5596 4.5835 13.25C4.5835 13.9404 5.14314 14.5 5.8335 14.5Z" fill="#FF5B4B"/>
<path d="M14.1665 14.5C14.8569 14.5 15.4165 13.9404 15.4165 13.25C15.4165 12.5596 14.8569 12 14.1665 12C13.4761 12 12.9165 12.5596 12.9165 13.25C12.9165 13.9404 13.4761 14.5 14.1665 14.5Z" fill="#FF5B4B"/>
</g>
<defs>
<clipPath id="clip0_11223_5733">
<rect width="20" height="20" fill="white" transform="translate(0 0.75)"/>
</clipPath>
</defs>
</svg>
