<svg width="20" height="17" viewBox="0 0 20 17" fill="none" xmlns="http://www.w3.org/2000/svg">
<path d="M9.91721 8.60095C11.0885 7.87507 11.8889 6.52349 11.8889 4.96053C11.8889 2.63885 10.1443 0.75 7.99998 0.75C5.85565 0.75 4.11109 2.63885 4.11109 4.96053C4.11109 6.52349 4.91142 7.87507 6.08275 8.60095C3.1529 9.4338 1 12.1159 1 15.2948V16.3289C1 16.5614 1.17423 16.75 1.3889 16.75C1.60357 16.75 1.7778 16.5614 1.7778 16.3289V15.2948C1.77776 11.9189 4.56923 9.17107 7.99998 9.17107C11.4307 9.17107 14.2222 11.9189 14.2222 15.2948V16.3289C14.2222 16.5614 14.3964 16.75 14.6111 16.75C14.8258 16.75 15 16.5614 15 16.3289V15.2948C15 12.1159 12.8471 9.43297 9.91721 8.60095ZM4.88889 4.96053C4.88889 3.10286 6.28422 1.59213 7.99998 1.59213C9.71574 1.59213 11.1111 3.10286 11.1111 4.96053C11.1111 6.8182 9.71574 8.32894 7.99998 8.32894C6.28422 8.32894 4.88889 6.81824 4.88889 4.96053Z" fill="#FF5B4B"/>
<path fill-rule="evenodd" clip-rule="evenodd" d="M3.86109 4.96053C3.86109 2.51986 5.69925 0.5 7.99998 0.5C10.3007 0.5 12.1389 2.51986 12.1389 4.96053C12.1389 6.41669 11.4802 7.70372 10.4688 8.51623C13.2528 9.52282 15.25 12.1775 15.25 15.2948V16.3289C15.25 16.6803 14.9822 17 14.6111 17C14.24 17 13.9722 16.6804 13.9722 16.3289V15.2948C13.9722 12.0607 11.2964 9.42107 7.99998 9.42107C4.70354 9.42107 2.02777 12.0607 2.0278 15.2948V16.3289C2.0278 16.6804 1.75997 17 1.3889 17C1.01783 17 0.75 16.6804 0.75 16.3289V15.2948C0.75 12.1774 2.74727 9.52348 5.53131 8.51631C4.51978 7.70381 3.86109 6.41674 3.86109 4.96053ZM7.99998 1C6.01206 1 4.36109 2.75785 4.36109 4.96053C4.36109 6.43738 5.11703 7.70837 6.21444 8.38844L6.69562 8.68664L6.15111 8.84142C3.32456 9.64491 1.25 12.2319 1.25 15.2948V16.3289C1.25 16.4424 1.33064 16.5 1.3889 16.5C1.44716 16.5 1.5278 16.4424 1.5278 16.3289V15.2948C1.52776 11.7771 4.43491 8.92107 7.99998 8.92107C11.565 8.92107 14.4722 11.7771 14.4722 15.2948V16.3289C14.4722 16.4424 14.5528 16.5 14.6111 16.5C14.6694 16.5 14.75 16.4424 14.75 16.3289V15.2948C14.75 12.2319 12.6754 9.6441 9.84892 8.84144L9.30417 8.68674L9.78552 8.38844C10.8829 7.70837 11.6389 6.43738 11.6389 4.96053C11.6389 2.75785 9.9879 1 7.99998 1ZM7.99998 1.84213C6.44063 1.84213 5.13889 3.22186 5.13889 4.96053C5.13889 6.69924 6.44062 8.07893 7.99998 8.07893C9.55934 8.07893 10.8611 6.69921 10.8611 4.96053C10.8611 3.22186 9.55934 1.84213 7.99998 1.84213ZM4.63889 4.96053C4.63889 2.98387 6.12782 1.34213 7.99998 1.34213C9.87215 1.34213 11.3611 2.98387 11.3611 4.96053C11.3611 6.93719 9.87215 8.57893 7.99998 8.57893C6.12782 8.57893 4.63889 6.93724 4.63889 4.96053Z" fill="#FF5B4B"/>
<path d="M15.1584 8.59694C16.0256 7.92774 16.6 6.78345 16.6 5.48333C16.6 3.42441 15.1648 1.75 13.4 1.75C13.1792 1.75 13 1.95908 13 2.21668C13 2.47428 13.1792 2.68337 13.4 2.68337C14.7232 2.68337 15.8 3.93965 15.8 5.48337C15.8 7.0271 14.7232 8.28338 13.4 8.28338C13.1792 8.28338 13 8.49246 13 8.75007C13 9.00767 13.1792 9.21666 13.4 9.21666C16.0472 9.21666 18.2 11.5379 18.2 14.392V15.2833C18.2 15.5409 18.3792 15.75 18.6 15.75C18.8208 15.75 19 15.5409 19 15.2833V14.392C19 11.6947 17.3872 9.40334 15.1584 8.59694Z" fill="#FF5B4B"/>
<path fill-rule="evenodd" clip-rule="evenodd" d="M12.75 2.21668C12.75 1.85855 13.0064 1.5 13.4 1.5C15.3376 1.5 16.85 3.32388 16.85 5.48333C16.85 6.69257 16.3792 7.78338 15.629 8.51799C17.7601 9.47539 19.25 11.7534 19.25 14.392V15.2833C19.25 15.6414 18.9936 16 18.6 16C18.2063 16 17.95 15.6414 17.95 15.2833V14.392C17.95 11.6579 15.8917 9.46666 13.4 9.46666C13.0064 9.46666 12.75 9.10823 12.75 8.75007C12.75 8.39194 13.0064 8.03338 13.4 8.03338C14.5504 8.03338 15.55 6.92657 15.55 5.48337C15.55 4.04018 14.5504 2.93337 13.4 2.93337C13.0064 2.93337 12.75 2.57481 12.75 2.21668ZM13.4 2C13.3521 2 13.25 2.05961 13.25 2.21668C13.25 2.37376 13.3521 2.43337 13.4 2.43337C14.896 2.43337 16.05 3.83912 16.05 5.48337C16.05 7.12762 14.896 8.53338 13.4 8.53338C13.3521 8.53338 13.25 8.59299 13.25 8.75007C13.25 8.90711 13.352 8.96666 13.4 8.96666C16.2026 8.96666 18.45 11.4179 18.45 14.392V15.2833C18.45 15.4404 18.552 15.5 18.6 15.5C18.6479 15.5 18.75 15.4404 18.75 15.2833V14.392C18.75 11.7924 17.1962 9.6001 15.0733 8.83203L14.6452 8.67714L15.0057 8.39902C15.8073 7.78041 16.35 6.71146 16.35 5.48333C16.35 3.52493 14.992 2 13.4 2Z" fill="#FF5B4B"/>
</svg>
