<svg width="24" height="24" viewBox="0 0 24 24" fill="none" xmlns="http://www.w3.org/2000/svg">
<path d="M20.565 15.5385C20.9906 15.2085 21.3354 14.7859 21.5732 14.3027C21.811 13.8195 21.9356 13.2885 21.9375 12.75C21.9363 11.8055 21.5606 10.9001 20.8928 10.2322C20.2249 9.56441 19.3195 9.18869 18.375 9.1875C17.6685 9.1875 17.0115 9.4005 16.4565 9.7575C15.8827 8.97862 15.0977 8.3805 14.1945 8.034C14.6187 7.70409 14.9624 7.282 15.1994 6.79967C15.4364 6.31734 15.5606 5.78741 15.5625 5.25C15.5625 3.285 13.965 1.6875 12 1.6875C10.035 1.6875 8.4375 3.285 8.4375 5.25C8.4375 6.3825 8.9775 7.3815 9.8055 8.034C8.90227 8.3805 8.11728 8.97862 7.5435 9.7575C6.97228 9.3866 6.30606 9.18867 5.625 9.1875C4.68053 9.18869 3.77509 9.56441 3.10725 10.2322C2.43941 10.9001 2.06369 11.8055 2.0625 12.75C2.0625 13.884 2.6055 14.886 3.435 15.5385C2.4814 15.9043 1.66083 16.5501 1.08119 17.391C0.501558 18.232 0.190004 19.2287 0.1875 20.25V21.75C0.1875 21.8992 0.246763 22.0423 0.352252 22.1477C0.457742 22.2532 0.600816 22.3125 0.75 22.3125C0.899184 22.3125 1.04226 22.2532 1.14775 22.1477C1.25324 22.0423 1.3125 21.8992 1.3125 21.75V20.25C1.31369 19.2061 1.72892 18.2052 2.46708 17.4671C3.20525 16.7289 4.20608 16.3137 5.25 16.3125H6C7.04392 16.3137 8.04475 16.7289 8.78292 17.4671C9.52108 18.2052 9.93631 19.2061 9.9375 20.25V21.75C9.9375 21.8992 9.99676 22.0423 10.1023 22.1477C10.2077 22.2532 10.3508 22.3125 10.5 22.3125C10.6492 22.3125 10.7923 22.2532 10.8977 22.1477C11.0032 22.0423 11.0625 21.8992 11.0625 21.75V20.25C11.06 19.2287 10.7484 18.232 10.1688 17.391C9.58917 16.5501 8.7686 15.9043 7.815 15.5385C8.24058 15.2085 8.58536 14.7859 8.82318 14.3027C9.061 13.8195 9.18559 13.2885 9.1875 12.75C9.1875 11.913 8.886 11.1525 8.4 10.545C8.75587 10.0155 9.23567 9.58085 9.79771 9.27892C10.3597 8.97699 10.987 8.81688 11.625 8.8125H12.375C13.68 8.8125 14.8695 9.48 15.6 10.5435C15.0937 11.1678 14.8159 11.9462 14.8125 12.75C14.8125 13.884 15.3555 14.886 16.185 15.5385C15.2314 15.9043 14.4108 16.5501 13.8312 17.391C13.2516 18.232 12.94 19.2287 12.9375 20.25V21.75C12.9375 21.8992 12.9968 22.0423 13.1023 22.1477C13.2077 22.2532 13.3508 22.3125 13.5 22.3125C13.6492 22.3125 13.7923 22.2532 13.8977 22.1477C14.0032 22.0423 14.0625 21.8992 14.0625 21.75V20.25C14.0637 19.2061 14.4789 18.2052 15.2171 17.4671C15.9552 16.7289 16.9561 16.3137 18 16.3125H18.75C19.7939 16.3137 20.7948 16.7289 21.5329 17.4671C22.2711 18.2052 22.6863 19.2061 22.6875 20.25V21.75C22.6875 21.8992 22.7468 22.0423 22.8523 22.1477C22.9577 22.2532 23.1008 22.3125 23.25 22.3125C23.3992 22.3125 23.5423 22.2532 23.6477 22.1477C23.7532 22.0423 23.8125 21.8992 23.8125 21.75V20.25C23.81 19.2287 23.4984 18.232 22.9188 17.391C22.3392 16.5501 21.5186 15.9043 20.565 15.5385ZM5.625 15.1875C4.281 15.1875 3.1875 14.094 3.1875 12.75C3.1875 11.406 4.281 10.3125 5.625 10.3125C6.969 10.3125 8.0625 11.406 8.0625 12.75C8.0625 14.094 6.969 15.1875 5.625 15.1875ZM12 2.8125C13.344 2.8125 14.4375 3.906 14.4375 5.25C14.4375 6.594 13.344 7.6875 12 7.6875C10.656 7.6875 9.5625 6.594 9.5625 5.25C9.5625 3.906 10.656 2.8125 12 2.8125ZM18.375 10.3125C19.719 10.3125 20.8125 11.406 20.8125 12.75C20.8125 14.094 19.719 15.1875 18.375 15.1875C17.031 15.1875 15.9375 14.094 15.9375 12.75C15.9375 11.406 17.031 10.3125 18.375 10.3125Z" fill="black"/>
</svg>
