<svg width="80" height="80" viewBox="0 0 80 80" fill="none" xmlns="http://www.w3.org/2000/svg">
<path d="M6.66675 20.0001C6.66675 14.9834 9.26675 9.73341 13.3334 6.66675C13.3334 9.48341 15.6334 13.3334 20.0001 13.3334C22.6522 13.3334 25.1958 14.387 27.0711 16.2623C28.9465 18.1377 30.0001 20.6812 30.0001 23.3334C30.0001 24.6201 29.7367 25.8401 29.2934 26.9701C31.7657 28.9327 34.2006 30.9419 36.5967 32.9967L29.6634 39.9301C27.6092 37.5334 25.6 35.0985 23.6367 32.6267C22.4791 33.0868 21.2457 33.3264 20.0001 33.3334C12.6334 33.3334 6.66675 27.3667 6.66675 20.0001ZM47.1734 42.8267L51.6434 38.3567C53.7136 39.4219 56.0054 39.9849 58.3334 40.0001C62.3117 40.0001 66.127 38.4197 68.94 35.6067C71.7531 32.7936 73.3334 28.9783 73.3334 25.0001C73.3334 22.5834 72.7067 20.3301 71.6901 18.3101L60.0001 30.0001L53.3334 23.3334L65.0234 11.6434C62.9533 10.5782 60.6615 10.0153 58.3334 10.0001C54.3552 10.0001 50.5399 11.5804 47.7268 14.3935C44.9138 17.2065 43.3334 21.0218 43.3334 25.0001C43.3334 27.4167 43.9601 29.6701 44.9767 31.6901L10.0001 66.6667L16.6667 73.3334L39.4934 50.5067C45.7737 56.9455 52.4262 63.0104 59.4167 68.6701L64.1667 72.5001L69.1667 67.5001L65.3367 62.7501C59.6771 55.7595 53.6122 49.107 47.1734 42.8267Z" fill="#FF5B4B"/>
</svg>
