<svg xmlns="http://www.w3.org/2000/svg" version="1.1" xmlns:xlink="http://www.w3.org/1999/xlink" width="32" height="32" x="0" y="0" viewBox="0 0 512 512" style="enable-background:new 0 0 512 512" xml:space="preserve" class=""><g><path d="M496.71 0h-45.6c-8.446 0-15.29 6.844-15.29 15.29 0 8.444 6.844 15.288 15.29 15.288h30.312v30.313c0 8.445 6.848 15.289 15.289 15.289 8.445 0 15.289-6.844 15.289-15.29v-45.6C512 6.843 505.156 0 496.71 0zM496.71 275.64c-8.44 0-15.288 6.848-15.288 15.29v30.312h-30.313c-8.445 0-15.289 6.848-15.289 15.29 0 8.445 6.844 15.288 15.29 15.288h45.6c8.446 0 15.29-6.843 15.29-15.289V290.93c0-8.442-6.844-15.29-15.29-15.29zM175.469 76.18c8.441 0 15.289-6.844 15.289-15.29V30.579h30.312c8.442 0 15.29-6.844 15.29-15.289S229.511 0 221.07 0H175.47c-8.446 0-15.29 6.844-15.29 15.29v45.6c0 8.446 6.844 15.29 15.29 15.29zM459.414 256.012l-48.09-74.489 22.813-84.988c3.058-11.394-7.407-21.773-18.735-18.734l-84.984 22.812-74.5-48.09c-9.906-6.394-23.04.403-23.566 12.168l-3.883 87.864-69.36 55.824c-9.23 7.45-6.84 22.101 4.239 26.246l40.406 15.055L11.945 441.484c-15.898 15.899-15.957 41.684 0 57.641l.856.855c.011 0 .011 0 .011.012 15.887 15.887 41.731 15.887 57.641 0l191.805-191.804 15.054 40.39c4.157 11.121 18.82 13.477 26.235 4.254l55.836-69.375 87.863-3.883c11.762-.504 18.559-13.64 12.168-23.562zM48.824 478.363c-3.965 3.973-10.418 3.973-14.394 0l-.856-.855a10.17 10.17 0 0 1 0-14.403l201.684-201.683 11.11 4.137 4.148 11.12zM351.13 253.22a15.31 15.31 0 0 0-11.242 5.687l-43.301 53.817c-10.125-27.176-24.004-64.387-24.004-64.387a15.272 15.272 0 0 0-8.98-8.98s-35.403-13.208-64.387-24.004l53.82-43.309a15.307 15.307 0 0 0 5.688-11.234l3.004-68.137 57.812 37.316a15.28 15.28 0 0 0 12.254 1.914l65.937-17.691-17.695 65.934a15.278 15.278 0 0 0 1.914 12.253l37.317 57.813zm0 0" fill="#F05B4E" opacity="1" data-original="#000000"></path></g></svg>