<svg width="24" height="24" viewBox="0 0 24 24" fill="none" xmlns="http://www.w3.org/2000/svg">
<g clip-path="url(#clip0_918_27)">
<path fill-rule="evenodd" clip-rule="evenodd" d="M11.25 3C11.25 1.758 10.242 0.75 9 0.75H3C1.758 0.75 0.75 1.758 0.75 3V9C0.75 10.242 1.758 11.25 3 11.25H9C10.242 11.25 11.25 10.242 11.25 9V3ZM9.75 3V9C9.75 9.414 9.414 9.75 9 9.75H3C2.586 9.75 2.25 9.414 2.25 9V3C2.25 2.586 2.586 2.25 3 2.25H9C9.414 2.25 9.75 2.586 9.75 3ZM11.25 15C11.25 13.758 10.242 12.75 9 12.75H3C1.758 12.75 0.75 13.758 0.75 15V21C0.75 22.242 1.758 23.25 3 23.25H9C10.242 23.25 11.25 22.242 11.25 21V15ZM9.75 15V21C9.75 21.414 9.414 21.75 9 21.75H3C2.586 21.75 2.25 21.414 2.25 21V15C2.25 14.586 2.586 14.25 3 14.25H9C9.414 14.25 9.75 14.586 9.75 15ZM23.25 3C23.25 1.758 22.242 0.75 21 0.75H15C13.758 0.75 12.75 1.758 12.75 3V9C12.75 10.242 13.758 11.25 15 11.25H21C22.242 11.25 23.25 10.242 23.25 9V3ZM21.75 3V9C21.75 9.414 21.414 9.75 21 9.75H15C14.586 9.75 14.25 9.414 14.25 9V3C14.25 2.586 14.586 2.25 15 2.25H21C21.414 2.25 21.75 2.586 21.75 3ZM23.25 15C23.25 13.758 22.242 12.75 21 12.75H15C13.758 12.75 12.75 13.758 12.75 15V21C12.75 22.242 13.758 23.25 15 23.25H21C22.242 23.25 23.25 22.242 23.25 21V15ZM21.75 15V21C21.75 21.414 21.414 21.75 21 21.75H15C14.586 21.75 14.25 21.414 14.25 21V15C14.25 14.586 14.586 14.25 15 14.25H21C21.414 14.25 21.75 14.586 21.75 15Z" fill="black"/>
</g>
<defs>
<clipPath id="clip0_918_27">
<rect width="24" height="24" fill="white"/>
</clipPath>
</defs>
</svg>
