<svg width="48" height="48" viewBox="0 0 48 48" fill="none" xmlns="http://www.w3.org/2000/svg">
<rect width="48" height="48" rx="13" fill="#FF5B4B"/>
<path d="M39.9657 21.0834V15.25C39.9657 13.6459 38.5288 12.3334 36.7726 12.3334H11.2276C9.47133 12.3334 8.05039 13.6459 8.05039 15.25V21.0834C9.80661 21.0834 11.2276 22.3959 11.2276 24C11.2276 25.6042 9.80661 26.9167 8.03442 26.9167V32.75C8.03442 34.3542 9.47133 35.6667 11.2276 35.6667H36.7726C38.5288 35.6667 39.9657 34.3542 39.9657 32.75V26.9167C38.2095 26.9167 36.7726 25.6042 36.7726 24C36.7726 22.3959 38.2095 21.0834 39.9657 21.0834ZM36.7726 18.9542C34.8727 19.9605 33.5794 21.8563 33.5794 24C33.5794 26.1438 34.8727 28.0396 36.7726 29.0459V32.75H11.2276V29.0459C13.1275 28.0396 14.4207 26.1438 14.4207 24C14.4207 21.8417 13.1434 19.9605 11.2435 18.9542L11.2276 15.25H36.7726V18.9542ZM19.3221 29.8334L24.0001 27.0917L28.678 29.8334L27.2571 24.9334L31.5518 21.725L26.0117 21.4188L24.0001 16.7084L21.9724 21.4042L16.4324 21.7105L20.7271 24.9188L19.3221 29.8334Z" fill="white"/>
</svg>
