<svg xmlns="http://www.w3.org/2000/svg" version="1.1" xmlns:xlink="http://www.w3.org/1999/xlink" width="12" height="12" x="0" y="0" viewBox="0 0 24 24" style="enable-background:new 0 0 512 512" xml:space="preserve" class=""><g><path d="M22 15v4a1 1 0 0 1-1 1h-4a1 1 0 0 1 0-2h1.67L13 11.47l-2.25 2.27A.9.9 0 0 1 10 14a1 1 0 0 1-.72-.34l-7-8a1 1 0 0 1 1.5-1.32l6.3 7.22 2.21-2.26a1 1 0 0 1 1.46 0L20 16.48V15a1 1 0 0 1 2 0z" data-name="Layer 69" fill="#DC0000" opacity="1" data-original="#000000" class=""></path></g></svg>