<svg xmlns="http://www.w3.org/2000/svg" xmlns:xlink="http://www.w3.org/1999/xlink" data-name="Layer 1" viewBox="0 0 250 200" width="360" height="360"><defs><linearGradient id="a" x1="84.152" x2="137.652" y1="18.816" y2="147.316" gradientUnits="userSpaceOnUse"><stop offset="0" stop-color="#ffffff" class="stopColorfff svgShape"></stop><stop offset=".256" stop-color="#fdf3ff" class="stopColorfdf3ff svgShape"></stop><stop offset=".632" stop-color="#d8e4ff" class="stopColord8e4ff svgShape"></stop><stop offset="1" stop-color="#c3d4ff" class="stopColorc3d4ff svgShape"></stop></linearGradient><linearGradient id="b" x1="125.358" x2="159.358" y1="60.167" y2="178.167" xlink:href="#a"></linearGradient><linearGradient id="a" x1="84.152" x2="137.652" y1="18.816" y2="147.316" gradientUnits="userSpaceOnUse"><stop offset="0" stop-color="#ffffff" class="stopColorfff svgShape"></stop><stop offset=".256" stop-color="#fdf3ff" class="stopColorfdf3ff svgShape"></stop><stop offset=".632" stop-color="#d8e4ff" class="stopColord8e4ff svgShape"></stop><stop offset="1" stop-color="#c3d4ff" class="stopColorc3d4ff svgShape"></stop></linearGradient><linearGradient id="b" x1="125.358" x2="159.358" y1="60.167" y2="178.167" xlink:href="#a"></linearGradient><linearGradient id="a" x1="84.152" x2="137.652" y1="18.816" y2="147.316" gradientUnits="userSpaceOnUse"><stop offset="0" stop-color="#ffffff" class="stopColorfff svgShape"></stop><stop offset=".256" stop-color="#fdf3ff" class="stopColorfdf3ff svgShape"></stop><stop offset=".632" stop-color="#d8e4ff" class="stopColord8e4ff svgShape"></stop><stop offset="1" stop-color="#c3d4ff" class="stopColorc3d4ff svgShape"></stop></linearGradient><linearGradient id="b" x1="125.358" x2="159.358" y1="60.167" y2="178.167" xlink:href="#a"></linearGradient></defs><path fill="url(&quot;#a&quot;)" d="M138.24814,21.8537c-19.1167-3.7372-39.5881-.4053-56.2191,7.4384a96.88629,96.88629,0,0,0-42.727,39.5999c-6.0339,10.5381-9.2972,22.778-6.4021,34.3269a34.11519,34.11519,0,0,0,16.7286,21.1919c10.3188,5.8049,16.5815,4.7138,28.50489,3.6809,21.5614-1.8677,43.1988,2.5384,63.8332,8.4223,6.8971,1.9667,13.8078,4.1161,21.0128,4.7498s14.8798-.4049,20.6782-4.2867c7.3066-4.8915,10.4005-13.3254,11.9242-21.3732,3.9336-20.7769-.9363-45.5819-11.2955-62.2924C173.02514,35.1461,156.23634,25.3704,138.24814,21.8537Z"></path><path fill="url(&quot;#b&quot;)" d="M143.99654,175.9772a138.841,138.841,0,0,0,48.8976-32.3809c13.6084-14.0746,21.4442-29.1738,24.4474-45.19,1.9076-10.1735.7343-20.4052-5.7787-27.5312-4.9543-5.4206-12.9813-8.3842-22.2816-8.2451-11.2944.1689-16.5936,3.608-27.0348,9.4004-18.8811,10.4746-39.946,16.4446-60.60149,20.9215-6.90411,1.4965-13.88221,2.8666-20.61561,5.4573s-13.32809,6.5894-17.26649,11.85c-4.9627,6.6289-4.9192,14.0368-3.5849,20.501,3.2384,15.6896,13.4273,28.9154,28.05379,37.7712C102.67184,177.2743,122.48274,184.2541,143.99654,175.9772Z"></path><path fill="#FFFFFF" d="M212.77344 114.823c-.321-5.9764-3.4821-8.1109-7.34049-8.1109a7.90551 7.90551 0 00-3.34371.7369 4.69419 4.69419 0 00-4.4621-2.926 4.60815 4.60815 0 00-4.637 3.5566 6.62976 6.62976 0 00-4.0709-1.3675 6.393 6.393 0 00-5.5538 3.0439 6.78273 6.78273 0 00-3.4716-.6557 6.08552 6.08552 0 00-5.7786 5.9001 5.4299 5.4299 0 005.66071 5.165h27.17419a5.61643 5.61643 0 005.8552-5.3424zM202.45984 72.5958c-.2084-3.9282-2.2602-5.3313-4.7647-5.3313a5.07869 5.07869 0 00-2.1703.4844 3.047 3.047 0 00-2.8963-1.9233 2.99852 2.99852 0 00-3.0098 2.3378 4.26905 4.26905 0 00-2.6424-.8989 4.13824 4.13824 0 00-3.6049 2.0008 4.35529 4.35529 0 00-2.2534-.431 3.97728 3.97728 0 00-3.7508 3.8781 3.5429 3.5429 0 003.6743 3.3949H198.68a3.66465 3.66465 0 003.80049-3.5115zM103.26014 100.1509c-.44419-8.5172-4.8167-11.5593-10.154-11.5593a10.66772 10.66772 0 00-4.6251 1.0502 6.4945 6.4945 0 00-6.1723-4.1701 6.41347 6.41347 0 00-6.41409 5.0688 8.9983 8.9983 0 00-5.6311-1.9489 8.78859 8.78859 0 00-7.6826 4.338 9.14567 9.14567 0 00-4.8021-.9345 8.55883 8.55883 0 00-7.9933 8.4086 7.60648 7.60648 0 007.8304 7.3608H95.20484a7.86775 7.86775 0 008.0994-7.6136z" class="colorfff svgShape"></path><path fill="#E3E3E3" d="M167.00014,128.1412a.23058.23058,0,0,1-.052-.006.22749.22749,0,0,1-.14919-.1151L150.03084,96.3477a.22758.22758,0,1,1,.4023-.2129l16.6461,31.4416,28.8856-20.7669a.22754.22754,0,1,1,.2658.3694L167.133,128.0983A.22693.22693,0,0,1,167.00014,128.1412Z" class="colore3e3e3 svgShape"></path><path fill="#E3E3E3" d="M167.00014,128.1412a.2319.2319,0,0,1-.052-.006.22774.22774,0,0,1-.1749-.2043l-2.1658-28.2488a.22761.22761,0,0,1,.4539-.0346l2.1108,27.5324,14.1275-23.7257a.22764.22764,0,0,1,.3912.2329l-14.4951,24.343A.22783.22783,0,0,1,167.00014,128.1412Z" class="colore3e3e3 svgShape"></path><path fill="#9B87FE" d="M178.25014,79.9267a25.7654,25.7654,0,0,0-29.2914,14.3293c-1.7945,7.6541,47.3676,19.1797,49.162,11.5256A25.76537,25.76537,0,0,0,178.25014,79.9267Z" class="color9b87fe svgShape"></path><path fill="#7368E3" d="M178.25014,79.9267c3.7219.8725,4.2822,12.5146,1.6673,27.3734a69.89927,69.89927,0,0,0,10.1017.9965C191.57024,94.0327,186.84014,81.9405,178.25014,79.9267Zm-23.1518,20.1831a69.93179,69.93179,0,0,0,9.4921,3.5971c4.26151-14.4728,9.9378-24.6528,13.6597-23.7803C169.66014,77.9128,160.04844,86.6428,155.09834,100.1098Z" class="color7368e3 svgShape"></path><path fill="#B4AAF9" d="M157.84984,123.7486a.6449.6449,0,0,0-.7751.4807l-3.1342,13.369a.64479.64479,0,0,0,.4807.775l14.9654,3.5085,3.4286-14.6247Z" class="colorb4aaf9 svgShape"></path><path fill="#8B7AE5" d="M177.048,128.2495l-4.2328-.9924-3.4286,14.6247,4.2328.9923a.64478.64478,0,0,0,.775-.4806l3.1342-13.369A.64485.64485,0,0,0,177.048,128.2495Z" class="color8b7ae5 svgShape"></path><rect width="16.016" height="2.611" x="155.296" y="131.436" fill="#8B7AE5" transform="rotate(13.195 163.307 132.74)" class="color8b7ae5 svgShape"></rect><rect width="15.021" height="2.611" x="155.794" y="131.436" fill="#8B7AE5" transform="rotate(-76.806 163.304 132.742)" class="color8b7ae5 svgShape"></rect><path fill="#8B7AE5" d="M156.78234,134.0108l-.2078.8864,3.61341.8471.20779-.8863Zm-.5062,2.159,3.6134.8471.2078-.8863-3.61339-.8471Zm-.2984,1.2729,3.6134.8471.20781-.8864-3.61341-.8471Z" class="color8b7ae5 svgShape"></path><path fill="#E3E3E3" d="M46.631,104.3159a.17642.17642,0,0,1-.0394-.0045.173.173,0,0,1-.1132-.0873l-12.718-24.0225a.1726.1726,0,1,1,.3051-.1615L46.691,103.8876l21.9088-15.7511a.17259.17259,0,1,1,.2016.2802l-22.0696,15.8667A.17184.17184,0,0,1,46.631,104.3159Z" class="colore3e3e3 svgShape"></path><path fill="#E3E3E3" d="M46.631,104.3159a.17776.17776,0,0,1-.0394-.0045.17273.17273,0,0,1-.1327-.155l-1.6427-21.4258a.17265.17265,0,0,1,.3443-.0262l1.601,20.8824,10.7152-17.9952a.17271.17271,0,0,1,.2968.1767l-10.9941,18.4634A.17273.17273,0,0,1,46.631,104.3159Z" class="colore3e3e3 svgShape"></path><path fill="#9B87FE" d="M55.16375,67.7468a19.54227,19.54227,0,0,0-22.2166,10.8683c-1.3611,5.8054,35.9268,14.5472,37.2878,8.7418A19.54217,19.54217,0,0,0,55.16375,67.7468Z" class="color9b87fe svgShape"></path><path fill="#7368E3" d="M55.16375,67.7468c2.8229.6617,3.2479,9.4919,1.2646,20.7618a53.02257,53.02257,0,0,0,7.6618.7559C65.26665,78.4457,61.679,69.2742,55.16375,67.7468ZM37.60385,83.055a53.02736,53.02736,0,0,0,7.1995,2.7283c3.2322-10.9771,7.5375-18.6984,10.3604-18.0366C48.64855,66.2193,41.35835,72.8407,37.60385,83.055Z" class="color7368e3 svgShape"></path><path fill="#B4AAF9" d="M39.69075,100.9843a.48918.48918,0,0,0-.5879.3646l-2.3772,10.14a.48916.48916,0,0,0,.3646.5878l11.3508,2.6611,2.6005-11.0924Z" class="colorb4aaf9 svgShape"></path><path fill="#8B7AE5" d="M54.252,104.3981l-3.2104-.7527L48.441,114.7378l3.2105.7526a.48914.48914,0,0,0,.5878-.3645l2.3772-10.14A.48916.48916,0,0,0,54.252,104.3981Z" class="color8b7ae5 svgShape"></path><rect width="12.148" height="1.98" x="37.754" y="106.815" fill="#8B7AE5" transform="rotate(13.195 43.829 107.804)" class="color8b7ae5 svgShape"></rect><rect width="11.393" height="1.98" x="38.131" y="106.815" fill="#8B7AE5" transform="rotate(-76.806 43.828 107.805)" class="color8b7ae5 svgShape"></rect><path fill="#8B7AE5" d="M38.88115,108.7679l-.1576.6723,2.7406.6425.1576-.6723Zm-.384,1.6375,2.7407.6425.1576-.6722-2.7407-.6425Zm-.2263.9654,2.7406.6425.1577-.6723-2.7407-.6425Z" class="color8b7ae5 svgShape"></path><path fill="#E3E3E3" d="M109.391,138.6817a.50817.50817,0,0,1-.11451-.0132.50059.50059,0,0,1-.3283-.2534l-36.908-69.7135a.50095.50095,0,1,1,.8855-.4687l36.63949,69.2057,63.5796-45.7098a.50083.50083,0,1,1,.5851.813l-64.0464,46.0455A.49912.49912,0,0,1,109.391,138.6817Z" class="colore3e3e3 svgShape"></path><path fill="#E3E3E3" d="M109.391,138.6817a.51147.51147,0,0,1-.11451-.0132.50137.50137,0,0,1-.385-.4496l-4.767-62.178a.501.501,0,1,1,.999-.0763l4.6462,60.6013,31.0958-52.2224a.501.501,0,1,1,.861.5127l-31.905,53.5809A.50139.50139,0,0,1,109.391,138.6817Z" class="colore3e3e3 svgShape"></path><path fill="#4DC7F6" d="M134.15314,32.5574a56.71216,56.71216,0,0,0-64.473,31.5402c-3.9497,16.8473,104.26029,42.2161,108.21,25.3687A56.71208,56.71208,0,0,0,134.15314,32.5574Z" class="color4dc7f6 svgShape"></path><path fill="#2986FF" d="M134.15314,32.5574c8.1923,1.9205,9.4256,27.5458,3.6699,60.2514a153.88752,153.88752,0,0,0,22.2348,2.1933C163.47184,63.606,153.06054,36.99,134.15314,32.5574ZM83.194,76.9822a153.9013,153.9013,0,0,0,20.8928,7.9175C113.467,53.0438,125.961,30.6368,134.153,32.5574,115.24574,28.1247,94.08964,47.3402,83.194,76.9822Z" class="color2986ff svgShape"></path><path fill="#FDBB2B" d="M89.25034,129.0134a1.4194,1.4194,0,0,0-1.706,1.058l-6.8987,29.4262a1.41939,1.41939,0,0,0,1.0581,1.7059l32.94,7.7225,7.5467-32.1902Z" class="colorfdbb2b svgShape"></path><path fill="#E68227" d="M131.50724,138.92l-9.3168-2.1842-7.5467,32.1902,9.3168,2.1842a1.41935,1.41935,0,0,0,1.7059-1.058l6.8986-29.4262A1.41943,1.41943,0,0,0,131.50724,138.92Z" class="colore68227 svgShape"></path><rect width="35.253" height="5.747" x="83.63" y="145.934" fill="#E68227" transform="rotate(13.194 101.256 148.808)" class="colore68227 svgShape"></rect><rect width="33.063" height="5.747" x="84.725" y="145.934" fill="#E68227" transform="rotate(-76.806 101.256 148.808)" class="colore68227 svgShape"></rect><path fill="#E68227" d="M86.90064,151.6013l-.4573,1.951,7.9533,1.8646.4574-1.951Zm-1.1141,4.7521,7.95341,1.8646.45739-1.9509L86.244,154.4025Zm-.6568,2.8017,7.9534,1.8645.4574-1.9509-7.9534-1.8646Z" class="colore68227 svgShape"></path></svg>