<svg width="81" height="80" viewBox="0 0 81 80" fill="none" xmlns="http://www.w3.org/2000/svg">
<path opacity="0.3" d="M40.6667 13.3333C25.9667 13.3333 14 25.2999 14 39.9999C14 54.6999 25.9667 66.6666 40.6667 66.6666C55.3667 66.6666 67.3333 54.6999 67.3333 39.9999C67.3333 25.2999 55.3667 13.3333 40.6667 13.3333ZM47.3667 46.6999L22.3333 58.3333L33.9667 33.2999L59 21.6666L47.3667 46.6999Z" fill="#FF5B4B"/>
<path d="M40.6668 6.66675C22.2668 6.66675 7.3335 21.6001 7.3335 40.0001C7.3335 58.4001 22.2668 73.3334 40.6668 73.3334C59.0668 73.3334 74.0002 58.4001 74.0002 40.0001C74.0002 21.6001 59.0668 6.66675 40.6668 6.66675ZM40.6668 66.6667C25.9668 66.6667 14.0002 54.7001 14.0002 40.0001C14.0002 25.3001 25.9668 13.3334 40.6668 13.3334C55.3668 13.3334 67.3335 25.3001 67.3335 40.0001C67.3335 54.7001 55.3668 66.6667 40.6668 66.6667ZM22.3335 58.3334L47.3668 46.7001L59.0002 21.6667L33.9668 33.3001L22.3335 58.3334ZM40.6668 36.3334C42.7002 36.3334 44.3335 37.9667 44.3335 40.0001C44.3335 42.0334 42.7002 43.6667 40.6668 43.6667C38.6335 43.6667 37.0002 42.0334 37.0002 40.0001C37.0002 37.9667 38.6335 36.3334 40.6668 36.3334Z" fill="#FF5B4B"/>
</svg>
