<svg width="48" height="48" viewBox="0 0 48 48" fill="none" xmlns="http://www.w3.org/2000/svg">
<rect width="48" height="48" rx="13" fill="#009090"/>
<path d="M11.524 24C11.524 20.7124 12.9538 17.5595 15.4988 15.2348C18.0438 12.9101 21.4956 11.6041 25.0948 11.6041C28.694 11.6041 32.1458 12.9101 34.6908 15.2348C37.2358 17.5595 38.6656 20.7124 38.6656 24C38.6656 27.2875 37.2358 30.4405 34.6908 32.7651C32.1458 35.0898 28.694 36.3958 25.0948 36.3958C21.4956 36.3958 18.0438 35.0898 15.4988 32.7651C12.9538 30.4405 11.524 27.2875 11.524 24ZM25.0948 9.41663C16.277 9.41663 9.12915 15.9456 9.12915 24C9.12915 32.0543 16.277 38.5833 25.0948 38.5833C33.9126 38.5833 41.0604 32.0543 41.0604 24C41.0604 15.9456 33.9126 9.41663 25.0948 9.41663ZM28.8355 15.5533C28.5888 15.3581 28.2734 15.2507 27.9471 15.2507C27.6207 15.2507 27.3053 15.3581 27.0586 15.5533C26.9431 15.6442 26.8504 15.7568 26.7869 15.8834C26.7234 16.01 26.6905 16.1476 26.6905 16.2868C26.6905 16.4261 26.7234 16.5637 26.7869 16.6903C26.8504 16.8169 26.9431 16.9295 27.0586 17.0204C31.7253 20.8748 31.7253 27.1237 27.0586 30.9781C26.9431 31.069 26.8504 31.1816 26.7869 31.3082C26.7234 31.4348 26.6905 31.5724 26.6905 31.7116C26.6905 31.8509 26.7234 31.9885 26.7869 32.1151C26.8504 32.2417 26.9431 32.3543 27.0586 32.4452C27.3053 32.6403 27.6207 32.7478 27.9471 32.7478C28.2734 32.7478 28.5888 32.6403 28.8355 32.4452C34.4842 27.7814 34.4842 20.2185 28.8355 15.5533ZM22.2481 17.7612C22.3568 17.6584 22.487 17.5767 22.631 17.5209C22.775 17.4651 22.9299 17.4363 23.0863 17.4363C23.2427 17.4363 23.3976 17.4651 23.5416 17.5209C23.6856 17.5767 23.8158 17.6584 23.9245 17.7612C27.6174 21.2073 27.6174 26.7956 23.9245 30.2416C23.8158 30.3444 23.6856 30.4261 23.5416 30.4819C23.3976 30.5377 23.2427 30.5665 23.0863 30.5665C22.9299 30.5665 22.775 30.5377 22.631 30.4819C22.487 30.4261 22.3568 30.3444 22.2481 30.2416C22.0262 30.0322 21.9021 29.7521 21.9021 29.4607C21.9021 29.1692 22.0262 28.8892 22.2481 28.6798C25.0166 26.0956 25.0166 21.9073 22.2481 19.3245C22.0257 19.115 21.9014 18.8347 21.9014 18.5429C21.9014 18.2511 22.0257 17.9707 22.2481 17.7612ZM19.1907 19.94C18.9589 19.7372 18.6503 19.624 18.3294 19.624C18.0084 19.624 17.6998 19.7372 17.468 19.94C17.3555 20.038 17.2659 20.1559 17.2047 20.2865C17.1435 20.4171 17.1119 20.5577 17.1119 20.6998C17.1119 20.8418 17.1435 20.9824 17.2047 21.113C17.2659 21.2436 17.3555 21.3615 17.468 21.4595C17.8447 21.787 18.1447 22.181 18.3496 22.6176C18.5546 23.0541 18.6603 23.5242 18.6603 23.9992C18.6603 24.4743 18.5546 24.9443 18.3496 25.3809C18.1447 25.8175 17.8447 26.2115 17.468 26.5389C17.3552 26.637 17.2654 26.755 17.2041 26.8857C17.1427 27.0164 17.1111 27.1572 17.1111 27.2994C17.1111 27.4417 17.1427 27.5824 17.2041 27.7132C17.2654 27.8439 17.3552 27.9619 17.468 28.06C17.6999 28.2632 18.0088 28.3766 18.3301 28.3766C18.6515 28.3766 18.9604 28.2632 19.1923 28.06C19.7946 27.5365 20.2741 26.9067 20.6017 26.2087C20.9294 25.5108 21.0984 24.7593 21.0984 24C21.0984 23.2406 20.9294 22.4891 20.6017 21.7912C20.2741 21.0933 19.7946 20.4634 19.1923 19.94" fill="white"/>
</svg>
