<svg width="24" height="24" viewBox="0 0 24 24" fill="none" xmlns="http://www.w3.org/2000/svg">
<path d="M19.0282 3.14444H16.8569V2.1731C16.8569 1.85884 16.5141 1.71601 16.1998 1.71601H14.5143C14.1143 0.573235 13.1144 0.00184981 11.9716 0.00184981C10.8414 -0.0406391 9.81343 0.652362 9.42895 1.71601H7.77193C7.45767 1.71601 7.14341 1.85884 7.14341 2.1731V3.14444H4.9721C3.6854 3.15817 2.63275 4.1732 2.57227 5.45853V21.8287C2.57227 23.0857 3.71504 23.9999 4.9721 23.9999H19.0282C20.2852 23.9999 21.428 23.0857 21.428 21.8287V5.45859C21.3675 4.1732 20.3149 3.15817 19.0282 3.14444ZM8.28612 2.85878H9.85745C9.99106 2.84247 10.1159 2.78371 10.2136 2.69114C10.3114 2.59857 10.3768 2.47707 10.4003 2.34454C10.5695 1.60773 11.2159 1.07884 11.9716 1.05893C12.7203 1.08163 13.357 1.61216 13.5143 2.34454C13.5392 2.4814 13.6088 2.60613 13.7122 2.69919C13.8156 2.79225 13.947 2.84838 14.0857 2.85878H15.7142V5.14432H8.28612V2.85878ZM20.2852 21.8287C20.2852 22.4573 19.6567 22.8572 19.0282 22.8572H4.9721C4.34357 22.8572 3.71504 22.4573 3.71504 21.8287V5.45859C3.77333 4.80435 4.31535 4.29924 4.9721 4.28727H7.14335V5.74431C7.17354 6.06442 7.45078 6.30388 7.77188 6.28715H16.1998C16.3575 6.29577 16.5126 6.24471 16.6344 6.14413C16.7561 6.04354 16.8356 5.9008 16.8569 5.74431V4.28721H19.0281C19.6848 4.29924 20.2269 4.8043 20.2852 5.45853V21.8287H20.2852Z" fill="black"/>
<path d="M9.80126 12.7727C9.58696 12.5468 9.23119 12.534 9.0013 12.7441L7.17285 14.4868L6.40149 13.6869C6.18719 13.461 5.83142 13.4483 5.60153 13.6583C5.49499 13.7699 5.43555 13.9183 5.43555 14.0726C5.43555 14.2269 5.49499 14.3752 5.60153 14.4868L6.77285 15.6867C6.82292 15.7428 6.88469 15.7872 6.95379 15.8168C7.0229 15.8465 7.09765 15.8606 7.1728 15.8582C7.32351 15.856 7.46727 15.7944 7.57275 15.6867L9.80115 13.5726C10.0221 13.37 10.0368 13.0266 9.83412 12.8057C9.82371 12.7942 9.81274 12.7831 9.80126 12.7727ZM18.0006 14.0011H11.4297C11.1142 14.0011 10.8583 14.2569 10.8583 14.5725C10.8583 14.8881 11.1142 15.1439 11.4297 15.1439H18.0006C18.3162 15.1439 18.572 14.8881 18.572 14.5725C18.572 14.2569 18.3162 14.0011 18.0006 14.0011ZM9.80126 8.20157C9.58696 7.97568 9.23119 7.96293 9.0013 8.17303L7.17285 9.91573L6.40149 9.11577C6.18719 8.88987 5.83142 8.87713 5.60153 9.08722C5.49499 9.19883 5.43555 9.34719 5.43555 9.50148C5.43555 9.65577 5.49499 9.80413 5.60153 9.91573L6.77285 11.1156C6.82292 11.1717 6.88469 11.2161 6.95379 11.2458C7.0229 11.2754 7.09765 11.2895 7.1728 11.2871C7.32351 11.2849 7.46727 11.2233 7.57275 11.1156L9.80115 9.00153C10.0221 8.79888 10.0368 8.45547 9.83412 8.2346C9.82371 8.22307 9.81274 8.21204 9.80126 8.20157ZM18.0006 9.43003H11.4297C11.1142 9.43003 10.8583 9.68584 10.8583 10.0014C10.8583 10.317 11.1142 10.5728 11.4297 10.5728H18.0006C18.3162 10.5728 18.572 10.317 18.572 10.0014C18.572 9.68584 18.3162 9.43003 18.0006 9.43003ZM9.80126 17.3437C9.58696 17.1178 9.23119 17.1051 9.0013 17.3151L7.17285 19.0578L6.40149 18.2579C6.18719 18.032 5.83142 18.0193 5.60153 18.2293C5.49499 18.3409 5.43555 18.4893 5.43555 18.6436C5.43555 18.7979 5.49499 18.9462 5.60153 19.0578L6.77285 20.2578C6.82292 20.3138 6.88469 20.3583 6.95379 20.3879C7.0229 20.4175 7.09765 20.4316 7.1728 20.4292C7.32351 20.4271 7.46727 20.3654 7.57275 20.2578L9.80115 18.1436C10.0221 17.941 10.0368 17.5976 9.83412 17.3767C9.82368 17.3652 9.81272 17.3542 9.80126 17.3437ZM18.0006 18.5722H11.4297C11.1142 18.5722 10.8583 18.828 10.8583 19.1436C10.8583 19.4592 11.1142 19.715 11.4297 19.715H18.0006C18.3162 19.715 18.572 19.4592 18.572 19.1436C18.572 18.828 18.3162 18.5722 18.0006 18.5722Z" fill="black"/>
</svg>
