<svg width="81" height="80" viewBox="0 0 81 80" fill="none" xmlns="http://www.w3.org/2000/svg">
<g clip-path="url(#clip0_12043_5867)">
<g filter="url(#filter0_dd_12043_5867)">
<path fill-rule="evenodd" clip-rule="evenodd" d="M8.90468 0C6.6314 0 4.45122 0.903059 2.84377 2.51051C1.23631 4.11797 0.333252 6.29814 0.333252 8.57143L0.333252 42.8571C0.333252 45.1304 1.23631 47.3106 2.84377 48.9181C4.45122 50.5255 6.6314 51.4286 8.90468 51.4286H71.7618C74.0351 51.4286 76.2153 50.5255 77.8227 48.9181C79.4302 47.3106 80.3333 45.1304 80.3333 42.8571V8.57143C80.3333 6.29814 79.4302 4.11797 77.8227 2.51051C76.2153 0.903059 74.0351 0 71.7618 0L8.90468 0ZM43.9047 8.30857C43.9047 7.36137 43.5284 6.45296 42.8586 5.78319C42.1889 5.11342 41.2805 4.73714 40.3333 4.73714C39.3861 4.73714 38.4776 5.11342 37.8079 5.78319C37.1381 6.45296 36.7618 7.36137 36.7618 8.30857V10.5943C34.7054 10.8353 32.8009 11.7973 31.3866 13.3096C29.9724 14.8219 29.14 16.7865 29.0372 18.8545C28.9344 20.9225 29.5679 22.96 30.8252 24.605C32.0825 26.2501 33.8822 27.3963 35.9047 27.84L42.7447 29.3314C43.2954 29.4359 43.7864 29.7441 44.1201 30.1945C44.4537 30.6449 44.6053 31.2045 44.5448 31.7617C44.4842 32.3189 44.2159 32.8329 43.7933 33.2011C43.3708 33.5693 42.825 33.7648 42.2647 33.7486H38.4018C37.9397 33.7501 37.4885 33.608 37.1107 33.3418C36.733 33.0756 36.4473 32.6986 36.2933 32.2629C35.9556 31.4001 35.2959 30.7024 34.4535 30.3169C33.6111 29.9314 32.6518 29.8883 31.7782 30.1968C30.9046 30.5053 30.1851 31.1412 29.7716 31.9703C29.358 32.7993 29.2828 33.7566 29.5618 34.64C30.6704 37.7829 33.4075 40.1543 36.7618 40.7486V43.12C36.7618 44.0672 37.1381 44.9756 37.8079 45.6454C38.4776 46.3152 39.3861 46.6914 40.3333 46.6914C41.2805 46.6914 42.1889 46.3152 42.8586 45.6454C43.5284 44.9756 43.9047 44.0672 43.9047 43.12V40.7429C46.0426 40.364 47.9828 39.255 49.3942 37.6052C50.8056 35.9553 51.6007 33.8667 51.6439 31.6959C51.687 29.5252 50.9755 27.4067 49.6308 25.702C48.2861 23.9973 46.3916 22.8121 44.2704 22.3486L37.4304 20.8571C37.0406 20.7753 36.6951 20.5516 36.461 20.2293C36.227 19.9071 36.121 19.5094 36.1637 19.1134C36.2065 18.7174 36.3949 18.3514 36.6923 18.0865C36.9897 17.8217 37.375 17.6768 37.7733 17.68H42.2647C42.7268 17.6785 43.178 17.8206 43.5558 18.0868C43.9335 18.353 44.2192 18.73 44.3733 19.1657C44.5175 19.6226 44.7523 20.0457 45.0635 20.41C45.3747 20.7743 45.756 21.0722 46.1847 21.286C46.6134 21.4999 47.0808 21.6253 47.5589 21.6548C48.0371 21.6843 48.5164 21.6173 48.9681 21.4578C49.4199 21.2982 49.8349 21.0494 50.1885 20.7262C50.5421 20.403 50.8271 20.0119 51.0265 19.5762C51.2258 19.1406 51.3355 18.6692 51.3489 18.1903C51.3623 17.7114 51.2793 17.2347 51.1047 16.7886C50.5526 15.2242 49.5952 13.8345 48.3302 12.7612C47.0653 11.688 45.5381 10.9698 43.9047 10.68V8.30857ZM16.0475 21.4286C17.1842 21.4286 18.2743 21.8801 19.078 22.6838C19.8817 23.4876 20.3333 24.5776 20.3333 25.7143C20.3333 26.8509 19.8817 27.941 19.078 28.7447C18.2743 29.5485 17.1842 30 16.0475 30C14.9109 30 13.8208 29.5485 13.0171 28.7447C12.2134 27.941 11.7618 26.8509 11.7618 25.7143C11.7618 24.5776 12.2134 23.4876 13.0171 22.6838C13.8208 21.8801 14.9109 21.4286 16.0475 21.4286ZM64.619 21.4286C65.7556 21.4286 66.8457 21.8801 67.6494 22.6838C68.4531 23.4876 68.9047 24.5776 68.9047 25.7143C68.9047 26.8509 68.4531 27.941 67.6494 28.7447C66.8457 29.5485 65.7556 30 64.619 30C63.4823 30 62.3922 29.5485 61.5885 28.7447C60.7848 27.941 60.3333 26.8509 60.3333 25.7143C60.3333 24.5776 60.7848 23.4876 61.5885 22.6838C62.3922 21.8801 63.4823 21.4286 64.619 21.4286ZM26.0475 56.4286C28.019 56.4286 29.619 58.0286 29.619 60V71.4286C29.619 72.3758 29.2427 73.2842 28.5729 73.954C27.9031 74.6237 26.9947 75 26.0475 75C25.1003 75 24.1919 74.6237 23.5222 73.954C22.8524 73.2842 22.4761 72.3758 22.4761 71.4286V60C22.4761 58.0286 24.0761 56.4286 26.0475 56.4286ZM58.1904 60C58.1904 59.531 58.098 59.0666 57.9185 58.6333C57.7391 58.2 57.476 57.8063 57.1443 57.4746C56.8127 57.143 56.419 56.8799 55.9857 56.7004C55.5524 56.521 55.088 56.4286 54.619 56.4286C54.15 56.4286 53.6855 56.521 53.2522 56.7004C52.8189 56.8799 52.4252 57.143 52.0936 57.4746C51.7619 57.8063 51.4989 58.2 51.3194 58.6333C51.1399 59.0666 51.0475 59.531 51.0475 60V71.4286C51.0475 71.8976 51.1399 72.362 51.3194 72.7953C51.4989 73.2286 51.7619 73.6223 52.0936 73.954C52.4252 74.2856 52.8189 74.5487 53.2522 74.7281C53.6855 74.9076 54.15 75 54.619 75C55.088 75 55.5524 74.9076 55.9857 74.7281C56.419 74.5487 56.8127 74.2856 57.1443 73.954C57.476 73.6223 57.7391 73.2286 57.9185 72.7953C58.098 72.362 58.1904 71.8976 58.1904 71.4286V60ZM43.9047 64.2857C43.9047 63.3385 43.5284 62.4301 42.8586 61.7603C42.1889 61.0906 41.2805 60.7143 40.3333 60.7143C39.3861 60.7143 38.4776 61.0906 37.8079 61.7603C37.1381 62.4301 36.7618 63.3385 36.7618 64.2857V75.7143C36.7618 76.6615 37.1381 77.5699 37.8079 78.2397C38.4776 78.9094 39.3861 79.2857 40.3333 79.2857C41.2805 79.2857 42.1889 78.9094 42.8586 78.2397C43.5284 77.5699 43.9047 76.6615 43.9047 75.7143V64.2857Z" fill="#FF5B4B"/>
</g>
</g>
<defs>
<filter id="filter0_dd_12043_5867" x="-3.66675" y="0" width="88" height="87.2856" filterUnits="userSpaceOnUse" color-interpolation-filters="sRGB">
<feFlood flood-opacity="0" result="BackgroundImageFix"/>
<feColorMatrix in="SourceAlpha" type="matrix" values="0 0 0 0 0 0 0 0 0 0 0 0 0 0 0 0 0 0 127 0" result="hardAlpha"/>
<feOffset dy="4"/>
<feGaussianBlur stdDeviation="2"/>
<feComposite in2="hardAlpha" operator="out"/>
<feColorMatrix type="matrix" values="0 0 0 0 0 0 0 0 0 0 0 0 0 0 0 0 0 0 0.25 0"/>
<feBlend mode="normal" in2="BackgroundImageFix" result="effect1_dropShadow_12043_5867"/>
<feColorMatrix in="SourceAlpha" type="matrix" values="0 0 0 0 0 0 0 0 0 0 0 0 0 0 0 0 0 0 127 0" result="hardAlpha"/>
<feOffset dy="4"/>
<feGaussianBlur stdDeviation="2"/>
<feComposite in2="hardAlpha" operator="out"/>
<feColorMatrix type="matrix" values="0 0 0 0 0 0 0 0 0 0 0 0 0 0 0 0 0 0 0.25 0"/>
<feBlend mode="normal" in2="effect1_dropShadow_12043_5867" result="effect2_dropShadow_12043_5867"/>
<feBlend mode="normal" in="SourceGraphic" in2="effect2_dropShadow_12043_5867" result="shape"/>
</filter>
<clipPath id="clip0_12043_5867">
<rect width="80" height="80" fill="white" transform="translate(0.333252)"/>
</clipPath>
</defs>
</svg>
