<svg width="48" height="48" viewBox="0 0 48 48" fill="none" xmlns="http://www.w3.org/2000/svg">
<rect width="48" height="48" rx="13" fill="#FAAE43"/>
<path d="M12.8241 38.5833C11.4936 38.5833 10.3627 38.1579 9.43142 37.3073C8.50009 36.4566 8.03442 35.4236 8.03442 34.2083C8.03442 33.2604 8.33405 32.416 8.93329 31.6752C9.53253 30.9343 10.2973 30.405 11.2276 30.087V17.91C10.2962 17.595 9.53147 17.0666 8.93329 16.3248C8.33511 15.5829 8.03549 14.7386 8.03442 13.7916C8.03442 12.5763 8.50009 11.5434 9.43142 10.6927C10.3627 9.84197 11.4936 9.41663 12.8241 9.41663C13.8619 9.41663 14.7868 9.69031 15.5989 10.2377C16.4111 10.785 16.9896 11.4836 17.3344 12.3333H30.6657C30.985 11.4826 31.5507 10.7841 32.3629 10.2377C33.175 9.69128 34.1127 9.4176 35.176 9.41663C36.5065 9.41663 37.6374 9.84197 38.5687 10.6927C39.5 11.5434 39.9657 12.5763 39.9657 13.7916C39.9657 14.7638 39.6666 15.6209 39.0684 16.3627C38.4703 17.1045 37.705 17.6207 36.7726 17.9114V30.0885C37.7039 30.4045 38.4692 30.9334 39.0684 31.6752C39.6677 32.417 39.9668 33.2613 39.9657 34.2083C39.9657 35.4236 39.5 36.4566 38.5687 37.3073C37.6374 38.1579 36.5065 38.5833 35.176 38.5833C34.1382 38.5833 33.2138 38.3101 32.4028 37.7637C31.5917 37.2173 31.0122 36.5183 30.6641 35.6666H17.3328C16.9869 36.5173 16.4079 37.2163 15.5958 37.7637C14.7836 38.3111 13.8598 38.5843 12.8241 38.5833ZM12.8241 15.25C13.2765 15.25 13.6559 15.11 13.9625 14.83C14.269 14.55 14.4217 14.2038 14.4207 13.7916C14.4196 13.3794 14.2663 13.0333 13.9609 12.7533C13.6554 12.4733 13.2765 12.3333 12.8241 12.3333C12.3718 12.3333 11.9928 12.4733 11.6874 12.7533C11.3819 13.0333 11.2286 13.3794 11.2276 13.7916C11.2265 14.2038 11.3798 14.5504 11.6874 14.8314C11.995 15.1124 12.3739 15.2519 12.8241 15.25ZM35.176 15.25C35.6284 15.25 36.0078 15.11 36.3144 14.83C36.6209 14.55 36.7736 14.2038 36.7726 13.7916C36.7715 13.3794 36.6182 13.0333 36.3128 12.7533C36.0073 12.4733 35.6284 12.3333 35.176 12.3333C34.7237 12.3333 34.3447 12.4733 34.0393 12.7533C33.7338 13.0333 33.5805 13.3794 33.5794 13.7916C33.5784 14.2038 33.7317 14.5504 34.0393 14.8314C34.3469 15.1124 34.7258 15.2519 35.176 15.25ZM17.3344 32.75H30.6657C30.9052 32.118 31.2777 31.5711 31.7833 31.1093C32.2889 30.6475 32.8876 30.3073 33.5794 30.0885V17.9114C32.8876 17.6927 32.2889 17.3524 31.7833 16.8906C31.2777 16.4288 30.9052 15.8819 30.6657 15.25H17.3344C17.0949 15.8819 16.7224 16.4288 16.2168 16.8906C15.7112 17.3524 15.1125 17.6927 14.4207 17.9114V30.0885C15.1125 30.3073 15.7112 30.6475 16.2168 31.1093C16.7224 31.5711 17.0949 32.118 17.3344 32.75ZM35.176 35.6666C35.6284 35.6666 36.0078 35.5266 36.3144 35.2466C36.6209 34.9666 36.7736 34.6205 36.7726 34.2083C36.7715 33.7961 36.6182 33.45 36.3128 33.17C36.0073 32.89 35.6284 32.75 35.176 32.75C34.7237 32.75 34.3447 32.89 34.0393 33.17C33.7338 33.45 33.5805 33.7961 33.5794 34.2083C33.5784 34.6205 33.7317 34.9671 34.0393 35.2481C34.3469 35.5291 34.7258 35.6686 35.176 35.6666ZM12.8241 35.6666C13.2765 35.6666 13.6559 35.5266 13.9625 35.2466C14.269 34.9666 14.4217 34.6205 14.4207 34.2083C14.4196 33.7961 14.2663 33.45 13.9609 33.17C13.6554 32.89 13.2765 32.75 12.8241 32.75C12.3718 32.75 11.9928 32.89 11.6874 33.17C11.3819 33.45 11.2286 33.7961 11.2276 34.2083C11.2265 34.6205 11.3798 34.9671 11.6874 35.2481C11.995 35.5291 12.3739 35.6686 12.8241 35.6666Z" fill="white"/>
</svg>
