<svg width="24" height="24" viewBox="0 0 24 24" fill="none" xmlns="http://www.w3.org/2000/svg">
<g clip-path="url(#clip0_918_38)">
<path d="M23.281 14.631L21.0751 12.906C21.1041 12.64 21.1271 12.329 21.1271 12C21.1271 11.671 21.103 11.36 21.0751 11.094L23.2831 9.36802C23.6931 9.04402 23.806 8.469 23.5441 7.99003L21.25 4.02103C20.999 3.56405 20.4361 3.35503 19.9231 3.54403L17.3201 4.58902C16.8221 4.22902 16.2991 3.92503 15.758 3.68203L15.362 0.921047C15.2971 0.396 14.8411 0 14.3021 0H9.70207C9.16305 0 8.70705 0.396 8.64307 0.911016L8.24608 3.68203C7.72207 3.91903 7.2071 4.21805 6.68608 4.59005L4.07608 3.54206C3.5771 3.34706 3.00907 3.55308 2.75908 4.01105L0.462068 7.98605C0.191083 8.44406 0.302083 9.03806 0.722083 9.37003L2.92807 11.094C2.89305 11.4321 2.87608 11.725 2.87608 12C2.87608 12.2751 2.8931 12.568 2.9261 12.906L0.718099 14.6331C0.309068 14.957 0.197036 15.532 0.458036 16.011L2.75205 19.98C3.00105 20.436 3.56304 20.644 4.07904 20.457L6.68205 19.412C7.18005 19.771 7.70407 20.075 8.24505 20.319L8.64105 23.079C8.70607 23.604 9.16207 24 9.70104 24H14.301C14.84 24 15.296 23.604 15.36 23.089L15.757 20.319C16.281 20.082 16.796 19.783 17.317 19.411L19.927 20.459C20.424 20.652 20.994 20.448 21.244 19.99L23.55 16.001C23.8051 15.533 23.693 14.958 23.281 14.631ZM22.676 15.511L20.294 19.529L17.4311 18.379C17.2691 18.314 17.0851 18.339 16.9451 18.443C16.325 18.907 15.7261 19.256 15.1121 19.507C15.0313 19.5399 14.9605 19.5934 14.9068 19.6622C14.8531 19.731 14.8184 19.8126 14.8061 19.899L14.3011 23L9.63405 22.947L9.19704 19.9C9.18449 19.8137 9.14967 19.7321 9.09601 19.6634C9.04235 19.5947 8.97171 19.5411 8.89104 19.508C8.25204 19.246 7.63704 18.889 7.06202 18.447C6.97469 18.3794 6.86739 18.3428 6.757 18.3429C6.694 18.3429 6.631 18.354 6.57002 18.3789L3.62501 19.4899L1.33099 15.5209C1.30999 15.4819 1.31397 15.4369 1.33797 15.4179L3.76497 13.521C3.83298 13.4676 3.88603 13.3976 3.91898 13.3177C3.95192 13.2378 3.96364 13.1507 3.95299 13.065C3.89997 12.6459 3.87597 12.3069 3.87597 12C3.87597 11.693 3.90096 11.355 3.95299 10.935C3.96373 10.8492 3.95206 10.7621 3.91911 10.6822C3.88616 10.6022 3.83305 10.5322 3.76497 10.479L1.32607 8.49L3.70807 4.47202L6.57105 5.622C6.73404 5.688 6.91704 5.66302 7.05804 5.55802C7.67702 5.09302 8.27702 4.74502 8.89104 4.494C8.97153 4.46075 9.04198 4.40712 9.09546 4.33839C9.14894 4.26965 9.18361 4.18818 9.19605 4.10198L9.70207 0.999984L14.3701 1.05398L14.8061 4.10198C14.8186 4.18828 14.8534 4.26982 14.9071 4.33857C14.9607 4.40731 15.0314 4.46088 15.1121 4.494C15.7501 4.755 16.3651 5.112 16.9411 5.55502C17.0821 5.66302 17.2671 5.68903 17.4321 5.622L20.3771 4.51102L22.6711 8.48002C22.6921 8.51902 22.6881 8.56303 22.6641 8.58202L20.2371 10.479C20.1691 10.5323 20.1159 10.6023 20.083 10.6822C20.05 10.7621 20.0384 10.8492 20.0491 10.935C20.0871 11.239 20.1261 11.604 20.1261 12C20.1261 12.397 20.0871 12.761 20.0491 13.065C20.0385 13.1508 20.0502 13.2378 20.0831 13.3177C20.1161 13.3976 20.1691 13.4677 20.2371 13.521L22.6611 15.417C22.687 15.438 22.6921 15.483 22.676 15.511Z" fill="black"/>
<path d="M12.002 7C9.24497 7 7.00195 9.24302 7.00195 12C7.00195 14.757 9.24497 17 12.002 17C14.759 17 17.002 14.757 17.002 12C17.002 9.24302 14.759 7 12.002 7ZM12.002 16C9.79598 16 8.00198 14.206 8.00198 12C8.00198 9.79403 9.79598 8.00003 12.002 8.00003C14.208 8.00003 16.002 9.79403 16.002 12C16.002 14.206 14.208 16 12.002 16Z" fill="black"/>
</g>
<defs>
<clipPath id="clip0_918_38">
<rect width="24" height="24" fill="white"/>
</clipPath>
</defs>
</svg>
