<svg width="24" height="24" viewBox="0 0 24 24" fill="none" xmlns="http://www.w3.org/2000/svg">
<path d="M2.00043 22.75C1.88157 22.7501 1.7644 22.7219 1.65857 22.6678C1.55274 22.6137 1.46129 22.5352 1.39175 22.4388C1.32221 22.3424 1.27658 22.2308 1.25861 22.1133C1.24065 21.9959 1.25087 21.8758 1.28843 21.763L2.73343 17.431C1.76371 15.7853 1.25169 13.9102 1.25043 12C1.25043 6.072 6.07243 1.25 12.0004 1.25C17.9284 1.25 22.7504 6.072 22.7504 12C22.7504 17.928 17.9284 22.75 12.0004 22.75C10.0914 22.75 8.22043 22.238 6.57043 21.268L2.23843 22.71C2.16176 22.736 2.0814 22.7495 2.00043 22.75ZM6.66243 19.696C6.80243 19.696 6.94243 19.736 7.06443 19.812C8.54 20.75 10.252 21.2487 12.0004 21.25C17.1004 21.25 21.2504 17.1 21.2504 12C21.2504 6.9 17.1004 2.75 12.0004 2.75C6.90043 2.75 2.75043 6.9 2.75043 12C2.75043 13.744 3.24743 15.451 4.18843 16.937C4.30843 17.127 4.33843 17.361 4.26643 17.575L3.18643 20.814L6.42543 19.734C6.50186 19.7086 6.5819 19.6958 6.66243 19.696ZM12.0024 16.686C11.7372 16.686 11.4829 16.7914 11.2953 16.9789C11.1078 17.1664 11.0024 17.4208 11.0024 17.686C11.0024 17.9512 11.1078 18.2056 11.2953 18.3931C11.4829 18.5806 11.7372 18.686 12.0024 18.686C12.2676 18.686 12.522 18.5806 12.7095 18.3931C12.8971 18.2056 13.0024 17.9512 13.0024 17.686C13.0024 17.4208 12.8971 17.1664 12.7095 16.9789C12.522 16.7914 12.2676 16.686 12.0024 16.686ZM15.6924 9.013C15.4274 7.503 14.1864 6.262 12.6754 5.996C12.1328 5.89857 11.5755 5.92133 11.0426 6.06266C10.5098 6.20399 10.0144 6.46046 9.59143 6.814C9.17151 7.16571 8.83388 7.60527 8.60235 8.10168C8.37082 8.59809 8.25103 9.13925 8.25143 9.687C8.25143 9.88591 8.33045 10.0767 8.4711 10.2173C8.61175 10.358 8.80252 10.437 9.00143 10.437C9.20034 10.437 9.39111 10.358 9.53176 10.2173C9.67241 10.0767 9.75143 9.88591 9.75143 9.687C9.75143 9.02 10.0444 8.392 10.5564 7.963C10.7969 7.75987 11.0773 7.60944 11.3795 7.52141C11.6817 7.43338 11.999 7.40972 12.311 7.45195C12.6229 7.49417 12.9225 7.60135 13.1905 7.76657C13.4584 7.93178 13.6887 8.15135 13.8665 8.4111C14.0443 8.67085 14.1657 8.965 14.2227 9.27457C14.2798 9.58413 14.2713 9.90222 14.1978 10.2083C14.1243 10.5144 13.9874 10.8016 13.7959 11.0515C13.6045 11.3014 13.3628 11.5083 13.0864 11.659C11.9364 12.292 11.2514 13.391 11.2514 14.599V14.687C11.2514 15.101 11.5874 15.393 12.0014 15.393C12.4154 15.393 12.7514 15.013 12.7514 14.6C12.7514 13.946 13.1474 13.338 13.8104 12.972C14.4975 12.5904 15.0481 12.0037 15.3856 11.2939C15.723 10.5842 15.8303 9.78672 15.6924 9.013Z" fill="black"/>
</svg>
