<svg xmlns="http://www.w3.org/2000/svg" version="1.1" xmlns:xlink="http://www.w3.org/1999/xlink" width="32" height="32" x="0" y="0" viewBox="0 0 24 24" style="enable-background:new 0 0 512 512" xml:space="preserve" class=""><g><g fill="#000"><path d="M12.25 12.25A5.75 5.75 0 1 1 18 6.5a5.76 5.76 0 0 1-5.75 5.75zm0-10A4.25 4.25 0 1 0 16.5 6.5a4.26 4.26 0 0 0-4.25-4.25z" fill="#F05B4E" opacity="1" data-original="#000000"></path><path d="M3.25 20.25a.76.76 0 0 1-.75-.75 8.77 8.77 0 0 1 8.75-8.75h2a.75.75 0 1 1 0 1.5h-2A7.26 7.26 0 0 0 4 19.5a.76.76 0 0 1-.75.75zM16.75 23.25a.76.76 0 0 1-.75-.75v-8a.75.75 0 1 1 1.5 0v8a.76.76 0 0 1-.75.75z" fill="#F05B4E" opacity="1" data-original="#000000"></path><path d="M20.75 19.25h-8a.75.75 0 1 1 0-1.5h8a.75.75 0 1 1 0 1.5z" fill="#F05B4E" opacity="1" data-original="#000000"></path></g></g></svg>